<svg xmlns="http://www.w3.org/2000/svg" xmlns:xlink="http://www.w3.org/1999/xlink" width="509" zoomAndPan="magnify" viewBox="0 0 381.75 180.749997" height="241" preserveAspectRatio="xMidYMid meet" version="1.2"><defs><clipPath id="5afbae69c4"><path d="M 0.140625 41 L 94 41 L 94 49 L 0.140625 49 Z M 0.140625 41 "/></clipPath><clipPath id="279613cd24"><path d="M 0.140625 121 L 98 121 L 98 129 L 0.140625 129 Z M 0.140625 121 "/></clipPath></defs><g id="a7db06dc3e"><path style="fill:none;stroke-width:9;stroke-linecap:round;stroke-linejoin:miter;stroke:#facc15;stroke-opacity:1;stroke-miterlimit:4;" d="M 4.501593 4.499382 L 131.915912 4.499382 " transform="matrix(0,0.746733,-0.746733,0,14.394995,33.220541)"/><g style="fill:#facc15;fill-opacity:0.4;"><g transform="translate(25.493461, 121.759124)"><path style="stroke:none" d="M 30.046875 -59.03125 C 34.109375 -59.03125 37.59375 -58.300781 40.5 -56.84375 C 43.40625 -55.394531 45.617188 -53.316406 47.140625 -50.609375 C 48.660156 -47.910156 49.421875 -44.726562 49.421875 -41.0625 C 49.421875 -37.40625 48.660156 -34.226562 47.140625 -31.53125 C 45.617188 -28.84375 43.40625 -26.765625 40.5 -25.296875 C 37.59375 -23.828125 34.109375 -23.09375 30.046875 -23.09375 L 15.875 -23.09375 L 15.875 0 L 8.921875 0 L 8.921875 -59.03125 Z M 29.84375 -29.03125 C 38.050781 -29.03125 42.15625 -33.039062 42.15625 -41.0625 C 42.15625 -49.113281 38.050781 -53.140625 29.84375 -53.140625 L 15.875 -53.140625 L 15.875 -29.03125 Z M 29.84375 -29.03125 "/></g></g><g style="fill:#facc15;fill-opacity:1;"><g transform="translate(21.838134, 118.103797)"><path style="stroke:none" d="M 30.046875 -59.03125 C 34.109375 -59.03125 37.59375 -58.300781 40.5 -56.84375 C 43.40625 -55.394531 45.617188 -53.316406 47.140625 -50.609375 C 48.660156 -47.910156 49.421875 -44.726562 49.421875 -41.0625 C 49.421875 -37.40625 48.660156 -34.226562 47.140625 -31.53125 C 45.617188 -28.84375 43.40625 -26.765625 40.5 -25.296875 C 37.59375 -23.828125 34.109375 -23.09375 30.046875 -23.09375 L 15.875 -23.09375 L 15.875 0 L 8.921875 0 L 8.921875 -59.03125 Z M 29.84375 -29.03125 C 38.050781 -29.03125 42.15625 -33.039062 42.15625 -41.0625 C 42.15625 -49.113281 38.050781 -53.140625 29.84375 -53.140625 L 15.875 -53.140625 L 15.875 -29.03125 Z M 29.84375 -29.03125 "/></g></g><g style="fill:#facc15;fill-opacity:0.4;"><g transform="translate(90.959797, 139.795015)"><path style="stroke:none" d="M 50.734375 0 L 43.640625 0 L 38.4375 -15.453125 L 14.421875 -15.453125 L 9.171875 0 L 2.234375 0 L 21.890625 -56.359375 L 31.078125 -56.359375 Z M 25.9375 -49.53125 L 16.265625 -21.015625 L 36.546875 -21.015625 L 26.90625 -49.53125 Z M 25.9375 -49.53125 "/></g></g><g style="fill:#facc15;fill-opacity:1;"><g transform="translate(87.469837, 136.305054)"><path style="stroke:none" d="M 50.734375 0 L 43.640625 0 L 38.4375 -15.453125 L 14.421875 -15.453125 L 9.171875 0 L 2.234375 0 L 21.890625 -56.359375 L 31.078125 -56.359375 Z M 25.9375 -49.53125 L 16.265625 -21.015625 L 36.546875 -21.015625 L 26.90625 -49.53125 Z M 25.9375 -49.53125 "/></g></g><g style="fill:#facc15;fill-opacity:0.4;"><g transform="translate(153.070617, 101.733862)"><path style="stroke:none" d="M 32.046875 0.828125 C 26.972656 0.828125 22.453125 -0.332031 18.484375 -2.65625 C 14.515625 -4.976562 11.40625 -8.378906 9.15625 -12.859375 C 6.914062 -17.347656 5.796875 -22.726562 5.796875 -29 C 5.796875 -35.257812 6.914062 -40.628906 9.15625 -45.109375 C 11.40625 -49.597656 14.515625 -53.003906 18.484375 -55.328125 C 22.453125 -57.660156 26.972656 -58.828125 32.046875 -58.828125 C 37.472656 -58.828125 41.984375 -57.800781 45.578125 -55.75 C 49.171875 -53.695312 51.757812 -50.609375 53.34375 -46.484375 L 48.984375 -43.59375 L 48 -43.59375 C 46.40625 -46.894531 44.335938 -49.238281 41.796875 -50.625 C 39.265625 -52.019531 36.015625 -52.71875 32.046875 -52.71875 C 28.398438 -52.71875 25.160156 -51.90625 22.328125 -50.28125 C 19.503906 -48.65625 17.257812 -46.078125 15.59375 -42.546875 C 13.925781 -39.015625 13.09375 -34.5 13.09375 -29 C 13.09375 -23.5 13.925781 -18.988281 15.59375 -15.46875 C 17.257812 -11.945312 19.503906 -9.375 22.328125 -7.75 C 25.160156 -6.125 28.398438 -5.3125 32.046875 -5.3125 C 36.253906 -5.3125 39.691406 -6.253906 42.359375 -8.140625 C 45.035156 -10.035156 47.019531 -13.097656 48.3125 -17.328125 L 49.296875 -17.328125 L 53.859375 -15.078125 C 52.484375 -9.941406 49.9375 -6.003906 46.21875 -3.265625 C 42.507812 -0.535156 37.785156 0.828125 32.046875 0.828125 Z M 32.046875 0.828125 "/></g></g><g style="fill:#facc15;fill-opacity:1;"><g transform="translate(149.480562, 98.143811)"><path style="stroke:none" d="M 32.046875 0.828125 C 26.972656 0.828125 22.453125 -0.332031 18.484375 -2.65625 C 14.515625 -4.976562 11.40625 -8.378906 9.15625 -12.859375 C 6.914062 -17.347656 5.796875 -22.726562 5.796875 -29 C 5.796875 -35.257812 6.914062 -40.628906 9.15625 -45.109375 C 11.40625 -49.597656 14.515625 -53.003906 18.484375 -55.328125 C 22.453125 -57.660156 26.972656 -58.828125 32.046875 -58.828125 C 37.472656 -58.828125 41.984375 -57.800781 45.578125 -55.75 C 49.171875 -53.695312 51.757812 -50.609375 53.34375 -46.484375 L 48.984375 -43.59375 L 48 -43.59375 C 46.40625 -46.894531 44.335938 -49.238281 41.796875 -50.625 C 39.265625 -52.019531 36.015625 -52.71875 32.046875 -52.71875 C 28.398438 -52.71875 25.160156 -51.90625 22.328125 -50.28125 C 19.503906 -48.65625 17.257812 -46.078125 15.59375 -42.546875 C 13.925781 -39.015625 13.09375 -34.5 13.09375 -29 C 13.09375 -23.5 13.925781 -18.988281 15.59375 -15.46875 C 17.257812 -11.945312 19.503906 -9.375 22.328125 -7.75 C 25.160156 -6.125 28.398438 -5.3125 32.046875 -5.3125 C 36.253906 -5.3125 39.691406 -6.253906 42.359375 -8.140625 C 45.035156 -10.035156 47.019531 -13.097656 48.3125 -17.328125 L 49.296875 -17.328125 L 53.859375 -15.078125 C 52.484375 -9.941406 49.9375 -6.003906 46.21875 -3.265625 C 42.507812 -0.535156 37.785156 0.828125 32.046875 0.828125 Z M 32.046875 0.828125 "/></g></g><g style="fill:#facc15;fill-opacity:0.4;"><g transform="translate(229.263127, 126.822908)"><path style="stroke:none" d="M 15.59375 -27.328125 L 15.59375 -5.625 L 45.140625 -5.625 L 45.140625 0 L 8.765625 0 L 8.765625 -57.984375 L 44.5 -57.984375 L 44.5 -52.359375 L 15.59375 -52.359375 L 15.59375 -32.96875 L 41.09375 -32.96875 L 41.09375 -27.328125 Z M 15.59375 -27.328125 "/></g></g><g style="fill:#facc15;fill-opacity:1;"><g transform="translate(225.673073, 123.232859)"><path style="stroke:none" d="M 15.59375 -27.328125 L 15.59375 -5.625 L 45.140625 -5.625 L 45.140625 0 L 8.765625 0 L 8.765625 -57.984375 L 44.5 -57.984375 L 44.5 -52.359375 L 15.59375 -52.359375 L 15.59375 -32.96875 L 41.09375 -32.96875 L 41.09375 -27.328125 Z M 15.59375 -27.328125 "/></g></g><g clip-rule="nonzero" clip-path="url(#5afbae69c4)"><path style="fill:none;stroke-width:9;stroke-linecap:round;stroke-linejoin:miter;stroke:#facc15;stroke-opacity:1;stroke-miterlimit:4;" d="M 4.499733 4.501432 L 120.693389 4.501432 " transform="matrix(0.747842,0,0,0.747842,0.138816,41.582858)"/></g><g clip-rule="nonzero" clip-path="url(#279613cd24)"><path style="fill:none;stroke-width:9;stroke-linecap:round;stroke-linejoin:miter;stroke:#facc15;stroke-opacity:1;stroke-miterlimit:4;" d="M 4.500367 4.499205 L 124.694756 4.499205 " transform="matrix(0.747877,0,0,0.747877,0.817872,121.693741)"/></g><path style="fill:none;stroke-width:9;stroke-linecap:round;stroke-linejoin:miter;stroke:#facc15;stroke-opacity:1;stroke-miterlimit:4;" d="M 4.498858 4.499385 L 127.230885 4.501205 " transform="matrix(-0.0000207203,0.748964,-0.748964,-0.0000207203,144.885596,19.868892)"/><path style="fill:none;stroke-width:9;stroke-linecap:round;stroke-linejoin:miter;stroke:#facc15;stroke-opacity:1;stroke-miterlimit:4;" d="M 4.499149 4.499046 L 127.481522 4.499046 " transform="matrix(0,0.748964,-0.748964,0,219.31103,19.68108)"/><path style="fill:none;stroke-width:9;stroke-linecap:round;stroke-linejoin:miter;stroke:#facc15;stroke-opacity:1;stroke-miterlimit:4;" d="M 4.499704 4.502223 L 122.490808 4.502223 " transform="matrix(0.748964,0,0,0.748964,130.973633,28.463934)"/><path style="fill:none;stroke-width:9;stroke-linecap:round;stroke-linejoin:miter;stroke:#facc15;stroke-opacity:1;stroke-miterlimit:4;" d="M 4.498966 4.502549 L 122.463992 4.502549 " transform="matrix(0.748964,0,0,0.748964,130.993717,106.889471)"/><path style="fill:none;stroke-width:9;stroke-linecap:round;stroke-linejoin:miter;stroke:#facc15;stroke-opacity:1;stroke-miterlimit:4;" d="M 4.499033 4.501112 L 101.814947 4.501112 " transform="matrix(0.746762,0,0,0.746762,216.499666,50.228582)"/><path style="fill:none;stroke-width:7;stroke-linecap:round;stroke-linejoin:miter;stroke:#facc15;stroke-opacity:1;stroke-miterlimit:4;" d="M 3.499374 3.499424 L 44.170134 3.499424 " transform="matrix(0,-0.748964,0.748964,0,198.652495,142.632624)"/><path style="fill:none;stroke-width:9;stroke-linecap:round;stroke-linejoin:miter;stroke:#facc15;stroke-opacity:1;stroke-miterlimit:4;" d="M 4.497688 4.498662 L 125.927457 4.498662 " transform="matrix(0,0.746541,-0.746541,0,287.459999,44.95479)"/><path style="fill:none;stroke-width:9;stroke-linecap:round;stroke-linejoin:miter;stroke:#facc15;stroke-opacity:1;stroke-miterlimit:4;" d="M 4.500968 4.501078 L 71.970722 4.501078 " transform="matrix(0.744373,0.000000000000000553,-0.000000000000000553,0.744373,84.247257,68.809675)"/><path style="fill:none;stroke-width:9;stroke-linecap:round;stroke-linejoin:miter;stroke:#facc15;stroke-opacity:1;stroke-miterlimit:4;" d="M 4.500502 4.498728 L 118.194003 4.498728 " transform="matrix(0.748964,0,0,0.748964,66.055067,139.267333)"/><path style="fill:none;stroke-width:9;stroke-linecap:round;stroke-linejoin:miter;stroke:#facc15;stroke-opacity:1;stroke-miterlimit:4;" d="M 4.499932 4.500384 L 136.559506 4.500384 " transform="matrix(0.748715,0,0,0.748715,190.482395,131.267213)"/><path style="fill:none;stroke-width:9;stroke-linecap:round;stroke-linejoin:miter;stroke:#facc15;stroke-opacity:1;stroke-miterlimit:4;" d="M 4.498189 4.501233 L 54.363942 4.501233 " transform="matrix(0,-0.748964,0.748964,0,146.495926,154.345544)"/><path style="fill:none;stroke-width:9;stroke-linecap:round;stroke-linejoin:miter;stroke:#facc15;stroke-opacity:1;stroke-miterlimit:4;" d="M 4.498275 4.497967 L 34.584272 4.497967 " transform="matrix(0,-0.747467,0.747467,0,72.098857,154.354498)"/><g style="fill:#facc15;fill-opacity:0.4;"><g transform="translate(81.369508, 166.733855)"><path style="stroke:none" d="M 4.09375 -11.390625 C 4.457031 -11.390625 4.773438 -11.351562 5.046875 -11.28125 C 5.316406 -11.21875 5.59375 -11.125 5.875 -11 C 6.019531 -10.945312 6.160156 -10.898438 6.296875 -10.859375 C 6.429688 -10.816406 6.550781 -10.796875 6.65625 -10.796875 C 6.914062 -10.796875 7.117188 -10.992188 7.265625 -11.390625 L 7.578125 -11.390625 L 7.578125 -7.6875 L 7.265625 -7.6875 C 7.210938 -8.269531 7.039062 -8.796875 6.75 -9.265625 C 6.46875 -9.734375 6.113281 -10.101562 5.6875 -10.375 C 5.257812 -10.644531 4.800781 -10.78125 4.3125 -10.78125 C 3.78125 -10.78125 3.328125 -10.617188 2.953125 -10.296875 C 2.578125 -9.984375 2.390625 -9.597656 2.390625 -9.140625 C 2.390625 -8.609375 2.648438 -8.148438 3.171875 -7.765625 C 3.535156 -7.492188 4.046875 -7.164062 4.703125 -6.78125 C 5.285156 -6.425781 5.769531 -6.117188 6.15625 -5.859375 C 6.550781 -5.597656 6.914062 -5.316406 7.25 -5.015625 C 7.5625 -4.722656 7.804688 -4.382812 7.984375 -4 C 8.160156 -3.625 8.25 -3.238281 8.25 -2.84375 C 8.25 -2.289062 8.097656 -1.773438 7.796875 -1.296875 C 7.492188 -0.816406 7.078125 -0.4375 6.546875 -0.15625 C 6.023438 0.113281 5.453125 0.25 4.828125 0.25 C 4.421875 0.25 4.0625 0.210938 3.75 0.140625 C 3.445312 0.0664062 3.128906 -0.0234375 2.796875 -0.140625 C 2.421875 -0.273438 2.144531 -0.34375 1.96875 -0.34375 C 1.675781 -0.34375 1.453125 -0.144531 1.296875 0.25 L 1 0.25 L 1 -3.5 L 1.296875 -3.5 C 1.484375 -2.539062 1.847656 -1.78125 2.390625 -1.21875 C 2.941406 -0.65625 3.648438 -0.375 4.515625 -0.375 C 5.128906 -0.375 5.632812 -0.539062 6.03125 -0.875 C 6.4375 -1.207031 6.640625 -1.628906 6.640625 -2.140625 C 6.640625 -2.398438 6.585938 -2.640625 6.484375 -2.859375 C 6.390625 -3.078125 6.226562 -3.3125 6 -3.5625 C 5.800781 -3.769531 5.507812 -4 5.125 -4.25 C 4.75 -4.507812 4.25 -4.832031 3.625 -5.21875 C 3.09375 -5.539062 2.6875 -5.796875 2.40625 -5.984375 C 2.125 -6.171875 1.910156 -6.335938 1.765625 -6.484375 C 1.210938 -7.046875 0.9375 -7.71875 0.9375 -8.5 C 0.9375 -9.039062 1.070312 -9.53125 1.34375 -9.96875 C 1.625 -10.414062 2.003906 -10.765625 2.484375 -11.015625 C 2.960938 -11.265625 3.5 -11.390625 4.09375 -11.390625 Z M 4.09375 -11.390625 "/></g></g><g style="fill:#facc15;fill-opacity:0.4;"><g transform="translate(90.331369, 166.733855)"><path style="stroke:none" d="M 6.765625 -11.390625 C 7.304688 -11.390625 7.773438 -11.335938 8.171875 -11.234375 C 8.566406 -11.140625 8.945312 -11.007812 9.3125 -10.84375 C 9.613281 -10.726562 9.8125 -10.671875 9.90625 -10.671875 C 10.03125 -10.671875 10.148438 -10.738281 10.265625 -10.875 C 10.390625 -11.007812 10.472656 -11.179688 10.515625 -11.390625 L 10.796875 -11.390625 L 11.078125 -7.625 L 10.796875 -7.625 C 10.703125 -8.289062 10.460938 -8.859375 10.078125 -9.328125 C 9.691406 -9.804688 9.21875 -10.164062 8.65625 -10.40625 C 8.101562 -10.65625 7.519531 -10.78125 6.90625 -10.78125 C 5.632812 -10.78125 4.617188 -10.328125 3.859375 -9.421875 C 3.097656 -8.515625 2.71875 -7.148438 2.71875 -5.328125 C 2.71875 -4.242188 2.925781 -3.335938 3.34375 -2.609375 C 3.757812 -1.878906 4.300781 -1.335938 4.96875 -0.984375 C 5.644531 -0.628906 6.367188 -0.453125 7.140625 -0.453125 C 7.929688 -0.453125 8.679688 -0.648438 9.390625 -1.046875 C 10.109375 -1.453125 10.671875 -1.988281 11.078125 -2.65625 L 11.3125 -2.5 C 10.238281 -0.664062 8.660156 0.25 6.578125 0.25 C 5.492188 0.25 4.5 0 3.59375 -0.5 C 2.695312 -1.007812 1.988281 -1.695312 1.46875 -2.5625 C 0.945312 -3.425781 0.6875 -4.378906 0.6875 -5.421875 C 0.6875 -6.515625 0.957031 -7.519531 1.5 -8.4375 C 2.039062 -9.351562 2.773438 -10.070312 3.703125 -10.59375 C 4.628906 -11.125 5.648438 -11.390625 6.765625 -11.390625 Z M 6.765625 -11.390625 "/></g></g><g style="fill:#facc15;fill-opacity:0.4;"><g transform="translate(102.004514, 166.733855)"><path style="stroke:none" d="M 1.859375 -2.15625 L 6.015625 -11.640625 L 6.3125 -11.640625 L 10.703125 -1.546875 C 10.859375 -1.171875 11.007812 -0.894531 11.15625 -0.71875 C 11.300781 -0.539062 11.457031 -0.425781 11.625 -0.375 C 11.789062 -0.320312 12.015625 -0.296875 12.296875 -0.296875 L 12.296875 0 L 7.71875 0 L 7.71875 -0.296875 C 8.101562 -0.296875 8.390625 -0.363281 8.578125 -0.5 C 8.773438 -0.644531 8.875 -0.835938 8.875 -1.078125 C 8.875 -1.273438 8.804688 -1.523438 8.671875 -1.828125 L 7.828125 -3.75 L 3.328125 -3.75 L 2.40625 -1.625 C 2.289062 -1.40625 2.234375 -1.207031 2.234375 -1.03125 C 2.234375 -0.539062 2.632812 -0.296875 3.4375 -0.296875 L 3.4375 0 L 0.234375 0 L 0.234375 -0.296875 C 0.503906 -0.328125 0.722656 -0.40625 0.890625 -0.53125 C 1.054688 -0.65625 1.207031 -0.832031 1.34375 -1.0625 C 1.476562 -1.300781 1.648438 -1.664062 1.859375 -2.15625 Z M 7.5625 -4.359375 L 5.578125 -8.890625 L 3.609375 -4.359375 Z M 7.5625 -4.359375 "/></g></g><g style="fill:#facc15;fill-opacity:0.4;"><g transform="translate(114.521895, 166.733855)"><path style="stroke:none" d="M 5.6875 -10.859375 C 5.125 -10.859375 4.71875 -10.769531 4.46875 -10.59375 C 4.226562 -10.414062 4.109375 -10.054688 4.109375 -9.515625 L 4.109375 -1.359375 C 4.109375 -1.128906 4.15625 -0.96875 4.25 -0.875 C 4.34375 -0.78125 4.492188 -0.734375 4.703125 -0.734375 L 7.125 -0.734375 C 7.6875 -0.734375 8.148438 -0.804688 8.515625 -0.953125 C 8.890625 -1.097656 9.207031 -1.332031 9.46875 -1.65625 C 9.738281 -1.988281 10 -2.457031 10.25 -3.0625 L 10.515625 -2.96875 L 9.578125 0 L 0.6875 0 L 0.6875 -0.296875 L 0.796875 -0.296875 C 1.347656 -0.296875 1.742188 -0.390625 1.984375 -0.578125 C 2.234375 -0.773438 2.359375 -1.128906 2.359375 -1.640625 L 2.359375 -9.53125 C 2.359375 -10.03125 2.226562 -10.375 1.96875 -10.5625 C 1.71875 -10.757812 1.320312 -10.859375 0.78125 -10.859375 L 0.6875 -10.859375 L 0.6875 -11.15625 L 5.6875 -11.15625 Z M 5.6875 -10.859375 "/></g></g><g style="fill:#facc15;fill-opacity:0.4;"><g transform="translate(125.350804, 166.733855)"><path style="stroke:none" d="M 5.703125 -10.859375 C 5.242188 -10.859375 4.894531 -10.816406 4.65625 -10.734375 C 4.414062 -10.660156 4.25 -10.515625 4.15625 -10.296875 C 4.0625 -10.085938 4.015625 -9.785156 4.015625 -9.390625 L 4.015625 -1.625 C 4.015625 -1.257812 4.070312 -0.976562 4.1875 -0.78125 C 4.300781 -0.59375 4.476562 -0.46875 4.71875 -0.40625 C 4.957031 -0.34375 5.285156 -0.304688 5.703125 -0.296875 L 5.703125 0 L 0.5625 0 L 0.5625 -0.296875 C 1 -0.304688 1.332031 -0.34375 1.5625 -0.40625 C 1.800781 -0.46875 1.972656 -0.59375 2.078125 -0.78125 C 2.191406 -0.976562 2.25 -1.265625 2.25 -1.640625 L 2.25 -9.390625 C 2.25 -9.785156 2.195312 -10.082031 2.09375 -10.28125 C 2 -10.488281 1.832031 -10.632812 1.59375 -10.71875 C 1.363281 -10.800781 1.019531 -10.847656 0.5625 -10.859375 L 0.5625 -11.15625 L 5.703125 -11.15625 Z M 5.703125 -10.859375 "/></g></g><g style="fill:#facc15;fill-opacity:0.4;"><g transform="translate(131.601381, 166.733855)"><path style="stroke:none" d="M 10.671875 -2.921875 L 10.671875 -9.609375 C 10.671875 -10.097656 10.582031 -10.425781 10.40625 -10.59375 C 10.226562 -10.757812 9.910156 -10.847656 9.453125 -10.859375 L 9.046875 -10.859375 L 9.046875 -11.15625 L 13.15625 -11.15625 L 13.15625 -10.859375 L 12.8125 -10.859375 C 12.375 -10.859375 12.0625 -10.832031 11.875 -10.78125 C 11.695312 -10.726562 11.570312 -10.597656 11.5 -10.390625 C 11.425781 -10.191406 11.390625 -9.867188 11.390625 -9.421875 L 11.390625 0.125 L 11.171875 0.125 L 3.203125 -8.84375 L 3.203125 -1.890625 C 3.203125 -1.273438 3.320312 -0.851562 3.5625 -0.625 C 3.800781 -0.40625 4.222656 -0.296875 4.828125 -0.296875 L 4.828125 0 L 0.796875 0 L 0.796875 -0.296875 L 0.890625 -0.296875 C 1.410156 -0.296875 1.804688 -0.390625 2.078125 -0.578125 C 2.347656 -0.765625 2.484375 -1.113281 2.484375 -1.625 L 2.484375 -9.5625 C 2.203125 -10.039062 1.878906 -10.375 1.515625 -10.5625 C 1.160156 -10.757812 0.726562 -10.859375 0.21875 -10.859375 L 0.21875 -11.15625 L 3.453125 -11.15625 Z M 10.671875 -2.921875 "/></g></g><g style="fill:#facc15;fill-opacity:0.4;"><g transform="translate(144.962981, 166.733855)"><path style="stroke:none" d="M 7.109375 -11.390625 C 7.691406 -11.390625 8.203125 -11.335938 8.640625 -11.234375 C 9.078125 -11.128906 9.519531 -10.988281 9.96875 -10.8125 C 10.28125 -10.695312 10.46875 -10.640625 10.53125 -10.640625 C 10.664062 -10.640625 10.78125 -10.703125 10.875 -10.828125 C 10.96875 -10.953125 11.03125 -11.140625 11.0625 -11.390625 L 11.359375 -11.390625 L 11.65625 -7.84375 L 11.359375 -7.84375 C 11.210938 -8.457031 10.921875 -8.984375 10.484375 -9.421875 C 10.054688 -9.867188 9.554688 -10.207031 8.984375 -10.4375 C 8.410156 -10.664062 7.820312 -10.78125 7.21875 -10.78125 C 6.40625 -10.78125 5.660156 -10.578125 4.984375 -10.171875 C 4.304688 -9.765625 3.757812 -9.164062 3.34375 -8.375 C 2.9375 -7.59375 2.734375 -6.65625 2.734375 -5.5625 C 2.734375 -4.5625 2.945312 -3.664062 3.375 -2.875 C 3.800781 -2.082031 4.378906 -1.46875 5.109375 -1.03125 C 5.835938 -0.59375 6.628906 -0.375 7.484375 -0.375 C 7.941406 -0.375 8.363281 -0.4375 8.75 -0.5625 C 9.132812 -0.6875 9.546875 -0.894531 9.984375 -1.1875 L 9.984375 -4.40625 C 9.984375 -4.875 9.859375 -5.203125 9.609375 -5.390625 C 9.359375 -5.585938 8.960938 -5.691406 8.421875 -5.703125 L 8.421875 -5.984375 L 13.21875 -5.984375 L 13.21875 -5.703125 C 12.8125 -5.671875 12.507812 -5.609375 12.3125 -5.515625 C 12.113281 -5.429688 11.96875 -5.28125 11.875 -5.0625 C 11.78125 -4.84375 11.734375 -4.519531 11.734375 -4.09375 L 11.734375 -0.921875 C 10.941406 -0.492188 10.238281 -0.191406 9.625 -0.015625 C 9.007812 0.160156 8.253906 0.25 7.359375 0.25 C 5.953125 0.25 4.742188 -0.0195312 3.734375 -0.5625 C 2.722656 -1.101562 1.960938 -1.789062 1.453125 -2.625 C 0.953125 -3.46875 0.703125 -4.335938 0.703125 -5.234375 C 0.703125 -6.359375 0.984375 -7.390625 1.546875 -8.328125 C 2.117188 -9.265625 2.894531 -10.007812 3.875 -10.5625 C 4.851562 -11.113281 5.929688 -11.390625 7.109375 -11.390625 Z M 7.109375 -11.390625 "/></g></g><g style="fill:#facc15;fill-opacity:0.4;"><g transform="translate(158.32458, 166.733855)"><path style="stroke:none" d=""/></g></g><g style="fill:#facc15;fill-opacity:0.4;"><g transform="translate(162.383393, 166.733855)"><path style="stroke:none" d="M 10.671875 -2.921875 L 10.671875 -9.609375 C 10.671875 -10.097656 10.582031 -10.425781 10.40625 -10.59375 C 10.226562 -10.757812 9.910156 -10.847656 9.453125 -10.859375 L 9.046875 -10.859375 L 9.046875 -11.15625 L 13.15625 -11.15625 L 13.15625 -10.859375 L 12.8125 -10.859375 C 12.375 -10.859375 12.0625 -10.832031 11.875 -10.78125 C 11.695312 -10.726562 11.570312 -10.597656 11.5 -10.390625 C 11.425781 -10.191406 11.390625 -9.867188 11.390625 -9.421875 L 11.390625 0.125 L 11.171875 0.125 L 3.203125 -8.84375 L 3.203125 -1.890625 C 3.203125 -1.273438 3.320312 -0.851562 3.5625 -0.625 C 3.800781 -0.40625 4.222656 -0.296875 4.828125 -0.296875 L 4.828125 0 L 0.796875 0 L 0.796875 -0.296875 L 0.890625 -0.296875 C 1.410156 -0.296875 1.804688 -0.390625 2.078125 -0.578125 C 2.347656 -0.765625 2.484375 -1.113281 2.484375 -1.625 L 2.484375 -9.5625 C 2.203125 -10.039062 1.878906 -10.375 1.515625 -10.5625 C 1.160156 -10.757812 0.726562 -10.859375 0.21875 -10.859375 L 0.21875 -11.15625 L 3.453125 -11.15625 Z M 10.671875 -2.921875 "/></g></g><g style="fill:#facc15;fill-opacity:0.4;"><g transform="translate(175.744993, 166.733855)"><path style="stroke:none" d="M 9.5625 -8.6875 L 9.28125 -8.6875 C 9.175781 -9.300781 8.976562 -9.753906 8.6875 -10.046875 C 8.394531 -10.347656 7.988281 -10.5 7.46875 -10.5 L 3.9375 -10.5 L 3.9375 -6.203125 L 6.828125 -6.203125 C 7.347656 -6.203125 7.71875 -6.332031 7.9375 -6.59375 C 8.15625 -6.851562 8.269531 -7.265625 8.28125 -7.828125 L 8.578125 -7.828125 L 8.578125 -3.890625 L 8.28125 -3.890625 C 8.28125 -4.453125 8.171875 -4.867188 7.953125 -5.140625 C 7.734375 -5.410156 7.347656 -5.546875 6.796875 -5.546875 L 3.9375 -5.546875 L 3.9375 -1.484375 C 3.9375 -0.929688 4.15625 -0.65625 4.59375 -0.65625 L 7.453125 -0.65625 C 8.046875 -0.65625 8.566406 -0.832031 9.015625 -1.1875 C 9.472656 -1.550781 9.84375 -2.082031 10.125 -2.78125 L 10.46875 -2.78125 L 9.5625 0 L 0.578125 0 L 0.578125 -0.296875 C 1.140625 -0.296875 1.546875 -0.390625 1.796875 -0.578125 C 2.054688 -0.765625 2.1875 -1.117188 2.1875 -1.640625 L 2.1875 -9.625 C 2.1875 -10.0625 2.054688 -10.375 1.796875 -10.5625 C 1.546875 -10.757812 1.140625 -10.859375 0.578125 -10.859375 L 0.578125 -11.15625 L 9.4375 -11.15625 Z M 9.5625 -8.6875 "/></g></g><g style="fill:#facc15;fill-opacity:0.4;"><g transform="translate(186.573902, 166.733855)"><path style="stroke:none" d="M 4.390625 -10.859375 C 3.722656 -10.835938 3.390625 -10.597656 3.390625 -10.140625 C 3.390625 -9.992188 3.414062 -9.832031 3.46875 -9.65625 C 3.53125 -9.488281 3.65625 -9.132812 3.84375 -8.59375 L 5.875 -2.9375 L 5.90625 -2.9375 L 7.6875 -7.90625 L 7.0625 -9.5625 C 6.925781 -9.894531 6.804688 -10.144531 6.703125 -10.3125 C 6.609375 -10.476562 6.472656 -10.601562 6.296875 -10.6875 C 6.128906 -10.78125 5.882812 -10.835938 5.5625 -10.859375 L 5.5625 -11.15625 L 10 -11.15625 L 10 -10.859375 C 9.664062 -10.828125 9.394531 -10.753906 9.1875 -10.640625 C 8.988281 -10.523438 8.890625 -10.332031 8.890625 -10.0625 C 8.890625 -9.726562 8.988281 -9.320312 9.1875 -8.84375 L 11.46875 -2.9375 L 13.609375 -8.984375 C 13.722656 -9.304688 13.796875 -9.535156 13.828125 -9.671875 C 13.859375 -9.804688 13.875 -9.953125 13.875 -10.109375 C 13.875 -10.597656 13.488281 -10.847656 12.71875 -10.859375 L 12.71875 -11.15625 L 15.9375 -11.15625 L 15.9375 -10.859375 C 15.570312 -10.847656 15.273438 -10.695312 15.046875 -10.40625 C 14.816406 -10.113281 14.5625 -9.566406 14.28125 -8.765625 L 11.109375 0.234375 L 10.796875 0.234375 L 8.078125 -6.90625 L 5.484375 0.234375 L 5.234375 0.234375 L 1.703125 -9.328125 C 1.523438 -9.796875 1.367188 -10.132812 1.234375 -10.34375 C 1.097656 -10.550781 0.953125 -10.679688 0.796875 -10.734375 C 0.648438 -10.796875 0.421875 -10.835938 0.109375 -10.859375 L 0.109375 -11.15625 L 4.390625 -11.15625 Z M 4.390625 -10.859375 "/></g></g><g style="fill:#facc15;fill-opacity:0.4;"><g transform="translate(202.646786, 166.733855)"><path style="stroke:none" d=""/></g></g><g style="fill:#facc15;fill-opacity:0.4;"><g transform="translate(206.705598, 166.733855)"><path style="stroke:none" d="M 5.5625 -10.859375 L 5.46875 -10.859375 C 4.925781 -10.859375 4.53125 -10.757812 4.28125 -10.5625 C 4.039062 -10.375 3.921875 -10.023438 3.921875 -9.515625 L 3.921875 -6.203125 L 9.421875 -6.203125 L 9.421875 -9.53125 C 9.421875 -10.039062 9.296875 -10.390625 9.046875 -10.578125 C 8.796875 -10.765625 8.398438 -10.859375 7.859375 -10.859375 L 7.765625 -10.859375 L 7.765625 -11.15625 L 12.796875 -11.15625 L 12.796875 -10.859375 C 12.222656 -10.859375 11.804688 -10.765625 11.546875 -10.578125 C 11.296875 -10.398438 11.171875 -10.039062 11.171875 -9.5 L 11.171875 -1.625 C 11.171875 -1.09375 11.296875 -0.738281 11.546875 -0.5625 C 11.804688 -0.382812 12.222656 -0.296875 12.796875 -0.296875 L 12.796875 0 L 7.765625 0 L 7.765625 -0.296875 C 8.359375 -0.296875 8.78125 -0.382812 9.03125 -0.5625 C 9.289062 -0.738281 9.421875 -1.097656 9.421875 -1.640625 L 9.421875 -5.546875 L 3.921875 -5.546875 L 3.921875 -1.640625 C 3.921875 -1.097656 4.046875 -0.738281 4.296875 -0.5625 C 4.554688 -0.382812 4.976562 -0.296875 5.5625 -0.296875 L 5.5625 0 L 0.5625 0 L 0.5625 -0.296875 C 1.132812 -0.304688 1.546875 -0.398438 1.796875 -0.578125 C 2.046875 -0.765625 2.171875 -1.117188 2.171875 -1.640625 L 2.171875 -9.53125 C 2.171875 -10.03125 2.046875 -10.375 1.796875 -10.5625 C 1.546875 -10.757812 1.164062 -10.859375 0.65625 -10.859375 L 0.5625 -10.859375 L 0.5625 -11.15625 L 5.5625 -11.15625 Z M 5.5625 -10.859375 "/></g></g><g style="fill:#facc15;fill-opacity:0.4;"><g transform="translate(220.067198, 166.733855)"><path style="stroke:none" d="M 9.5625 -8.6875 L 9.28125 -8.6875 C 9.175781 -9.300781 8.976562 -9.753906 8.6875 -10.046875 C 8.394531 -10.347656 7.988281 -10.5 7.46875 -10.5 L 3.9375 -10.5 L 3.9375 -6.203125 L 6.828125 -6.203125 C 7.347656 -6.203125 7.71875 -6.332031 7.9375 -6.59375 C 8.15625 -6.851562 8.269531 -7.265625 8.28125 -7.828125 L 8.578125 -7.828125 L 8.578125 -3.890625 L 8.28125 -3.890625 C 8.28125 -4.453125 8.171875 -4.867188 7.953125 -5.140625 C 7.734375 -5.410156 7.347656 -5.546875 6.796875 -5.546875 L 3.9375 -5.546875 L 3.9375 -1.484375 C 3.9375 -0.929688 4.15625 -0.65625 4.59375 -0.65625 L 7.453125 -0.65625 C 8.046875 -0.65625 8.566406 -0.832031 9.015625 -1.1875 C 9.472656 -1.550781 9.84375 -2.082031 10.125 -2.78125 L 10.46875 -2.78125 L 9.5625 0 L 0.578125 0 L 0.578125 -0.296875 C 1.140625 -0.296875 1.546875 -0.390625 1.796875 -0.578125 C 2.054688 -0.765625 2.1875 -1.117188 2.1875 -1.640625 L 2.1875 -9.625 C 2.1875 -10.0625 2.054688 -10.375 1.796875 -10.5625 C 1.546875 -10.757812 1.140625 -10.859375 0.578125 -10.859375 L 0.578125 -11.15625 L 9.4375 -11.15625 Z M 9.5625 -8.6875 "/></g></g><g style="fill:#facc15;fill-opacity:0.4;"><g transform="translate(230.896107, 166.733855)"><path style="stroke:none" d="M 5.703125 -10.859375 C 5.242188 -10.859375 4.894531 -10.816406 4.65625 -10.734375 C 4.414062 -10.660156 4.25 -10.515625 4.15625 -10.296875 C 4.0625 -10.085938 4.015625 -9.785156 4.015625 -9.390625 L 4.015625 -1.625 C 4.015625 -1.257812 4.070312 -0.976562 4.1875 -0.78125 C 4.300781 -0.59375 4.476562 -0.46875 4.71875 -0.40625 C 4.957031 -0.34375 5.285156 -0.304688 5.703125 -0.296875 L 5.703125 0 L 0.5625 0 L 0.5625 -0.296875 C 1 -0.304688 1.332031 -0.34375 1.5625 -0.40625 C 1.800781 -0.46875 1.972656 -0.59375 2.078125 -0.78125 C 2.191406 -0.976562 2.25 -1.265625 2.25 -1.640625 L 2.25 -9.390625 C 2.25 -9.785156 2.195312 -10.082031 2.09375 -10.28125 C 2 -10.488281 1.832031 -10.632812 1.59375 -10.71875 C 1.363281 -10.800781 1.019531 -10.847656 0.5625 -10.859375 L 0.5625 -11.15625 L 5.703125 -11.15625 Z M 5.703125 -10.859375 "/></g></g><g style="fill:#facc15;fill-opacity:0.4;"><g transform="translate(237.146685, 166.733855)"><path style="stroke:none" d="M 7.109375 -11.390625 C 7.691406 -11.390625 8.203125 -11.335938 8.640625 -11.234375 C 9.078125 -11.128906 9.519531 -10.988281 9.96875 -10.8125 C 10.28125 -10.695312 10.46875 -10.640625 10.53125 -10.640625 C 10.664062 -10.640625 10.78125 -10.703125 10.875 -10.828125 C 10.96875 -10.953125 11.03125 -11.140625 11.0625 -11.390625 L 11.359375 -11.390625 L 11.65625 -7.84375 L 11.359375 -7.84375 C 11.210938 -8.457031 10.921875 -8.984375 10.484375 -9.421875 C 10.054688 -9.867188 9.554688 -10.207031 8.984375 -10.4375 C 8.410156 -10.664062 7.820312 -10.78125 7.21875 -10.78125 C 6.40625 -10.78125 5.660156 -10.578125 4.984375 -10.171875 C 4.304688 -9.765625 3.757812 -9.164062 3.34375 -8.375 C 2.9375 -7.59375 2.734375 -6.65625 2.734375 -5.5625 C 2.734375 -4.5625 2.945312 -3.664062 3.375 -2.875 C 3.800781 -2.082031 4.378906 -1.46875 5.109375 -1.03125 C 5.835938 -0.59375 6.628906 -0.375 7.484375 -0.375 C 7.941406 -0.375 8.363281 -0.4375 8.75 -0.5625 C 9.132812 -0.6875 9.546875 -0.894531 9.984375 -1.1875 L 9.984375 -4.40625 C 9.984375 -4.875 9.859375 -5.203125 9.609375 -5.390625 C 9.359375 -5.585938 8.960938 -5.691406 8.421875 -5.703125 L 8.421875 -5.984375 L 13.21875 -5.984375 L 13.21875 -5.703125 C 12.8125 -5.671875 12.507812 -5.609375 12.3125 -5.515625 C 12.113281 -5.429688 11.96875 -5.28125 11.875 -5.0625 C 11.78125 -4.84375 11.734375 -4.519531 11.734375 -4.09375 L 11.734375 -0.921875 C 10.941406 -0.492188 10.238281 -0.191406 9.625 -0.015625 C 9.007812 0.160156 8.253906 0.25 7.359375 0.25 C 5.953125 0.25 4.742188 -0.0195312 3.734375 -0.5625 C 2.722656 -1.101562 1.960938 -1.789062 1.453125 -2.625 C 0.953125 -3.46875 0.703125 -4.335938 0.703125 -5.234375 C 0.703125 -6.359375 0.984375 -7.390625 1.546875 -8.328125 C 2.117188 -9.265625 2.894531 -10.007812 3.875 -10.5625 C 4.851562 -11.113281 5.929688 -11.390625 7.109375 -11.390625 Z M 7.109375 -11.390625 "/></g></g><g style="fill:#facc15;fill-opacity:0.4;"><g transform="translate(250.508284, 166.733855)"><path style="stroke:none" d="M 5.5625 -10.859375 L 5.46875 -10.859375 C 4.925781 -10.859375 4.53125 -10.757812 4.28125 -10.5625 C 4.039062 -10.375 3.921875 -10.023438 3.921875 -9.515625 L 3.921875 -6.203125 L 9.421875 -6.203125 L 9.421875 -9.53125 C 9.421875 -10.039062 9.296875 -10.390625 9.046875 -10.578125 C 8.796875 -10.765625 8.398438 -10.859375 7.859375 -10.859375 L 7.765625 -10.859375 L 7.765625 -11.15625 L 12.796875 -11.15625 L 12.796875 -10.859375 C 12.222656 -10.859375 11.804688 -10.765625 11.546875 -10.578125 C 11.296875 -10.398438 11.171875 -10.039062 11.171875 -9.5 L 11.171875 -1.625 C 11.171875 -1.09375 11.296875 -0.738281 11.546875 -0.5625 C 11.804688 -0.382812 12.222656 -0.296875 12.796875 -0.296875 L 12.796875 0 L 7.765625 0 L 7.765625 -0.296875 C 8.359375 -0.296875 8.78125 -0.382812 9.03125 -0.5625 C 9.289062 -0.738281 9.421875 -1.097656 9.421875 -1.640625 L 9.421875 -5.546875 L 3.921875 -5.546875 L 3.921875 -1.640625 C 3.921875 -1.097656 4.046875 -0.738281 4.296875 -0.5625 C 4.554688 -0.382812 4.976562 -0.296875 5.5625 -0.296875 L 5.5625 0 L 0.5625 0 L 0.5625 -0.296875 C 1.132812 -0.304688 1.546875 -0.398438 1.796875 -0.578125 C 2.046875 -0.765625 2.171875 -1.117188 2.171875 -1.640625 L 2.171875 -9.53125 C 2.171875 -10.03125 2.046875 -10.375 1.796875 -10.5625 C 1.546875 -10.757812 1.164062 -10.859375 0.65625 -10.859375 L 0.5625 -10.859375 L 0.5625 -11.15625 L 5.5625 -11.15625 Z M 5.5625 -10.859375 "/></g></g><g style="fill:#facc15;fill-opacity:0.4;"><g transform="translate(263.869884, 166.733855)"><path style="stroke:none" d="M 10.421875 -8.625 L 10.109375 -8.625 C 9.960938 -9.832031 9.3125 -10.4375 8.15625 -10.4375 L 6.28125 -10.4375 L 6.28125 -1.53125 C 6.28125 -1.039062 6.421875 -0.710938 6.703125 -0.546875 C 6.984375 -0.378906 7.382812 -0.296875 7.90625 -0.296875 L 7.90625 0 L 2.90625 0 L 2.90625 -0.296875 C 3.476562 -0.296875 3.890625 -0.390625 4.140625 -0.578125 C 4.398438 -0.773438 4.53125 -1.128906 4.53125 -1.640625 L 4.53125 -10.4375 L 2.546875 -10.4375 C 2.035156 -10.4375 1.609375 -10.285156 1.265625 -9.984375 C 0.929688 -9.691406 0.742188 -9.238281 0.703125 -8.625 L 0.40625 -8.625 L 0.484375 -11.15625 L 10.34375 -11.15625 Z M 10.421875 -8.625 "/></g></g><g style="fill:#facc15;fill-opacity:0.4;"><g transform="translate(274.698793, 166.733855)"><path style="stroke:none" d="M 4.09375 -11.390625 C 4.457031 -11.390625 4.773438 -11.351562 5.046875 -11.28125 C 5.316406 -11.21875 5.59375 -11.125 5.875 -11 C 6.019531 -10.945312 6.160156 -10.898438 6.296875 -10.859375 C 6.429688 -10.816406 6.550781 -10.796875 6.65625 -10.796875 C 6.914062 -10.796875 7.117188 -10.992188 7.265625 -11.390625 L 7.578125 -11.390625 L 7.578125 -7.6875 L 7.265625 -7.6875 C 7.210938 -8.269531 7.039062 -8.796875 6.75 -9.265625 C 6.46875 -9.734375 6.113281 -10.101562 5.6875 -10.375 C 5.257812 -10.644531 4.800781 -10.78125 4.3125 -10.78125 C 3.78125 -10.78125 3.328125 -10.617188 2.953125 -10.296875 C 2.578125 -9.984375 2.390625 -9.597656 2.390625 -9.140625 C 2.390625 -8.609375 2.648438 -8.148438 3.171875 -7.765625 C 3.535156 -7.492188 4.046875 -7.164062 4.703125 -6.78125 C 5.285156 -6.425781 5.769531 -6.117188 6.15625 -5.859375 C 6.550781 -5.597656 6.914062 -5.316406 7.25 -5.015625 C 7.5625 -4.722656 7.804688 -4.382812 7.984375 -4 C 8.160156 -3.625 8.25 -3.238281 8.25 -2.84375 C 8.25 -2.289062 8.097656 -1.773438 7.796875 -1.296875 C 7.492188 -0.816406 7.078125 -0.4375 6.546875 -0.15625 C 6.023438 0.113281 5.453125 0.25 4.828125 0.25 C 4.421875 0.25 4.0625 0.210938 3.75 0.140625 C 3.445312 0.0664062 3.128906 -0.0234375 2.796875 -0.140625 C 2.421875 -0.273438 2.144531 -0.34375 1.96875 -0.34375 C 1.675781 -0.34375 1.453125 -0.144531 1.296875 0.25 L 1 0.25 L 1 -3.5 L 1.296875 -3.5 C 1.484375 -2.539062 1.847656 -1.78125 2.390625 -1.21875 C 2.941406 -0.65625 3.648438 -0.375 4.515625 -0.375 C 5.128906 -0.375 5.632812 -0.539062 6.03125 -0.875 C 6.4375 -1.207031 6.640625 -1.628906 6.640625 -2.140625 C 6.640625 -2.398438 6.585938 -2.640625 6.484375 -2.859375 C 6.390625 -3.078125 6.226562 -3.3125 6 -3.5625 C 5.800781 -3.769531 5.507812 -4 5.125 -4.25 C 4.75 -4.507812 4.25 -4.832031 3.625 -5.21875 C 3.09375 -5.539062 2.6875 -5.796875 2.40625 -5.984375 C 2.125 -6.171875 1.910156 -6.335938 1.765625 -6.484375 C 1.210938 -7.046875 0.9375 -7.71875 0.9375 -8.5 C 0.9375 -9.039062 1.070312 -9.53125 1.34375 -9.96875 C 1.625 -10.414062 2.003906 -10.765625 2.484375 -11.015625 C 2.960938 -11.265625 3.5 -11.390625 4.09375 -11.390625 Z M 4.09375 -11.390625 "/></g></g><g style="fill:#facc15;fill-opacity:0.4;"><g transform="translate(283.660655, 166.733855)"><path style="stroke:none" d=""/></g></g><g style="fill:#facc15;fill-opacity:0.4;"><g transform="translate(287.719467, 166.733855)"><path style="stroke:none" d="M 4.09375 -11.390625 C 4.457031 -11.390625 4.773438 -11.351562 5.046875 -11.28125 C 5.316406 -11.21875 5.59375 -11.125 5.875 -11 C 6.019531 -10.945312 6.160156 -10.898438 6.296875 -10.859375 C 6.429688 -10.816406 6.550781 -10.796875 6.65625 -10.796875 C 6.914062 -10.796875 7.117188 -10.992188 7.265625 -11.390625 L 7.578125 -11.390625 L 7.578125 -7.6875 L 7.265625 -7.6875 C 7.210938 -8.269531 7.039062 -8.796875 6.75 -9.265625 C 6.46875 -9.734375 6.113281 -10.101562 5.6875 -10.375 C 5.257812 -10.644531 4.800781 -10.78125 4.3125 -10.78125 C 3.78125 -10.78125 3.328125 -10.617188 2.953125 -10.296875 C 2.578125 -9.984375 2.390625 -9.597656 2.390625 -9.140625 C 2.390625 -8.609375 2.648438 -8.148438 3.171875 -7.765625 C 3.535156 -7.492188 4.046875 -7.164062 4.703125 -6.78125 C 5.285156 -6.425781 5.769531 -6.117188 6.15625 -5.859375 C 6.550781 -5.597656 6.914062 -5.316406 7.25 -5.015625 C 7.5625 -4.722656 7.804688 -4.382812 7.984375 -4 C 8.160156 -3.625 8.25 -3.238281 8.25 -2.84375 C 8.25 -2.289062 8.097656 -1.773438 7.796875 -1.296875 C 7.492188 -0.816406 7.078125 -0.4375 6.546875 -0.15625 C 6.023438 0.113281 5.453125 0.25 4.828125 0.25 C 4.421875 0.25 4.0625 0.210938 3.75 0.140625 C 3.445312 0.0664062 3.128906 -0.0234375 2.796875 -0.140625 C 2.421875 -0.273438 2.144531 -0.34375 1.96875 -0.34375 C 1.675781 -0.34375 1.453125 -0.144531 1.296875 0.25 L 1 0.25 L 1 -3.5 L 1.296875 -3.5 C 1.484375 -2.539062 1.847656 -1.78125 2.390625 -1.21875 C 2.941406 -0.65625 3.648438 -0.375 4.515625 -0.375 C 5.128906 -0.375 5.632812 -0.539062 6.03125 -0.875 C 6.4375 -1.207031 6.640625 -1.628906 6.640625 -2.140625 C 6.640625 -2.398438 6.585938 -2.640625 6.484375 -2.859375 C 6.390625 -3.078125 6.226562 -3.3125 6 -3.5625 C 5.800781 -3.769531 5.507812 -4 5.125 -4.25 C 4.75 -4.507812 4.25 -4.832031 3.625 -5.21875 C 3.09375 -5.539062 2.6875 -5.796875 2.40625 -5.984375 C 2.125 -6.171875 1.910156 -6.335938 1.765625 -6.484375 C 1.210938 -7.046875 0.9375 -7.71875 0.9375 -8.5 C 0.9375 -9.039062 1.070312 -9.53125 1.34375 -9.96875 C 1.625 -10.414062 2.003906 -10.765625 2.484375 -11.015625 C 2.960938 -11.265625 3.5 -11.390625 4.09375 -11.390625 Z M 4.09375 -11.390625 "/></g></g><g style="fill:#facc15;fill-opacity:0.4;"><g transform="translate(296.681328, 166.733855)"><path style="stroke:none" d="M 5.703125 -10.859375 C 5.242188 -10.859375 4.894531 -10.816406 4.65625 -10.734375 C 4.414062 -10.660156 4.25 -10.515625 4.15625 -10.296875 C 4.0625 -10.085938 4.015625 -9.785156 4.015625 -9.390625 L 4.015625 -1.625 C 4.015625 -1.257812 4.070312 -0.976562 4.1875 -0.78125 C 4.300781 -0.59375 4.476562 -0.46875 4.71875 -0.40625 C 4.957031 -0.34375 5.285156 -0.304688 5.703125 -0.296875 L 5.703125 0 L 0.5625 0 L 0.5625 -0.296875 C 1 -0.304688 1.332031 -0.34375 1.5625 -0.40625 C 1.800781 -0.46875 1.972656 -0.59375 2.078125 -0.78125 C 2.191406 -0.976562 2.25 -1.265625 2.25 -1.640625 L 2.25 -9.390625 C 2.25 -9.785156 2.195312 -10.082031 2.09375 -10.28125 C 2 -10.488281 1.832031 -10.632812 1.59375 -10.71875 C 1.363281 -10.800781 1.019531 -10.847656 0.5625 -10.859375 L 0.5625 -11.15625 L 5.703125 -11.15625 Z M 5.703125 -10.859375 "/></g></g><g style="fill:#facc15;fill-opacity:0.4;"><g transform="translate(302.931905, 166.733855)"><path style="stroke:none" d="M 10.671875 -2.921875 L 10.671875 -9.609375 C 10.671875 -10.097656 10.582031 -10.425781 10.40625 -10.59375 C 10.226562 -10.757812 9.910156 -10.847656 9.453125 -10.859375 L 9.046875 -10.859375 L 9.046875 -11.15625 L 13.15625 -11.15625 L 13.15625 -10.859375 L 12.8125 -10.859375 C 12.375 -10.859375 12.0625 -10.832031 11.875 -10.78125 C 11.695312 -10.726562 11.570312 -10.597656 11.5 -10.390625 C 11.425781 -10.191406 11.390625 -9.867188 11.390625 -9.421875 L 11.390625 0.125 L 11.171875 0.125 L 3.203125 -8.84375 L 3.203125 -1.890625 C 3.203125 -1.273438 3.320312 -0.851562 3.5625 -0.625 C 3.800781 -0.40625 4.222656 -0.296875 4.828125 -0.296875 L 4.828125 0 L 0.796875 0 L 0.796875 -0.296875 L 0.890625 -0.296875 C 1.410156 -0.296875 1.804688 -0.390625 2.078125 -0.578125 C 2.347656 -0.765625 2.484375 -1.113281 2.484375 -1.625 L 2.484375 -9.5625 C 2.203125 -10.039062 1.878906 -10.375 1.515625 -10.5625 C 1.160156 -10.757812 0.726562 -10.859375 0.21875 -10.859375 L 0.21875 -11.15625 L 3.453125 -11.15625 Z M 10.671875 -2.921875 "/></g></g><g style="fill:#facc15;fill-opacity:0.4;"><g transform="translate(316.293505, 166.733855)"><path style="stroke:none" d="M 6.765625 -11.390625 C 7.304688 -11.390625 7.773438 -11.335938 8.171875 -11.234375 C 8.566406 -11.140625 8.945312 -11.007812 9.3125 -10.84375 C 9.613281 -10.726562 9.8125 -10.671875 9.90625 -10.671875 C 10.03125 -10.671875 10.148438 -10.738281 10.265625 -10.875 C 10.390625 -11.007812 10.472656 -11.179688 10.515625 -11.390625 L 10.796875 -11.390625 L 11.078125 -7.625 L 10.796875 -7.625 C 10.703125 -8.289062 10.460938 -8.859375 10.078125 -9.328125 C 9.691406 -9.804688 9.21875 -10.164062 8.65625 -10.40625 C 8.101562 -10.65625 7.519531 -10.78125 6.90625 -10.78125 C 5.632812 -10.78125 4.617188 -10.328125 3.859375 -9.421875 C 3.097656 -8.515625 2.71875 -7.148438 2.71875 -5.328125 C 2.71875 -4.242188 2.925781 -3.335938 3.34375 -2.609375 C 3.757812 -1.878906 4.300781 -1.335938 4.96875 -0.984375 C 5.644531 -0.628906 6.367188 -0.453125 7.140625 -0.453125 C 7.929688 -0.453125 8.679688 -0.648438 9.390625 -1.046875 C 10.109375 -1.453125 10.671875 -1.988281 11.078125 -2.65625 L 11.3125 -2.5 C 10.238281 -0.664062 8.660156 0.25 6.578125 0.25 C 5.492188 0.25 4.5 0 3.59375 -0.5 C 2.695312 -1.007812 1.988281 -1.695312 1.46875 -2.5625 C 0.945312 -3.425781 0.6875 -4.378906 0.6875 -5.421875 C 0.6875 -6.515625 0.957031 -7.519531 1.5 -8.4375 C 2.039062 -9.351562 2.773438 -10.070312 3.703125 -10.59375 C 4.628906 -11.125 5.648438 -11.390625 6.765625 -11.390625 Z M 6.765625 -11.390625 "/></g></g><g style="fill:#facc15;fill-opacity:0.4;"><g transform="translate(327.96665, 166.733855)"><path style="stroke:none" d="M 9.5625 -8.6875 L 9.28125 -8.6875 C 9.175781 -9.300781 8.976562 -9.753906 8.6875 -10.046875 C 8.394531 -10.347656 7.988281 -10.5 7.46875 -10.5 L 3.9375 -10.5 L 3.9375 -6.203125 L 6.828125 -6.203125 C 7.347656 -6.203125 7.71875 -6.332031 7.9375 -6.59375 C 8.15625 -6.851562 8.269531 -7.265625 8.28125 -7.828125 L 8.578125 -7.828125 L 8.578125 -3.890625 L 8.28125 -3.890625 C 8.28125 -4.453125 8.171875 -4.867188 7.953125 -5.140625 C 7.734375 -5.410156 7.347656 -5.546875 6.796875 -5.546875 L 3.9375 -5.546875 L 3.9375 -1.484375 C 3.9375 -0.929688 4.15625 -0.65625 4.59375 -0.65625 L 7.453125 -0.65625 C 8.046875 -0.65625 8.566406 -0.832031 9.015625 -1.1875 C 9.472656 -1.550781 9.84375 -2.082031 10.125 -2.78125 L 10.46875 -2.78125 L 9.5625 0 L 0.578125 0 L 0.578125 -0.296875 C 1.140625 -0.296875 1.546875 -0.390625 1.796875 -0.578125 C 2.054688 -0.765625 2.1875 -1.117188 2.1875 -1.640625 L 2.1875 -9.625 C 2.1875 -10.0625 2.054688 -10.375 1.796875 -10.5625 C 1.546875 -10.757812 1.140625 -10.859375 0.578125 -10.859375 L 0.578125 -11.15625 L 9.4375 -11.15625 Z M 9.5625 -8.6875 "/></g></g><g style="fill:#facc15;fill-opacity:0.4;"><g transform="translate(338.795559, 166.733855)"><path style="stroke:none" d=""/></g></g><g style="fill:#facc15;fill-opacity:0.4;"><g transform="translate(342.854372, 166.733855)"><path style="stroke:none" d="M 4.8125 -11.390625 L 4.8125 -1.5625 C 4.8125 -1.195312 4.859375 -0.921875 4.953125 -0.734375 C 5.054688 -0.554688 5.203125 -0.4375 5.390625 -0.375 C 5.585938 -0.320312 5.851562 -0.296875 6.1875 -0.296875 L 6.1875 0 L 2.03125 0 L 2.03125 -0.296875 C 2.5625 -0.296875 2.925781 -0.382812 3.125 -0.5625 C 3.320312 -0.738281 3.421875 -1.066406 3.421875 -1.546875 L 3.421875 -8.921875 C 3.421875 -9.691406 3.222656 -10.078125 2.828125 -10.078125 C 2.628906 -10.078125 2.363281 -9.992188 2.03125 -9.828125 L 1.859375 -10.078125 L 4.5 -11.390625 Z M 4.8125 -11.390625 "/></g></g><g style="fill:#facc15;fill-opacity:0.4;"><g transform="translate(350.971997, 166.733855)"><path style="stroke:none" d="M 3.90625 -11.390625 C 4.570312 -11.390625 5.171875 -11.1875 5.703125 -10.78125 C 6.234375 -10.375 6.648438 -9.8125 6.953125 -9.09375 C 7.265625 -8.382812 7.421875 -7.597656 7.421875 -6.734375 C 7.421875 -5.804688 7.25 -4.921875 6.90625 -4.078125 C 6.570312 -3.242188 6.109375 -2.5 5.515625 -1.84375 C 4.929688 -1.207031 4.273438 -0.707031 3.546875 -0.34375 C 2.828125 0.0078125 2.097656 0.1875 1.359375 0.1875 L 0.828125 0.1875 L 0.828125 -0.125 C 1.515625 -0.132812 2.1875 -0.34375 2.84375 -0.75 C 3.507812 -1.15625 4.09375 -1.726562 4.59375 -2.46875 C 5.101562 -3.21875 5.46875 -4.070312 5.6875 -5.03125 C 5.289062 -4.75 4.910156 -4.535156 4.546875 -4.390625 C 4.191406 -4.253906 3.800781 -4.1875 3.375 -4.1875 C 2.84375 -4.1875 2.363281 -4.320312 1.9375 -4.59375 C 1.519531 -4.875 1.191406 -5.257812 0.953125 -5.75 C 0.710938 -6.25 0.59375 -6.800781 0.59375 -7.40625 C 0.59375 -8.125 0.742188 -8.789062 1.046875 -9.40625 C 1.347656 -10.019531 1.75 -10.503906 2.25 -10.859375 C 2.75 -11.210938 3.300781 -11.390625 3.90625 -11.390625 Z M 1.984375 -8.328125 C 1.984375 -7.453125 2.140625 -6.660156 2.453125 -5.953125 C 2.765625 -5.253906 3.300781 -4.90625 4.0625 -4.90625 C 4.363281 -4.90625 4.640625 -4.953125 4.890625 -5.046875 C 5.140625 -5.140625 5.4375 -5.304688 5.78125 -5.546875 C 5.863281 -6.023438 5.90625 -6.472656 5.90625 -6.890625 C 5.90625 -7.410156 5.835938 -7.976562 5.703125 -8.59375 C 5.566406 -9.21875 5.335938 -9.753906 5.015625 -10.203125 C 4.691406 -10.660156 4.265625 -10.890625 3.734375 -10.890625 C 3.203125 -10.890625 2.773438 -10.65625 2.453125 -10.1875 C 2.140625 -9.71875 1.984375 -9.097656 1.984375 -8.328125 Z M 1.984375 -8.328125 "/></g></g><g style="fill:#facc15;fill-opacity:0.4;"><g transform="translate(359.089622, 166.733855)"><path style="stroke:none" d="M 3.90625 -11.390625 C 4.570312 -11.390625 5.171875 -11.1875 5.703125 -10.78125 C 6.234375 -10.375 6.648438 -9.8125 6.953125 -9.09375 C 7.265625 -8.382812 7.421875 -7.597656 7.421875 -6.734375 C 7.421875 -5.804688 7.25 -4.921875 6.90625 -4.078125 C 6.570312 -3.242188 6.109375 -2.5 5.515625 -1.84375 C 4.929688 -1.207031 4.273438 -0.707031 3.546875 -0.34375 C 2.828125 0.0078125 2.097656 0.1875 1.359375 0.1875 L 0.828125 0.1875 L 0.828125 -0.125 C 1.515625 -0.132812 2.1875 -0.34375 2.84375 -0.75 C 3.507812 -1.15625 4.09375 -1.726562 4.59375 -2.46875 C 5.101562 -3.21875 5.46875 -4.070312 5.6875 -5.03125 C 5.289062 -4.75 4.910156 -4.535156 4.546875 -4.390625 C 4.191406 -4.253906 3.800781 -4.1875 3.375 -4.1875 C 2.84375 -4.1875 2.363281 -4.320312 1.9375 -4.59375 C 1.519531 -4.875 1.191406 -5.257812 0.953125 -5.75 C 0.710938 -6.25 0.59375 -6.800781 0.59375 -7.40625 C 0.59375 -8.125 0.742188 -8.789062 1.046875 -9.40625 C 1.347656 -10.019531 1.75 -10.503906 2.25 -10.859375 C 2.75 -11.210938 3.300781 -11.390625 3.90625 -11.390625 Z M 1.984375 -8.328125 C 1.984375 -7.453125 2.140625 -6.660156 2.453125 -5.953125 C 2.765625 -5.253906 3.300781 -4.90625 4.0625 -4.90625 C 4.363281 -4.90625 4.640625 -4.953125 4.890625 -5.046875 C 5.140625 -5.140625 5.4375 -5.304688 5.78125 -5.546875 C 5.863281 -6.023438 5.90625 -6.472656 5.90625 -6.890625 C 5.90625 -7.410156 5.835938 -7.976562 5.703125 -8.59375 C 5.566406 -9.21875 5.335938 -9.753906 5.015625 -10.203125 C 4.691406 -10.660156 4.265625 -10.890625 3.734375 -10.890625 C 3.203125 -10.890625 2.773438 -10.65625 2.453125 -10.1875 C 2.140625 -9.71875 1.984375 -9.097656 1.984375 -8.328125 Z M 1.984375 -8.328125 "/></g></g><g style="fill:#facc15;fill-opacity:0.4;"><g transform="translate(367.207248, 166.733855)"><path style="stroke:none" d="M 6.203125 -11.328125 L 6.203125 -4.015625 L 7.71875 -4.015625 L 7.71875 -2.8125 L 6.203125 -2.8125 L 6.203125 0 L 4.828125 0 L 4.828125 -2.8125 L 0.265625 -2.8125 L 0.265625 -4.078125 L 5.34375 -11.328125 Z M 0.9375 -4.015625 L 4.828125 -4.015625 L 4.828125 -9.546875 L 4.796875 -9.546875 Z M 0.9375 -4.015625 "/></g></g><g style="fill:#facc15;fill-opacity:1;"><g transform="translate(80.651497, 166.015845)"><path style="stroke:none" d="M 4.09375 -11.390625 C 4.457031 -11.390625 4.773438 -11.351562 5.046875 -11.28125 C 5.316406 -11.21875 5.59375 -11.125 5.875 -11 C 6.019531 -10.945312 6.160156 -10.898438 6.296875 -10.859375 C 6.429688 -10.816406 6.550781 -10.796875 6.65625 -10.796875 C 6.914062 -10.796875 7.117188 -10.992188 7.265625 -11.390625 L 7.578125 -11.390625 L 7.578125 -7.6875 L 7.265625 -7.6875 C 7.210938 -8.269531 7.039062 -8.796875 6.75 -9.265625 C 6.46875 -9.734375 6.113281 -10.101562 5.6875 -10.375 C 5.257812 -10.644531 4.800781 -10.78125 4.3125 -10.78125 C 3.78125 -10.78125 3.328125 -10.617188 2.953125 -10.296875 C 2.578125 -9.984375 2.390625 -9.597656 2.390625 -9.140625 C 2.390625 -8.609375 2.648438 -8.148438 3.171875 -7.765625 C 3.535156 -7.492188 4.046875 -7.164062 4.703125 -6.78125 C 5.285156 -6.425781 5.769531 -6.117188 6.15625 -5.859375 C 6.550781 -5.597656 6.914062 -5.316406 7.25 -5.015625 C 7.5625 -4.722656 7.804688 -4.382812 7.984375 -4 C 8.160156 -3.625 8.25 -3.238281 8.25 -2.84375 C 8.25 -2.289062 8.097656 -1.773438 7.796875 -1.296875 C 7.492188 -0.816406 7.078125 -0.4375 6.546875 -0.15625 C 6.023438 0.113281 5.453125 0.25 4.828125 0.25 C 4.421875 0.25 4.0625 0.210938 3.75 0.140625 C 3.445312 0.0664062 3.128906 -0.0234375 2.796875 -0.140625 C 2.421875 -0.273438 2.144531 -0.34375 1.96875 -0.34375 C 1.675781 -0.34375 1.453125 -0.144531 1.296875 0.25 L 1 0.25 L 1 -3.5 L 1.296875 -3.5 C 1.484375 -2.539062 1.847656 -1.78125 2.390625 -1.21875 C 2.941406 -0.65625 3.648438 -0.375 4.515625 -0.375 C 5.128906 -0.375 5.632812 -0.539062 6.03125 -0.875 C 6.4375 -1.207031 6.640625 -1.628906 6.640625 -2.140625 C 6.640625 -2.398438 6.585938 -2.640625 6.484375 -2.859375 C 6.390625 -3.078125 6.226562 -3.3125 6 -3.5625 C 5.800781 -3.769531 5.507812 -4 5.125 -4.25 C 4.75 -4.507812 4.25 -4.832031 3.625 -5.21875 C 3.09375 -5.539062 2.6875 -5.796875 2.40625 -5.984375 C 2.125 -6.171875 1.910156 -6.335938 1.765625 -6.484375 C 1.210938 -7.046875 0.9375 -7.71875 0.9375 -8.5 C 0.9375 -9.039062 1.070312 -9.53125 1.34375 -9.96875 C 1.625 -10.414062 2.003906 -10.765625 2.484375 -11.015625 C 2.960938 -11.265625 3.5 -11.390625 4.09375 -11.390625 Z M 4.09375 -11.390625 "/></g></g><g style="fill:#facc15;fill-opacity:1;"><g transform="translate(89.613358, 166.015845)"><path style="stroke:none" d="M 6.765625 -11.390625 C 7.304688 -11.390625 7.773438 -11.335938 8.171875 -11.234375 C 8.566406 -11.140625 8.945312 -11.007812 9.3125 -10.84375 C 9.613281 -10.726562 9.8125 -10.671875 9.90625 -10.671875 C 10.03125 -10.671875 10.148438 -10.738281 10.265625 -10.875 C 10.390625 -11.007812 10.472656 -11.179688 10.515625 -11.390625 L 10.796875 -11.390625 L 11.078125 -7.625 L 10.796875 -7.625 C 10.703125 -8.289062 10.460938 -8.859375 10.078125 -9.328125 C 9.691406 -9.804688 9.21875 -10.164062 8.65625 -10.40625 C 8.101562 -10.65625 7.519531 -10.78125 6.90625 -10.78125 C 5.632812 -10.78125 4.617188 -10.328125 3.859375 -9.421875 C 3.097656 -8.515625 2.71875 -7.148438 2.71875 -5.328125 C 2.71875 -4.242188 2.925781 -3.335938 3.34375 -2.609375 C 3.757812 -1.878906 4.300781 -1.335938 4.96875 -0.984375 C 5.644531 -0.628906 6.367188 -0.453125 7.140625 -0.453125 C 7.929688 -0.453125 8.679688 -0.648438 9.390625 -1.046875 C 10.109375 -1.453125 10.671875 -1.988281 11.078125 -2.65625 L 11.3125 -2.5 C 10.238281 -0.664062 8.660156 0.25 6.578125 0.25 C 5.492188 0.25 4.5 0 3.59375 -0.5 C 2.695312 -1.007812 1.988281 -1.695312 1.46875 -2.5625 C 0.945312 -3.425781 0.6875 -4.378906 0.6875 -5.421875 C 0.6875 -6.515625 0.957031 -7.519531 1.5 -8.4375 C 2.039062 -9.351562 2.773438 -10.070312 3.703125 -10.59375 C 4.628906 -11.125 5.648438 -11.390625 6.765625 -11.390625 Z M 6.765625 -11.390625 "/></g></g><g style="fill:#facc15;fill-opacity:1;"><g transform="translate(101.286503, 166.015845)"><path style="stroke:none" d="M 1.859375 -2.15625 L 6.015625 -11.640625 L 6.3125 -11.640625 L 10.703125 -1.546875 C 10.859375 -1.171875 11.007812 -0.894531 11.15625 -0.71875 C 11.300781 -0.539062 11.457031 -0.425781 11.625 -0.375 C 11.789062 -0.320312 12.015625 -0.296875 12.296875 -0.296875 L 12.296875 0 L 7.71875 0 L 7.71875 -0.296875 C 8.101562 -0.296875 8.390625 -0.363281 8.578125 -0.5 C 8.773438 -0.644531 8.875 -0.835938 8.875 -1.078125 C 8.875 -1.273438 8.804688 -1.523438 8.671875 -1.828125 L 7.828125 -3.75 L 3.328125 -3.75 L 2.40625 -1.625 C 2.289062 -1.40625 2.234375 -1.207031 2.234375 -1.03125 C 2.234375 -0.539062 2.632812 -0.296875 3.4375 -0.296875 L 3.4375 0 L 0.234375 0 L 0.234375 -0.296875 C 0.503906 -0.328125 0.722656 -0.40625 0.890625 -0.53125 C 1.054688 -0.65625 1.207031 -0.832031 1.34375 -1.0625 C 1.476562 -1.300781 1.648438 -1.664062 1.859375 -2.15625 Z M 7.5625 -4.359375 L 5.578125 -8.890625 L 3.609375 -4.359375 Z M 7.5625 -4.359375 "/></g></g><g style="fill:#facc15;fill-opacity:1;"><g transform="translate(113.803884, 166.015845)"><path style="stroke:none" d="M 5.6875 -10.859375 C 5.125 -10.859375 4.71875 -10.769531 4.46875 -10.59375 C 4.226562 -10.414062 4.109375 -10.054688 4.109375 -9.515625 L 4.109375 -1.359375 C 4.109375 -1.128906 4.15625 -0.96875 4.25 -0.875 C 4.34375 -0.78125 4.492188 -0.734375 4.703125 -0.734375 L 7.125 -0.734375 C 7.6875 -0.734375 8.148438 -0.804688 8.515625 -0.953125 C 8.890625 -1.097656 9.207031 -1.332031 9.46875 -1.65625 C 9.738281 -1.988281 10 -2.457031 10.25 -3.0625 L 10.515625 -2.96875 L 9.578125 0 L 0.6875 0 L 0.6875 -0.296875 L 0.796875 -0.296875 C 1.347656 -0.296875 1.742188 -0.390625 1.984375 -0.578125 C 2.234375 -0.773438 2.359375 -1.128906 2.359375 -1.640625 L 2.359375 -9.53125 C 2.359375 -10.03125 2.226562 -10.375 1.96875 -10.5625 C 1.71875 -10.757812 1.320312 -10.859375 0.78125 -10.859375 L 0.6875 -10.859375 L 0.6875 -11.15625 L 5.6875 -11.15625 Z M 5.6875 -10.859375 "/></g></g><g style="fill:#facc15;fill-opacity:1;"><g transform="translate(124.632793, 166.015845)"><path style="stroke:none" d="M 5.703125 -10.859375 C 5.242188 -10.859375 4.894531 -10.816406 4.65625 -10.734375 C 4.414062 -10.660156 4.25 -10.515625 4.15625 -10.296875 C 4.0625 -10.085938 4.015625 -9.785156 4.015625 -9.390625 L 4.015625 -1.625 C 4.015625 -1.257812 4.070312 -0.976562 4.1875 -0.78125 C 4.300781 -0.59375 4.476562 -0.46875 4.71875 -0.40625 C 4.957031 -0.34375 5.285156 -0.304688 5.703125 -0.296875 L 5.703125 0 L 0.5625 0 L 0.5625 -0.296875 C 1 -0.304688 1.332031 -0.34375 1.5625 -0.40625 C 1.800781 -0.46875 1.972656 -0.59375 2.078125 -0.78125 C 2.191406 -0.976562 2.25 -1.265625 2.25 -1.640625 L 2.25 -9.390625 C 2.25 -9.785156 2.195312 -10.082031 2.09375 -10.28125 C 2 -10.488281 1.832031 -10.632812 1.59375 -10.71875 C 1.363281 -10.800781 1.019531 -10.847656 0.5625 -10.859375 L 0.5625 -11.15625 L 5.703125 -11.15625 Z M 5.703125 -10.859375 "/></g></g><g style="fill:#facc15;fill-opacity:1;"><g transform="translate(130.88337, 166.015845)"><path style="stroke:none" d="M 10.671875 -2.921875 L 10.671875 -9.609375 C 10.671875 -10.097656 10.582031 -10.425781 10.40625 -10.59375 C 10.226562 -10.757812 9.910156 -10.847656 9.453125 -10.859375 L 9.046875 -10.859375 L 9.046875 -11.15625 L 13.15625 -11.15625 L 13.15625 -10.859375 L 12.8125 -10.859375 C 12.375 -10.859375 12.0625 -10.832031 11.875 -10.78125 C 11.695312 -10.726562 11.570312 -10.597656 11.5 -10.390625 C 11.425781 -10.191406 11.390625 -9.867188 11.390625 -9.421875 L 11.390625 0.125 L 11.171875 0.125 L 3.203125 -8.84375 L 3.203125 -1.890625 C 3.203125 -1.273438 3.320312 -0.851562 3.5625 -0.625 C 3.800781 -0.40625 4.222656 -0.296875 4.828125 -0.296875 L 4.828125 0 L 0.796875 0 L 0.796875 -0.296875 L 0.890625 -0.296875 C 1.410156 -0.296875 1.804688 -0.390625 2.078125 -0.578125 C 2.347656 -0.765625 2.484375 -1.113281 2.484375 -1.625 L 2.484375 -9.5625 C 2.203125 -10.039062 1.878906 -10.375 1.515625 -10.5625 C 1.160156 -10.757812 0.726562 -10.859375 0.21875 -10.859375 L 0.21875 -11.15625 L 3.453125 -11.15625 Z M 10.671875 -2.921875 "/></g></g><g style="fill:#facc15;fill-opacity:1;"><g transform="translate(144.24497, 166.015845)"><path style="stroke:none" d="M 7.109375 -11.390625 C 7.691406 -11.390625 8.203125 -11.335938 8.640625 -11.234375 C 9.078125 -11.128906 9.519531 -10.988281 9.96875 -10.8125 C 10.28125 -10.695312 10.46875 -10.640625 10.53125 -10.640625 C 10.664062 -10.640625 10.78125 -10.703125 10.875 -10.828125 C 10.96875 -10.953125 11.03125 -11.140625 11.0625 -11.390625 L 11.359375 -11.390625 L 11.65625 -7.84375 L 11.359375 -7.84375 C 11.210938 -8.457031 10.921875 -8.984375 10.484375 -9.421875 C 10.054688 -9.867188 9.554688 -10.207031 8.984375 -10.4375 C 8.410156 -10.664062 7.820312 -10.78125 7.21875 -10.78125 C 6.40625 -10.78125 5.660156 -10.578125 4.984375 -10.171875 C 4.304688 -9.765625 3.757812 -9.164062 3.34375 -8.375 C 2.9375 -7.59375 2.734375 -6.65625 2.734375 -5.5625 C 2.734375 -4.5625 2.945312 -3.664062 3.375 -2.875 C 3.800781 -2.082031 4.378906 -1.46875 5.109375 -1.03125 C 5.835938 -0.59375 6.628906 -0.375 7.484375 -0.375 C 7.941406 -0.375 8.363281 -0.4375 8.75 -0.5625 C 9.132812 -0.6875 9.546875 -0.894531 9.984375 -1.1875 L 9.984375 -4.40625 C 9.984375 -4.875 9.859375 -5.203125 9.609375 -5.390625 C 9.359375 -5.585938 8.960938 -5.691406 8.421875 -5.703125 L 8.421875 -5.984375 L 13.21875 -5.984375 L 13.21875 -5.703125 C 12.8125 -5.671875 12.507812 -5.609375 12.3125 -5.515625 C 12.113281 -5.429688 11.96875 -5.28125 11.875 -5.0625 C 11.78125 -4.84375 11.734375 -4.519531 11.734375 -4.09375 L 11.734375 -0.921875 C 10.941406 -0.492188 10.238281 -0.191406 9.625 -0.015625 C 9.007812 0.160156 8.253906 0.25 7.359375 0.25 C 5.953125 0.25 4.742188 -0.0195312 3.734375 -0.5625 C 2.722656 -1.101562 1.960938 -1.789062 1.453125 -2.625 C 0.953125 -3.46875 0.703125 -4.335938 0.703125 -5.234375 C 0.703125 -6.359375 0.984375 -7.390625 1.546875 -8.328125 C 2.117188 -9.265625 2.894531 -10.007812 3.875 -10.5625 C 4.851562 -11.113281 5.929688 -11.390625 7.109375 -11.390625 Z M 7.109375 -11.390625 "/></g></g><g style="fill:#facc15;fill-opacity:1;"><g transform="translate(157.60657, 166.015845)"><path style="stroke:none" d=""/></g></g><g style="fill:#facc15;fill-opacity:1;"><g transform="translate(161.665382, 166.015845)"><path style="stroke:none" d="M 10.671875 -2.921875 L 10.671875 -9.609375 C 10.671875 -10.097656 10.582031 -10.425781 10.40625 -10.59375 C 10.226562 -10.757812 9.910156 -10.847656 9.453125 -10.859375 L 9.046875 -10.859375 L 9.046875 -11.15625 L 13.15625 -11.15625 L 13.15625 -10.859375 L 12.8125 -10.859375 C 12.375 -10.859375 12.0625 -10.832031 11.875 -10.78125 C 11.695312 -10.726562 11.570312 -10.597656 11.5 -10.390625 C 11.425781 -10.191406 11.390625 -9.867188 11.390625 -9.421875 L 11.390625 0.125 L 11.171875 0.125 L 3.203125 -8.84375 L 3.203125 -1.890625 C 3.203125 -1.273438 3.320312 -0.851562 3.5625 -0.625 C 3.800781 -0.40625 4.222656 -0.296875 4.828125 -0.296875 L 4.828125 0 L 0.796875 0 L 0.796875 -0.296875 L 0.890625 -0.296875 C 1.410156 -0.296875 1.804688 -0.390625 2.078125 -0.578125 C 2.347656 -0.765625 2.484375 -1.113281 2.484375 -1.625 L 2.484375 -9.5625 C 2.203125 -10.039062 1.878906 -10.375 1.515625 -10.5625 C 1.160156 -10.757812 0.726562 -10.859375 0.21875 -10.859375 L 0.21875 -11.15625 L 3.453125 -11.15625 Z M 10.671875 -2.921875 "/></g></g><g style="fill:#facc15;fill-opacity:1;"><g transform="translate(175.026982, 166.015845)"><path style="stroke:none" d="M 9.5625 -8.6875 L 9.28125 -8.6875 C 9.175781 -9.300781 8.976562 -9.753906 8.6875 -10.046875 C 8.394531 -10.347656 7.988281 -10.5 7.46875 -10.5 L 3.9375 -10.5 L 3.9375 -6.203125 L 6.828125 -6.203125 C 7.347656 -6.203125 7.71875 -6.332031 7.9375 -6.59375 C 8.15625 -6.851562 8.269531 -7.265625 8.28125 -7.828125 L 8.578125 -7.828125 L 8.578125 -3.890625 L 8.28125 -3.890625 C 8.28125 -4.453125 8.171875 -4.867188 7.953125 -5.140625 C 7.734375 -5.410156 7.347656 -5.546875 6.796875 -5.546875 L 3.9375 -5.546875 L 3.9375 -1.484375 C 3.9375 -0.929688 4.15625 -0.65625 4.59375 -0.65625 L 7.453125 -0.65625 C 8.046875 -0.65625 8.566406 -0.832031 9.015625 -1.1875 C 9.472656 -1.550781 9.84375 -2.082031 10.125 -2.78125 L 10.46875 -2.78125 L 9.5625 0 L 0.578125 0 L 0.578125 -0.296875 C 1.140625 -0.296875 1.546875 -0.390625 1.796875 -0.578125 C 2.054688 -0.765625 2.1875 -1.117188 2.1875 -1.640625 L 2.1875 -9.625 C 2.1875 -10.0625 2.054688 -10.375 1.796875 -10.5625 C 1.546875 -10.757812 1.140625 -10.859375 0.578125 -10.859375 L 0.578125 -11.15625 L 9.4375 -11.15625 Z M 9.5625 -8.6875 "/></g></g><g style="fill:#facc15;fill-opacity:1;"><g transform="translate(185.855891, 166.015845)"><path style="stroke:none" d="M 4.390625 -10.859375 C 3.722656 -10.835938 3.390625 -10.597656 3.390625 -10.140625 C 3.390625 -9.992188 3.414062 -9.832031 3.46875 -9.65625 C 3.53125 -9.488281 3.65625 -9.132812 3.84375 -8.59375 L 5.875 -2.9375 L 5.90625 -2.9375 L 7.6875 -7.90625 L 7.0625 -9.5625 C 6.925781 -9.894531 6.804688 -10.144531 6.703125 -10.3125 C 6.609375 -10.476562 6.472656 -10.601562 6.296875 -10.6875 C 6.128906 -10.78125 5.882812 -10.835938 5.5625 -10.859375 L 5.5625 -11.15625 L 10 -11.15625 L 10 -10.859375 C 9.664062 -10.828125 9.394531 -10.753906 9.1875 -10.640625 C 8.988281 -10.523438 8.890625 -10.332031 8.890625 -10.0625 C 8.890625 -9.726562 8.988281 -9.320312 9.1875 -8.84375 L 11.46875 -2.9375 L 13.609375 -8.984375 C 13.722656 -9.304688 13.796875 -9.535156 13.828125 -9.671875 C 13.859375 -9.804688 13.875 -9.953125 13.875 -10.109375 C 13.875 -10.597656 13.488281 -10.847656 12.71875 -10.859375 L 12.71875 -11.15625 L 15.9375 -11.15625 L 15.9375 -10.859375 C 15.570312 -10.847656 15.273438 -10.695312 15.046875 -10.40625 C 14.816406 -10.113281 14.5625 -9.566406 14.28125 -8.765625 L 11.109375 0.234375 L 10.796875 0.234375 L 8.078125 -6.90625 L 5.484375 0.234375 L 5.234375 0.234375 L 1.703125 -9.328125 C 1.523438 -9.796875 1.367188 -10.132812 1.234375 -10.34375 C 1.097656 -10.550781 0.953125 -10.679688 0.796875 -10.734375 C 0.648438 -10.796875 0.421875 -10.835938 0.109375 -10.859375 L 0.109375 -11.15625 L 4.390625 -11.15625 Z M 4.390625 -10.859375 "/></g></g><g style="fill:#facc15;fill-opacity:1;"><g transform="translate(201.928775, 166.015845)"><path style="stroke:none" d=""/></g></g><g style="fill:#facc15;fill-opacity:1;"><g transform="translate(205.987588, 166.015845)"><path style="stroke:none" d="M 5.5625 -10.859375 L 5.46875 -10.859375 C 4.925781 -10.859375 4.53125 -10.757812 4.28125 -10.5625 C 4.039062 -10.375 3.921875 -10.023438 3.921875 -9.515625 L 3.921875 -6.203125 L 9.421875 -6.203125 L 9.421875 -9.53125 C 9.421875 -10.039062 9.296875 -10.390625 9.046875 -10.578125 C 8.796875 -10.765625 8.398438 -10.859375 7.859375 -10.859375 L 7.765625 -10.859375 L 7.765625 -11.15625 L 12.796875 -11.15625 L 12.796875 -10.859375 C 12.222656 -10.859375 11.804688 -10.765625 11.546875 -10.578125 C 11.296875 -10.398438 11.171875 -10.039062 11.171875 -9.5 L 11.171875 -1.625 C 11.171875 -1.09375 11.296875 -0.738281 11.546875 -0.5625 C 11.804688 -0.382812 12.222656 -0.296875 12.796875 -0.296875 L 12.796875 0 L 7.765625 0 L 7.765625 -0.296875 C 8.359375 -0.296875 8.78125 -0.382812 9.03125 -0.5625 C 9.289062 -0.738281 9.421875 -1.097656 9.421875 -1.640625 L 9.421875 -5.546875 L 3.921875 -5.546875 L 3.921875 -1.640625 C 3.921875 -1.097656 4.046875 -0.738281 4.296875 -0.5625 C 4.554688 -0.382812 4.976562 -0.296875 5.5625 -0.296875 L 5.5625 0 L 0.5625 0 L 0.5625 -0.296875 C 1.132812 -0.304688 1.546875 -0.398438 1.796875 -0.578125 C 2.046875 -0.765625 2.171875 -1.117188 2.171875 -1.640625 L 2.171875 -9.53125 C 2.171875 -10.03125 2.046875 -10.375 1.796875 -10.5625 C 1.546875 -10.757812 1.164062 -10.859375 0.65625 -10.859375 L 0.5625 -10.859375 L 0.5625 -11.15625 L 5.5625 -11.15625 Z M 5.5625 -10.859375 "/></g></g><g style="fill:#facc15;fill-opacity:1;"><g transform="translate(219.349187, 166.015845)"><path style="stroke:none" d="M 9.5625 -8.6875 L 9.28125 -8.6875 C 9.175781 -9.300781 8.976562 -9.753906 8.6875 -10.046875 C 8.394531 -10.347656 7.988281 -10.5 7.46875 -10.5 L 3.9375 -10.5 L 3.9375 -6.203125 L 6.828125 -6.203125 C 7.347656 -6.203125 7.71875 -6.332031 7.9375 -6.59375 C 8.15625 -6.851562 8.269531 -7.265625 8.28125 -7.828125 L 8.578125 -7.828125 L 8.578125 -3.890625 L 8.28125 -3.890625 C 8.28125 -4.453125 8.171875 -4.867188 7.953125 -5.140625 C 7.734375 -5.410156 7.347656 -5.546875 6.796875 -5.546875 L 3.9375 -5.546875 L 3.9375 -1.484375 C 3.9375 -0.929688 4.15625 -0.65625 4.59375 -0.65625 L 7.453125 -0.65625 C 8.046875 -0.65625 8.566406 -0.832031 9.015625 -1.1875 C 9.472656 -1.550781 9.84375 -2.082031 10.125 -2.78125 L 10.46875 -2.78125 L 9.5625 0 L 0.578125 0 L 0.578125 -0.296875 C 1.140625 -0.296875 1.546875 -0.390625 1.796875 -0.578125 C 2.054688 -0.765625 2.1875 -1.117188 2.1875 -1.640625 L 2.1875 -9.625 C 2.1875 -10.0625 2.054688 -10.375 1.796875 -10.5625 C 1.546875 -10.757812 1.140625 -10.859375 0.578125 -10.859375 L 0.578125 -11.15625 L 9.4375 -11.15625 Z M 9.5625 -8.6875 "/></g></g><g style="fill:#facc15;fill-opacity:1;"><g transform="translate(230.178097, 166.015845)"><path style="stroke:none" d="M 5.703125 -10.859375 C 5.242188 -10.859375 4.894531 -10.816406 4.65625 -10.734375 C 4.414062 -10.660156 4.25 -10.515625 4.15625 -10.296875 C 4.0625 -10.085938 4.015625 -9.785156 4.015625 -9.390625 L 4.015625 -1.625 C 4.015625 -1.257812 4.070312 -0.976562 4.1875 -0.78125 C 4.300781 -0.59375 4.476562 -0.46875 4.71875 -0.40625 C 4.957031 -0.34375 5.285156 -0.304688 5.703125 -0.296875 L 5.703125 0 L 0.5625 0 L 0.5625 -0.296875 C 1 -0.304688 1.332031 -0.34375 1.5625 -0.40625 C 1.800781 -0.46875 1.972656 -0.59375 2.078125 -0.78125 C 2.191406 -0.976562 2.25 -1.265625 2.25 -1.640625 L 2.25 -9.390625 C 2.25 -9.785156 2.195312 -10.082031 2.09375 -10.28125 C 2 -10.488281 1.832031 -10.632812 1.59375 -10.71875 C 1.363281 -10.800781 1.019531 -10.847656 0.5625 -10.859375 L 0.5625 -11.15625 L 5.703125 -11.15625 Z M 5.703125 -10.859375 "/></g></g><g style="fill:#facc15;fill-opacity:1;"><g transform="translate(236.428674, 166.015845)"><path style="stroke:none" d="M 7.109375 -11.390625 C 7.691406 -11.390625 8.203125 -11.335938 8.640625 -11.234375 C 9.078125 -11.128906 9.519531 -10.988281 9.96875 -10.8125 C 10.28125 -10.695312 10.46875 -10.640625 10.53125 -10.640625 C 10.664062 -10.640625 10.78125 -10.703125 10.875 -10.828125 C 10.96875 -10.953125 11.03125 -11.140625 11.0625 -11.390625 L 11.359375 -11.390625 L 11.65625 -7.84375 L 11.359375 -7.84375 C 11.210938 -8.457031 10.921875 -8.984375 10.484375 -9.421875 C 10.054688 -9.867188 9.554688 -10.207031 8.984375 -10.4375 C 8.410156 -10.664062 7.820312 -10.78125 7.21875 -10.78125 C 6.40625 -10.78125 5.660156 -10.578125 4.984375 -10.171875 C 4.304688 -9.765625 3.757812 -9.164062 3.34375 -8.375 C 2.9375 -7.59375 2.734375 -6.65625 2.734375 -5.5625 C 2.734375 -4.5625 2.945312 -3.664062 3.375 -2.875 C 3.800781 -2.082031 4.378906 -1.46875 5.109375 -1.03125 C 5.835938 -0.59375 6.628906 -0.375 7.484375 -0.375 C 7.941406 -0.375 8.363281 -0.4375 8.75 -0.5625 C 9.132812 -0.6875 9.546875 -0.894531 9.984375 -1.1875 L 9.984375 -4.40625 C 9.984375 -4.875 9.859375 -5.203125 9.609375 -5.390625 C 9.359375 -5.585938 8.960938 -5.691406 8.421875 -5.703125 L 8.421875 -5.984375 L 13.21875 -5.984375 L 13.21875 -5.703125 C 12.8125 -5.671875 12.507812 -5.609375 12.3125 -5.515625 C 12.113281 -5.429688 11.96875 -5.28125 11.875 -5.0625 C 11.78125 -4.84375 11.734375 -4.519531 11.734375 -4.09375 L 11.734375 -0.921875 C 10.941406 -0.492188 10.238281 -0.191406 9.625 -0.015625 C 9.007812 0.160156 8.253906 0.25 7.359375 0.25 C 5.953125 0.25 4.742188 -0.0195312 3.734375 -0.5625 C 2.722656 -1.101562 1.960938 -1.789062 1.453125 -2.625 C 0.953125 -3.46875 0.703125 -4.335938 0.703125 -5.234375 C 0.703125 -6.359375 0.984375 -7.390625 1.546875 -8.328125 C 2.117188 -9.265625 2.894531 -10.007812 3.875 -10.5625 C 4.851562 -11.113281 5.929688 -11.390625 7.109375 -11.390625 Z M 7.109375 -11.390625 "/></g></g><g style="fill:#facc15;fill-opacity:1;"><g transform="translate(249.790274, 166.015845)"><path style="stroke:none" d="M 5.5625 -10.859375 L 5.46875 -10.859375 C 4.925781 -10.859375 4.53125 -10.757812 4.28125 -10.5625 C 4.039062 -10.375 3.921875 -10.023438 3.921875 -9.515625 L 3.921875 -6.203125 L 9.421875 -6.203125 L 9.421875 -9.53125 C 9.421875 -10.039062 9.296875 -10.390625 9.046875 -10.578125 C 8.796875 -10.765625 8.398438 -10.859375 7.859375 -10.859375 L 7.765625 -10.859375 L 7.765625 -11.15625 L 12.796875 -11.15625 L 12.796875 -10.859375 C 12.222656 -10.859375 11.804688 -10.765625 11.546875 -10.578125 C 11.296875 -10.398438 11.171875 -10.039062 11.171875 -9.5 L 11.171875 -1.625 C 11.171875 -1.09375 11.296875 -0.738281 11.546875 -0.5625 C 11.804688 -0.382812 12.222656 -0.296875 12.796875 -0.296875 L 12.796875 0 L 7.765625 0 L 7.765625 -0.296875 C 8.359375 -0.296875 8.78125 -0.382812 9.03125 -0.5625 C 9.289062 -0.738281 9.421875 -1.097656 9.421875 -1.640625 L 9.421875 -5.546875 L 3.921875 -5.546875 L 3.921875 -1.640625 C 3.921875 -1.097656 4.046875 -0.738281 4.296875 -0.5625 C 4.554688 -0.382812 4.976562 -0.296875 5.5625 -0.296875 L 5.5625 0 L 0.5625 0 L 0.5625 -0.296875 C 1.132812 -0.304688 1.546875 -0.398438 1.796875 -0.578125 C 2.046875 -0.765625 2.171875 -1.117188 2.171875 -1.640625 L 2.171875 -9.53125 C 2.171875 -10.03125 2.046875 -10.375 1.796875 -10.5625 C 1.546875 -10.757812 1.164062 -10.859375 0.65625 -10.859375 L 0.5625 -10.859375 L 0.5625 -11.15625 L 5.5625 -11.15625 Z M 5.5625 -10.859375 "/></g></g><g style="fill:#facc15;fill-opacity:1;"><g transform="translate(263.151873, 166.015845)"><path style="stroke:none" d="M 10.421875 -8.625 L 10.109375 -8.625 C 9.960938 -9.832031 9.3125 -10.4375 8.15625 -10.4375 L 6.28125 -10.4375 L 6.28125 -1.53125 C 6.28125 -1.039062 6.421875 -0.710938 6.703125 -0.546875 C 6.984375 -0.378906 7.382812 -0.296875 7.90625 -0.296875 L 7.90625 0 L 2.90625 0 L 2.90625 -0.296875 C 3.476562 -0.296875 3.890625 -0.390625 4.140625 -0.578125 C 4.398438 -0.773438 4.53125 -1.128906 4.53125 -1.640625 L 4.53125 -10.4375 L 2.546875 -10.4375 C 2.035156 -10.4375 1.609375 -10.285156 1.265625 -9.984375 C 0.929688 -9.691406 0.742188 -9.238281 0.703125 -8.625 L 0.40625 -8.625 L 0.484375 -11.15625 L 10.34375 -11.15625 Z M 10.421875 -8.625 "/></g></g><g style="fill:#facc15;fill-opacity:1;"><g transform="translate(273.980783, 166.015845)"><path style="stroke:none" d="M 4.09375 -11.390625 C 4.457031 -11.390625 4.773438 -11.351562 5.046875 -11.28125 C 5.316406 -11.21875 5.59375 -11.125 5.875 -11 C 6.019531 -10.945312 6.160156 -10.898438 6.296875 -10.859375 C 6.429688 -10.816406 6.550781 -10.796875 6.65625 -10.796875 C 6.914062 -10.796875 7.117188 -10.992188 7.265625 -11.390625 L 7.578125 -11.390625 L 7.578125 -7.6875 L 7.265625 -7.6875 C 7.210938 -8.269531 7.039062 -8.796875 6.75 -9.265625 C 6.46875 -9.734375 6.113281 -10.101562 5.6875 -10.375 C 5.257812 -10.644531 4.800781 -10.78125 4.3125 -10.78125 C 3.78125 -10.78125 3.328125 -10.617188 2.953125 -10.296875 C 2.578125 -9.984375 2.390625 -9.597656 2.390625 -9.140625 C 2.390625 -8.609375 2.648438 -8.148438 3.171875 -7.765625 C 3.535156 -7.492188 4.046875 -7.164062 4.703125 -6.78125 C 5.285156 -6.425781 5.769531 -6.117188 6.15625 -5.859375 C 6.550781 -5.597656 6.914062 -5.316406 7.25 -5.015625 C 7.5625 -4.722656 7.804688 -4.382812 7.984375 -4 C 8.160156 -3.625 8.25 -3.238281 8.25 -2.84375 C 8.25 -2.289062 8.097656 -1.773438 7.796875 -1.296875 C 7.492188 -0.816406 7.078125 -0.4375 6.546875 -0.15625 C 6.023438 0.113281 5.453125 0.25 4.828125 0.25 C 4.421875 0.25 4.0625 0.210938 3.75 0.140625 C 3.445312 0.0664062 3.128906 -0.0234375 2.796875 -0.140625 C 2.421875 -0.273438 2.144531 -0.34375 1.96875 -0.34375 C 1.675781 -0.34375 1.453125 -0.144531 1.296875 0.25 L 1 0.25 L 1 -3.5 L 1.296875 -3.5 C 1.484375 -2.539062 1.847656 -1.78125 2.390625 -1.21875 C 2.941406 -0.65625 3.648438 -0.375 4.515625 -0.375 C 5.128906 -0.375 5.632812 -0.539062 6.03125 -0.875 C 6.4375 -1.207031 6.640625 -1.628906 6.640625 -2.140625 C 6.640625 -2.398438 6.585938 -2.640625 6.484375 -2.859375 C 6.390625 -3.078125 6.226562 -3.3125 6 -3.5625 C 5.800781 -3.769531 5.507812 -4 5.125 -4.25 C 4.75 -4.507812 4.25 -4.832031 3.625 -5.21875 C 3.09375 -5.539062 2.6875 -5.796875 2.40625 -5.984375 C 2.125 -6.171875 1.910156 -6.335938 1.765625 -6.484375 C 1.210938 -7.046875 0.9375 -7.71875 0.9375 -8.5 C 0.9375 -9.039062 1.070312 -9.53125 1.34375 -9.96875 C 1.625 -10.414062 2.003906 -10.765625 2.484375 -11.015625 C 2.960938 -11.265625 3.5 -11.390625 4.09375 -11.390625 Z M 4.09375 -11.390625 "/></g></g><g style="fill:#facc15;fill-opacity:1;"><g transform="translate(282.942644, 166.015845)"><path style="stroke:none" d=""/></g></g><g style="fill:#facc15;fill-opacity:1;"><g transform="translate(287.001456, 166.015845)"><path style="stroke:none" d="M 4.09375 -11.390625 C 4.457031 -11.390625 4.773438 -11.351562 5.046875 -11.28125 C 5.316406 -11.21875 5.59375 -11.125 5.875 -11 C 6.019531 -10.945312 6.160156 -10.898438 6.296875 -10.859375 C 6.429688 -10.816406 6.550781 -10.796875 6.65625 -10.796875 C 6.914062 -10.796875 7.117188 -10.992188 7.265625 -11.390625 L 7.578125 -11.390625 L 7.578125 -7.6875 L 7.265625 -7.6875 C 7.210938 -8.269531 7.039062 -8.796875 6.75 -9.265625 C 6.46875 -9.734375 6.113281 -10.101562 5.6875 -10.375 C 5.257812 -10.644531 4.800781 -10.78125 4.3125 -10.78125 C 3.78125 -10.78125 3.328125 -10.617188 2.953125 -10.296875 C 2.578125 -9.984375 2.390625 -9.597656 2.390625 -9.140625 C 2.390625 -8.609375 2.648438 -8.148438 3.171875 -7.765625 C 3.535156 -7.492188 4.046875 -7.164062 4.703125 -6.78125 C 5.285156 -6.425781 5.769531 -6.117188 6.15625 -5.859375 C 6.550781 -5.597656 6.914062 -5.316406 7.25 -5.015625 C 7.5625 -4.722656 7.804688 -4.382812 7.984375 -4 C 8.160156 -3.625 8.25 -3.238281 8.25 -2.84375 C 8.25 -2.289062 8.097656 -1.773438 7.796875 -1.296875 C 7.492188 -0.816406 7.078125 -0.4375 6.546875 -0.15625 C 6.023438 0.113281 5.453125 0.25 4.828125 0.25 C 4.421875 0.25 4.0625 0.210938 3.75 0.140625 C 3.445312 0.0664062 3.128906 -0.0234375 2.796875 -0.140625 C 2.421875 -0.273438 2.144531 -0.34375 1.96875 -0.34375 C 1.675781 -0.34375 1.453125 -0.144531 1.296875 0.25 L 1 0.25 L 1 -3.5 L 1.296875 -3.5 C 1.484375 -2.539062 1.847656 -1.78125 2.390625 -1.21875 C 2.941406 -0.65625 3.648438 -0.375 4.515625 -0.375 C 5.128906 -0.375 5.632812 -0.539062 6.03125 -0.875 C 6.4375 -1.207031 6.640625 -1.628906 6.640625 -2.140625 C 6.640625 -2.398438 6.585938 -2.640625 6.484375 -2.859375 C 6.390625 -3.078125 6.226562 -3.3125 6 -3.5625 C 5.800781 -3.769531 5.507812 -4 5.125 -4.25 C 4.75 -4.507812 4.25 -4.832031 3.625 -5.21875 C 3.09375 -5.539062 2.6875 -5.796875 2.40625 -5.984375 C 2.125 -6.171875 1.910156 -6.335938 1.765625 -6.484375 C 1.210938 -7.046875 0.9375 -7.71875 0.9375 -8.5 C 0.9375 -9.039062 1.070312 -9.53125 1.34375 -9.96875 C 1.625 -10.414062 2.003906 -10.765625 2.484375 -11.015625 C 2.960938 -11.265625 3.5 -11.390625 4.09375 -11.390625 Z M 4.09375 -11.390625 "/></g></g><g style="fill:#facc15;fill-opacity:1;"><g transform="translate(295.963317, 166.015845)"><path style="stroke:none" d="M 5.703125 -10.859375 C 5.242188 -10.859375 4.894531 -10.816406 4.65625 -10.734375 C 4.414062 -10.660156 4.25 -10.515625 4.15625 -10.296875 C 4.0625 -10.085938 4.015625 -9.785156 4.015625 -9.390625 L 4.015625 -1.625 C 4.015625 -1.257812 4.070312 -0.976562 4.1875 -0.78125 C 4.300781 -0.59375 4.476562 -0.46875 4.71875 -0.40625 C 4.957031 -0.34375 5.285156 -0.304688 5.703125 -0.296875 L 5.703125 0 L 0.5625 0 L 0.5625 -0.296875 C 1 -0.304688 1.332031 -0.34375 1.5625 -0.40625 C 1.800781 -0.46875 1.972656 -0.59375 2.078125 -0.78125 C 2.191406 -0.976562 2.25 -1.265625 2.25 -1.640625 L 2.25 -9.390625 C 2.25 -9.785156 2.195312 -10.082031 2.09375 -10.28125 C 2 -10.488281 1.832031 -10.632812 1.59375 -10.71875 C 1.363281 -10.800781 1.019531 -10.847656 0.5625 -10.859375 L 0.5625 -11.15625 L 5.703125 -11.15625 Z M 5.703125 -10.859375 "/></g></g><g style="fill:#facc15;fill-opacity:1;"><g transform="translate(302.213895, 166.015845)"><path style="stroke:none" d="M 10.671875 -2.921875 L 10.671875 -9.609375 C 10.671875 -10.097656 10.582031 -10.425781 10.40625 -10.59375 C 10.226562 -10.757812 9.910156 -10.847656 9.453125 -10.859375 L 9.046875 -10.859375 L 9.046875 -11.15625 L 13.15625 -11.15625 L 13.15625 -10.859375 L 12.8125 -10.859375 C 12.375 -10.859375 12.0625 -10.832031 11.875 -10.78125 C 11.695312 -10.726562 11.570312 -10.597656 11.5 -10.390625 C 11.425781 -10.191406 11.390625 -9.867188 11.390625 -9.421875 L 11.390625 0.125 L 11.171875 0.125 L 3.203125 -8.84375 L 3.203125 -1.890625 C 3.203125 -1.273438 3.320312 -0.851562 3.5625 -0.625 C 3.800781 -0.40625 4.222656 -0.296875 4.828125 -0.296875 L 4.828125 0 L 0.796875 0 L 0.796875 -0.296875 L 0.890625 -0.296875 C 1.410156 -0.296875 1.804688 -0.390625 2.078125 -0.578125 C 2.347656 -0.765625 2.484375 -1.113281 2.484375 -1.625 L 2.484375 -9.5625 C 2.203125 -10.039062 1.878906 -10.375 1.515625 -10.5625 C 1.160156 -10.757812 0.726562 -10.859375 0.21875 -10.859375 L 0.21875 -11.15625 L 3.453125 -11.15625 Z M 10.671875 -2.921875 "/></g></g><g style="fill:#facc15;fill-opacity:1;"><g transform="translate(315.575494, 166.015845)"><path style="stroke:none" d="M 6.765625 -11.390625 C 7.304688 -11.390625 7.773438 -11.335938 8.171875 -11.234375 C 8.566406 -11.140625 8.945312 -11.007812 9.3125 -10.84375 C 9.613281 -10.726562 9.8125 -10.671875 9.90625 -10.671875 C 10.03125 -10.671875 10.148438 -10.738281 10.265625 -10.875 C 10.390625 -11.007812 10.472656 -11.179688 10.515625 -11.390625 L 10.796875 -11.390625 L 11.078125 -7.625 L 10.796875 -7.625 C 10.703125 -8.289062 10.460938 -8.859375 10.078125 -9.328125 C 9.691406 -9.804688 9.21875 -10.164062 8.65625 -10.40625 C 8.101562 -10.65625 7.519531 -10.78125 6.90625 -10.78125 C 5.632812 -10.78125 4.617188 -10.328125 3.859375 -9.421875 C 3.097656 -8.515625 2.71875 -7.148438 2.71875 -5.328125 C 2.71875 -4.242188 2.925781 -3.335938 3.34375 -2.609375 C 3.757812 -1.878906 4.300781 -1.335938 4.96875 -0.984375 C 5.644531 -0.628906 6.367188 -0.453125 7.140625 -0.453125 C 7.929688 -0.453125 8.679688 -0.648438 9.390625 -1.046875 C 10.109375 -1.453125 10.671875 -1.988281 11.078125 -2.65625 L 11.3125 -2.5 C 10.238281 -0.664062 8.660156 0.25 6.578125 0.25 C 5.492188 0.25 4.5 0 3.59375 -0.5 C 2.695312 -1.007812 1.988281 -1.695312 1.46875 -2.5625 C 0.945312 -3.425781 0.6875 -4.378906 0.6875 -5.421875 C 0.6875 -6.515625 0.957031 -7.519531 1.5 -8.4375 C 2.039062 -9.351562 2.773438 -10.070312 3.703125 -10.59375 C 4.628906 -11.125 5.648438 -11.390625 6.765625 -11.390625 Z M 6.765625 -11.390625 "/></g></g><g style="fill:#facc15;fill-opacity:1;"><g transform="translate(327.248639, 166.015845)"><path style="stroke:none" d="M 9.5625 -8.6875 L 9.28125 -8.6875 C 9.175781 -9.300781 8.976562 -9.753906 8.6875 -10.046875 C 8.394531 -10.347656 7.988281 -10.5 7.46875 -10.5 L 3.9375 -10.5 L 3.9375 -6.203125 L 6.828125 -6.203125 C 7.347656 -6.203125 7.71875 -6.332031 7.9375 -6.59375 C 8.15625 -6.851562 8.269531 -7.265625 8.28125 -7.828125 L 8.578125 -7.828125 L 8.578125 -3.890625 L 8.28125 -3.890625 C 8.28125 -4.453125 8.171875 -4.867188 7.953125 -5.140625 C 7.734375 -5.410156 7.347656 -5.546875 6.796875 -5.546875 L 3.9375 -5.546875 L 3.9375 -1.484375 C 3.9375 -0.929688 4.15625 -0.65625 4.59375 -0.65625 L 7.453125 -0.65625 C 8.046875 -0.65625 8.566406 -0.832031 9.015625 -1.1875 C 9.472656 -1.550781 9.84375 -2.082031 10.125 -2.78125 L 10.46875 -2.78125 L 9.5625 0 L 0.578125 0 L 0.578125 -0.296875 C 1.140625 -0.296875 1.546875 -0.390625 1.796875 -0.578125 C 2.054688 -0.765625 2.1875 -1.117188 2.1875 -1.640625 L 2.1875 -9.625 C 2.1875 -10.0625 2.054688 -10.375 1.796875 -10.5625 C 1.546875 -10.757812 1.140625 -10.859375 0.578125 -10.859375 L 0.578125 -11.15625 L 9.4375 -11.15625 Z M 9.5625 -8.6875 "/></g></g><g style="fill:#facc15;fill-opacity:1;"><g transform="translate(338.077549, 166.015845)"><path style="stroke:none" d=""/></g></g><g style="fill:#facc15;fill-opacity:1;"><g transform="translate(342.136361, 166.015845)"><path style="stroke:none" d="M 4.8125 -11.390625 L 4.8125 -1.5625 C 4.8125 -1.195312 4.859375 -0.921875 4.953125 -0.734375 C 5.054688 -0.554688 5.203125 -0.4375 5.390625 -0.375 C 5.585938 -0.320312 5.851562 -0.296875 6.1875 -0.296875 L 6.1875 0 L 2.03125 0 L 2.03125 -0.296875 C 2.5625 -0.296875 2.925781 -0.382812 3.125 -0.5625 C 3.320312 -0.738281 3.421875 -1.066406 3.421875 -1.546875 L 3.421875 -8.921875 C 3.421875 -9.691406 3.222656 -10.078125 2.828125 -10.078125 C 2.628906 -10.078125 2.363281 -9.992188 2.03125 -9.828125 L 1.859375 -10.078125 L 4.5 -11.390625 Z M 4.8125 -11.390625 "/></g></g><g style="fill:#facc15;fill-opacity:1;"><g transform="translate(350.253986, 166.015845)"><path style="stroke:none" d="M 3.90625 -11.390625 C 4.570312 -11.390625 5.171875 -11.1875 5.703125 -10.78125 C 6.234375 -10.375 6.648438 -9.8125 6.953125 -9.09375 C 7.265625 -8.382812 7.421875 -7.597656 7.421875 -6.734375 C 7.421875 -5.804688 7.25 -4.921875 6.90625 -4.078125 C 6.570312 -3.242188 6.109375 -2.5 5.515625 -1.84375 C 4.929688 -1.207031 4.273438 -0.707031 3.546875 -0.34375 C 2.828125 0.0078125 2.097656 0.1875 1.359375 0.1875 L 0.828125 0.1875 L 0.828125 -0.125 C 1.515625 -0.132812 2.1875 -0.34375 2.84375 -0.75 C 3.507812 -1.15625 4.09375 -1.726562 4.59375 -2.46875 C 5.101562 -3.21875 5.46875 -4.070312 5.6875 -5.03125 C 5.289062 -4.75 4.910156 -4.535156 4.546875 -4.390625 C 4.191406 -4.253906 3.800781 -4.1875 3.375 -4.1875 C 2.84375 -4.1875 2.363281 -4.320312 1.9375 -4.59375 C 1.519531 -4.875 1.191406 -5.257812 0.953125 -5.75 C 0.710938 -6.25 0.59375 -6.800781 0.59375 -7.40625 C 0.59375 -8.125 0.742188 -8.789062 1.046875 -9.40625 C 1.347656 -10.019531 1.75 -10.503906 2.25 -10.859375 C 2.75 -11.210938 3.300781 -11.390625 3.90625 -11.390625 Z M 1.984375 -8.328125 C 1.984375 -7.453125 2.140625 -6.660156 2.453125 -5.953125 C 2.765625 -5.253906 3.300781 -4.90625 4.0625 -4.90625 C 4.363281 -4.90625 4.640625 -4.953125 4.890625 -5.046875 C 5.140625 -5.140625 5.4375 -5.304688 5.78125 -5.546875 C 5.863281 -6.023438 5.90625 -6.472656 5.90625 -6.890625 C 5.90625 -7.410156 5.835938 -7.976562 5.703125 -8.59375 C 5.566406 -9.21875 5.335938 -9.753906 5.015625 -10.203125 C 4.691406 -10.660156 4.265625 -10.890625 3.734375 -10.890625 C 3.203125 -10.890625 2.773438 -10.65625 2.453125 -10.1875 C 2.140625 -9.71875 1.984375 -9.097656 1.984375 -8.328125 Z M 1.984375 -8.328125 "/></g></g><g style="fill:#facc15;fill-opacity:1;"><g transform="translate(358.371612, 166.015845)"><path style="stroke:none" d="M 3.90625 -11.390625 C 4.570312 -11.390625 5.171875 -11.1875 5.703125 -10.78125 C 6.234375 -10.375 6.648438 -9.8125 6.953125 -9.09375 C 7.265625 -8.382812 7.421875 -7.597656 7.421875 -6.734375 C 7.421875 -5.804688 7.25 -4.921875 6.90625 -4.078125 C 6.570312 -3.242188 6.109375 -2.5 5.515625 -1.84375 C 4.929688 -1.207031 4.273438 -0.707031 3.546875 -0.34375 C 2.828125 0.0078125 2.097656 0.1875 1.359375 0.1875 L 0.828125 0.1875 L 0.828125 -0.125 C 1.515625 -0.132812 2.1875 -0.34375 2.84375 -0.75 C 3.507812 -1.15625 4.09375 -1.726562 4.59375 -2.46875 C 5.101562 -3.21875 5.46875 -4.070312 5.6875 -5.03125 C 5.289062 -4.75 4.910156 -4.535156 4.546875 -4.390625 C 4.191406 -4.253906 3.800781 -4.1875 3.375 -4.1875 C 2.84375 -4.1875 2.363281 -4.320312 1.9375 -4.59375 C 1.519531 -4.875 1.191406 -5.257812 0.953125 -5.75 C 0.710938 -6.25 0.59375 -6.800781 0.59375 -7.40625 C 0.59375 -8.125 0.742188 -8.789062 1.046875 -9.40625 C 1.347656 -10.019531 1.75 -10.503906 2.25 -10.859375 C 2.75 -11.210938 3.300781 -11.390625 3.90625 -11.390625 Z M 1.984375 -8.328125 C 1.984375 -7.453125 2.140625 -6.660156 2.453125 -5.953125 C 2.765625 -5.253906 3.300781 -4.90625 4.0625 -4.90625 C 4.363281 -4.90625 4.640625 -4.953125 4.890625 -5.046875 C 5.140625 -5.140625 5.4375 -5.304688 5.78125 -5.546875 C 5.863281 -6.023438 5.90625 -6.472656 5.90625 -6.890625 C 5.90625 -7.410156 5.835938 -7.976562 5.703125 -8.59375 C 5.566406 -9.21875 5.335938 -9.753906 5.015625 -10.203125 C 4.691406 -10.660156 4.265625 -10.890625 3.734375 -10.890625 C 3.203125 -10.890625 2.773438 -10.65625 2.453125 -10.1875 C 2.140625 -9.71875 1.984375 -9.097656 1.984375 -8.328125 Z M 1.984375 -8.328125 "/></g></g><g style="fill:#facc15;fill-opacity:1;"><g transform="translate(366.489237, 166.015845)"><path style="stroke:none" d="M 6.203125 -11.328125 L 6.203125 -4.015625 L 7.71875 -4.015625 L 7.71875 -2.8125 L 6.203125 -2.8125 L 6.203125 0 L 4.828125 0 L 4.828125 -2.8125 L 0.265625 -2.8125 L 0.265625 -4.078125 L 5.34375 -11.328125 Z M 0.9375 -4.015625 L 4.828125 -4.015625 L 4.828125 -9.546875 L 4.796875 -9.546875 Z M 0.9375 -4.015625 "/></g></g><path style="fill:none;stroke-width:9;stroke-linecap:round;stroke-linejoin:miter;stroke:#facc15;stroke-opacity:1;stroke-miterlimit:4;" d="M 4.502176 4.501404 L 131.8092 4.501855 " transform="matrix(0.000953843,0.747332,-0.747332,0.000953843,87.613655,33.220929)"/></g></svg>