<?xml version="1.0" encoding="UTF-8" standalone="no"?>
<!-- Created with Inkscape (http://www.inkscape.org/) -->

<svg
   version="1.1"
   id="svg1"
   width="1056"
   height="816"
   viewBox="0 0 1056 816"
   sodipodi:docname="pace logo svg.svg"
   inkscape:version="1.4.2 (f4327f4, 2025-05-13)"
   xmlns:inkscape="http://www.inkscape.org/namespaces/inkscape"
   xmlns:sodipodi="http://sodipodi.sourceforge.net/DTD/sodipodi-0.dtd"
   xmlns="http://www.w3.org/2000/svg"
   xmlns:svg="http://www.w3.org/2000/svg">
  <defs
     id="defs1" />
  <sodipodi:namedview
     id="namedview1"
     pagecolor="#ffffff"
     bordercolor="#000000"
     borderopacity="0.25"
     inkscape:showpageshadow="2"
     inkscape:pageopacity="0.0"
     inkscape:pagecheckerboard="0"
     inkscape:deskcolor="#d1d1d1"
     inkscape:zoom="0.94730392"
     inkscape:cx="430.16818"
     inkscape:cy="527.2859"
     inkscape:window-width="1920"
     inkscape:window-height="991"
     inkscape:window-x="-9"
     inkscape:window-y="-9"
     inkscape:window-maximized="1"
     inkscape:current-layer="g1">
    <inkscape:page
       x="0"
       y="0"
       inkscape:label="1"
       id="page1"
       width="1056"
       height="816"
       margin="0"
       bleed="0" />
  </sodipodi:namedview>
  <g
     id="g1"
     inkscape:groupmode="layer"
     inkscape:label="1">
    <path
       id="path1"
       d="M 0,97.120003 H 1056 V 719.84003 H 0 Z"
       style="fill:#ffffff;fill-opacity:1;fill-rule:nonzero;stroke:none" />
    <path
       id="path2"
       d="M 0,97.120003 H 1056 V 719.35998 H 0 Z"
       style="fill:#000000;fill-opacity:1;fill-rule:nonzero;stroke:none" />
    <path
       id="path3"
       d="M 0,0 H -48.52 L -61.810001,36.700001 H -77.190002 L -27.219999,-97.599998 H -20.18 L 30.110001,36.700001 H 13.61 Z M -43.560001,-13.62 H -4.64 L -19.379999,-53.689999 -24.02,-73.720001 h -0.16 l -4.81,20.36 z"
       style="fill:#fefefe;fill-opacity:1;fill-rule:nonzero;stroke:none"
       transform="translate(382.57999,427.39001)" />
    <path
       id="path4"
       d="M 230.45,486.20001 H 477.22"
       style="fill:none;stroke:#ffffff;stroke-width:13.292;stroke-linecap:butt;stroke-linejoin:miter;stroke-miterlimit:4;stroke-dasharray:none;stroke-opacity:1" />
    <path
       id="path5"
       d="M 78.239998,244.48 H 311.67999 v 20.16001 H 78.239998 Z"
       style="fill:#ffffff;fill-opacity:1;fill-rule:nonzero;stroke:none" />
    <path
       id="path6"
       d="m 0,0 c 0,1.76 -0.64,3.21 -1.92,4.33 -1.28,1.28 -2.88,1.76 -4.97,1.76 -1.28,0 -2.56,-0.16 -3.84,-0.8 -0.8,-0.16 -1.28,-0.32 -1.6,-0.32 -0.32,0 -0.48,0.16 -0.64,0.32 -0.16,0.16 -0.32,0.48 -0.32,0.8 h -0.8 l -0.96,-7.21 h 0.8 c 0.8,2.08 1.76,3.68 2.88,4.65 1.12,0.96 2.4,1.44 3.84,1.44 1.28,0 2.25,-0.32 3.05,-1.12 0.8,-0.64 1.12,-1.61 1.12,-2.73 0,-0.8 -0.16,-1.44 -0.48,-1.92 -0.8,-1.28 -2.41,-2.56 -4.97,-4.01 -1.92,-0.96 -3.2,-1.92 -4.16,-3.04 -0.8,-0.96 -1.12,-2.25 -1.12,-3.53 0,-1.76 0.64,-3.36 1.92,-4.32 1.12,-0.97 2.4,-1.45 3.84,-1.45 1.12,0 2.41,0.16 3.69,0.64 0.64,0.319999 1.12,0.49 1.44,0.49 0.64,0 0.96,-0.33 1.12,-1.13 h 0.64 l 0.8,7.21 h -0.8 c -0.48,-1.76 -1.28,-3.04 -2.08,-4 -1.28,-1.28 -2.57,-1.92 -4.17,-1.92 -1.12,0 -1.92,0.32 -2.56,0.96 -0.64,0.48 -0.96,1.28 -0.96,2.24 0,0.96 0.32,1.76 1.12,2.56 0.8,0.81 2.08,1.77 3.84,2.73 2.25,1.12 3.85,2.4 4.81,3.52 C -0.48,-2.72 0,-1.44 0,0 Z"
       style="fill:#fefefe;fill-opacity:1;fill-rule:nonzero;stroke:none"
       transform="translate(314.84,540.84998)" />
    <path
       id="path7"
       d="m 0,0 c -1.12,1.45 -2.4,2.57 -4,3.21 -1.6,0.8 -3.37,1.12 -5.29,1.12 -3.36,0 -6.08,-0.96 -8.160001,-3.04 C -19.379999,-0.96 -20.5,-3.68 -20.5,-7.05 c 0,-4 1.280001,-7.05 4.01,-9.29 2.08,-1.770001 4.64,-2.57 7.36,-2.57 1.6,0 3.21,0.16 4.97,0.799999 0.48,0.16 0.96,0.33 1.28,0.33 0.64,0 1.12,-0.489999 1.44,-1.129999 h 0.64 l 0.32,7.54 h -0.8 c -0.32,-0.97 -0.64,-1.93 -0.96,-2.41 -0.32,-0.64 -0.64,-1.28 -1.28,-1.76 -1.28,-1.28 -3.04,-2.080001 -4.97,-2.080001 -2.56,0 -4.48,0.960001 -5.92,2.720001 -1.44,1.92 -2.08,4.33 -2.08,7.37 0,4.01 0.96,6.89 3.04,8.66 1.44,1.12 3.2,1.76 5.28,1.76 2.57,0 5.13,-1.12 7.53,-3.37 z"
       style="fill:#fefefe;fill-opacity:1;fill-rule:nonzero;stroke:none"
       transform="translate(338.54001,542.60999)" />
    <path
       id="path8"
       d="m 0,0 h -8.64 v -0.64 c 0.8,0 1.44,0 1.92,-0.32 0.32,-0.16 0.32,-0.32 0.32,-0.8 0,-0.48 -0.16,-1.29 -0.64,-2.25 l -1.28,-3.2 h -8.809999 L -18.73,-3.37 c -0.159999,0.48 -0.319999,0.97 -0.319999,1.45 0,0.8 0.799999,1.28 2.399999,1.28 V 0 h -6.729999 v -0.64 c 0.799999,0 1.439998,-0.32 1.92,-0.96 0.32,-0.48 1.119999,-2.09 2.25,-4.49 L -12.17,-22.76 h 0.64 l 8.49,19.23 c 0.48,1.29 0.96,2.09 1.28,2.41 0.32,0.32 0.96,0.48 1.76,0.48 z m -8.8,-8.65 -4.01,-9.300001 -3.84,9.300001 z"
       style="fill:#fefefe;fill-opacity:1;fill-rule:nonzero;stroke:none"
       transform="translate(362.72,546.46002)" />
    <path
       id="path9"
       d="M 0,0 -1.6,5.77 H -19.860001 V 5.13 c 1.280001,0 2.090001,-0.32 2.41,-0.64 0.480002,-0.32 0.640002,-1.12 0.640002,-2.41 v -14.9 c 0,-1.28 -0.16,-2.08 -0.640002,-2.4 -0.319999,-0.32 -1.129999,-0.64 -2.41,-0.64 v -0.65 H -10.25 v 0.65 c -1.28,0 -2.24,0.32 -2.56,0.64 -0.32,0.32 -0.64,1.12 -0.64,2.4 V 3.05 c 0,0.64 0.16,0.96 0.64,1.28 0.32,0.16 1.12,0.16 2.24,0.16 h 2.4 c 2.73,0 4.65,-0.64 5.93,-2.09 0.32,-0.48 0.8,-1.28 1.44,-2.4 z"
       style="fill:#fefefe;fill-opacity:1;fill-rule:nonzero;stroke:none"
       transform="translate(383.38,540.69)" />
    <path
       id="path10"
       d="m 0,0 h -9.93 v -0.64 c 1.28,0 2.24,-0.16 2.56,-0.48 0.49,-0.48 0.65,-1.28 0.65,-2.57 v -14.9 c 0,-1.280001 -0.16,-2.08 -0.49,-2.4 -0.48,-0.319999 -1.28,-0.639999 -2.72,-0.639999 v -0.650002 H 0 v 0.650002 c -1.44,0 -2.24,0.16 -2.72,0.639999 -0.32,0.32 -0.48,1.119999 -0.48,2.4 v 14.9 c 0,1.29 0.16,2.09 0.48,2.41 0.48,0.48 1.28,0.64 2.72,0.64 z"
       style="fill:#fefefe;fill-opacity:1;fill-rule:nonzero;stroke:none"
       transform="translate(394.42999,546.46002)" />
    <path
       id="path11"
       d="M 0,0 C -1.12,0 -1.76,0.32 -2.24,0.48 -2.88,0.96 -3.2,2.24 -3.2,4.32 V 22.110001 H -3.84 L -18.73,3.52 v 13.14 c 0,1.76 0.32,2.889999 0.64,3.530001 C -17.610001,20.67 -16.809999,20.99 -15.53,20.99 v 0.639999 h -7.849999 V 20.99 c 1.279999,0 2.24,-0.32 2.559999,-0.799999 C -20.34,19.549999 -20.17,18.42 -20.17,16.66 V 1.76 C -20.82,0.96 -21.459999,0.48 -21.780001,0.32 -22.26,0 -22.74,0 -23.379999,0 v -0.65 h 5.769998 L -4.64,15.7 V 4.32 C -4.64,2.24 -4.96,0.96 -5.6,0.48 -6.08,0.16 -6.88,0 -7.84,0 V -0.65 H 0 Z"
       style="fill:#fefefe;fill-opacity:1;fill-rule:nonzero;stroke:none"
       transform="translate(418.92999,524.83002)" />
    <path
       id="path12"
       d="M 0,0 C -1.12,0.16 -1.76,0.32 -1.92,0.64 -2.24,0.96 -2.4,1.76 -2.4,2.73 v 6.89 c -0.64,0.48 -1.92,1.12 -3.68,1.6 -1.76,0.48 -3.36,0.64 -4.81,0.64 -3.84,0 -6.88,-1.12 -9.28,-3.53 -1.770001,-1.92 -2.73,-4.64 -2.73,-7.85 0,-3.52 1.119999,-6.25 3.209999,-8.49 2.24,-2.24 4.960001,-3.37 8.320001,-3.37 1.61,0 3.05,0.16 4.65,0.8 0.48,0.16 1.12,0.33 1.44,0.33 0.32,0 0.64,-0.17 0.96,-0.33 0.32,-0.32 0.48,-0.48 0.64,-0.8 h 0.64 l 0.32,7.05 h -0.8 c -0.8,-1.76 -1.6,-3.04 -2.4,-3.84 -1.28,-1.28 -2.88,-1.92 -4.81,-1.92 -2.4,0 -4.32,0.8 -5.92,2.56 -0.800001,0.8 -1.28,1.92 -1.76,3.36 -0.479999,1.45 -0.639999,3.05 -0.639999,4.65 0,3.05 0.799999,5.61 2.399999,7.37 1.6,1.77 3.68,2.73 6.41,2.73 1.28,0 2.24,-0.16 3.2,-0.64 0.96,-0.32 1.28,-0.8 1.28,-1.45 V 3.05 C -5.76,1.76 -5.92,0.8 -6.4,0.48 -6.72,0.32 -7.52,0.16 -8.64,0 V -0.48 H 0 Z"
       style="fill:#fefefe;fill-opacity:1;fill-rule:nonzero;stroke:none"
       transform="translate(442.79001,535.08002)" />
    <path
       id="path13"
       d="M 0,0 C -1.12,0 -1.76,0.32 -2.24,0.48 -2.88,0.96 -3.2,2.24 -3.2,4.32 V 22.110001 H -3.68 L -18.73,3.52 v 13.14 c 0,1.76 0.32,2.889999 0.64,3.530001 C -17.610001,20.67 -16.809999,20.99 -15.53,20.99 v 0.639999 h -7.849999 V 20.99 c 1.279999,0 2.24,-0.32 2.559999,-0.799999 C -20.33,19.549999 -20.17,18.42 -20.17,16.66 V 1.76 C -20.82,0.96 -21.299999,0.48 -21.780001,0.32 -22.1,0 -22.74,0 -23.379999,0 v -0.65 h 5.769998 L -4.64,15.7 V 4.32 C -4.64,2.24 -4.96,0.96 -5.6,0.48 -6.08,0.16 -6.88,0 -7.84,0 V -0.65 H 0 Z"
       style="fill:#fefefe;fill-opacity:1;fill-rule:nonzero;stroke:none"
       transform="translate(475.45999,524.83002)" />
    <path
       id="path14"
       d="M 0,0 -1.44,5.61 H -19.700001 V 4.97 c 1.290001,0 2.09,-0.32 2.41,-0.64 0.320002,-0.32 0.480002,-1.12 0.480002,-2.41 v -14.9 c 0,-1.28 -0.16,-2.08 -0.480002,-2.4 -0.32,-0.32 -1.119999,-0.64 -2.41,-0.64 v -0.65 H -1.76 v 4.81 h -0.8 c -0.32,-1.6 -0.64,-2.56 -1.28,-2.88 -0.64,-0.48 -1.92,-0.64 -3.85,-0.64 h -4.48 c -0.48,0 -0.8,0 -0.96,0.16 -0.16,0.16 -0.16,0.48 -0.16,0.96 v 7.53 h 5.12 c 1.45,0 2.25,-0.16 2.73,-0.64 0.48,-0.32 0.8,-1.28 0.96,-2.57 h 0.8 v 7.86 h -0.8 c -0.16,-1.44 -0.48,-2.41 -0.96,-2.73 -0.32,-0.32 -1.28,-0.64 -2.73,-0.64 h -5.12 v 8.34 c 0,0.64 0,0.96 0.16,1.12 0.32,0.32 1.44,0.32 3.36,0.32 h 0.96 c 2.41,0 4.01,-0.16 5.13,-0.8 C -2.72,3.05 -1.76,1.76 -0.96,0 Z"
       style="fill:#fefefe;fill-opacity:1;fill-rule:nonzero;stroke:none"
       transform="translate(496.12,540.84998)" />
    <path
       id="path15"
       d="m 0,0 c -0.96,0.16 -1.6,0.32 -1.92,0.64 -0.32,0.32 -0.64,0.8 -0.96,1.76 l -6.89,19.710001 h -0.48 L -15.69,7.69 -20.82,22.110001 h -0.479999 L -27.860001,3.84 C -28.51,2.24 -28.99,1.28 -29.469999,0.8 -29.790001,0.32 -30.43,0 -31.389999,0 v -0.65 h 8.33 V 0 C -23.860001,0 -24.5,0.16 -24.82,0.16 c -0.319999,0.16 -0.479999,0.48 -0.479999,0.8 0,0.48 0.16,0.96 0.479999,1.6 l 4.8,12.66 3.69,-9.46 -1.129999,-2.72 C -18.1,1.6 -18.58,0.8 -18.9,0.48 -19.379999,0.16 -20.02,0 -20.98,0 v -0.65 h 9.13 V 0 c -1.76,0 -2.72,0.32 -2.72,1.12 0,0.32 0.16,0.96 0.64,1.76 l 0.32,0.96 4.48,11.54 L -4.96,4 C -4.64,2.88 -4.32,2.08 -4.32,1.44 -4.32,0.96 -4.48,0.64 -4.96,0.48 -5.28,0.16 -5.93,0 -6.73,0 V -0.65 H 0 Z"
       style="fill:#fefefe;fill-opacity:1;fill-rule:nonzero;stroke:none"
       transform="translate(528.15002,524.83002)" />
    <path
       id="path16"
       d="m 0,0 h -9.29 v -0.64 c 1.28,0 2.08,-0.32 2.4,-0.64 0.32,-0.32 0.48,-1.28 0.48,-2.73 v -6.57 h -10.25 v 6.89 c 0,1.29 0.16,2.09 0.48,2.41 0.49,0.32 1.29,0.64 2.57,0.64 V 0 h -9.449999 v -0.64 c 1.279998,0 2.079999,-0.32 2.399999,-0.64 0.48,-0.32 0.64,-1.28 0.64,-2.73 v -14.58 c 0,-1.280001 -0.16,-2.08 -0.64,-2.4 -0.32,-0.319999 -1.120001,-0.639999 -2.399999,-0.639999 v -0.650002 H -13.61 v 0.650002 c -1.28,0 -2.24,0.32 -2.57,0.639999 -0.32,0.32 -0.48,1.119999 -0.48,2.4 v 6.57 h 10.25 v -6.57 c 0,-1.280001 -0.16,-2.08 -0.48,-2.4 -0.32,-0.319999 -1.12,-0.639999 -2.4,-0.639999 v -0.650002 H 0 v 0.650002 c -1.28,0 -2.08,0.32 -2.4,0.639999 -0.32,0.32 -0.48,1.119999 -0.48,2.4 v 14.9 c 0,1.29 0.16,2.09 0.48,2.41 0.32,0.32 1.12,0.64 2.4,0.64 z"
       style="fill:#fefefe;fill-opacity:1;fill-rule:nonzero;stroke:none"
       transform="translate(560.65997,546.46002)" />
    <path
       id="path17"
       d="M 0,0 -1.44,5.61 H -19.700001 V 4.97 c 1.290001,0 2.09,-0.32 2.41,-0.64 0.320002,-0.32 0.480002,-1.12 0.480002,-2.41 v -14.9 c 0,-1.28 -0.16,-2.08 -0.480002,-2.4 -0.32,-0.32 -1.119999,-0.64 -2.41,-0.64 v -0.65 H -1.76 v 4.81 h -0.8 c -0.32,-1.6 -0.64,-2.56 -1.28,-2.88 -0.64,-0.48 -1.92,-0.64 -3.85,-0.64 h -4.48 c -0.48,0 -0.8,0 -0.96,0.16 -0.16,0.16 -0.16,0.48 -0.16,0.96 v 7.53 h 5.12 c 1.45,0 2.25,-0.16 2.73,-0.64 0.48,-0.32 0.8,-1.28 0.96,-2.57 h 0.8 v 7.86 h -0.8 c -0.16,-1.44 -0.48,-2.41 -0.96,-2.73 -0.32,-0.32 -1.28,-0.64 -2.73,-0.64 h -5.12 v 8.34 c 0,0.64 0,0.96 0.16,1.12 0.32,0.32 1.44,0.32 3.36,0.32 h 0.96 c 2.41,0 4.01,-0.16 5.13,-0.8 C -2.72,3.05 -1.76,1.76 -0.96,0 Z"
       style="fill:#fefefe;fill-opacity:1;fill-rule:nonzero;stroke:none"
       transform="translate(581.47998,540.84998)" />
    <path
       id="path18"
       d="m 0,0 h -10.09 v -0.64 c 1.44,0 2.4,-0.16 2.72,-0.48 0.32,-0.48 0.48,-1.28 0.48,-2.57 v -14.9 c 0,-1.280001 -0.16,-2.08 -0.48,-2.4 -0.32,-0.319999 -1.28,-0.639999 -2.72,-0.639999 v -0.650002 H 0 v 0.650002 c -1.44,0 -2.4,0.16 -2.72,0.639999 -0.49,0.32 -0.65,1.119999 -0.65,2.4 v 14.9 c 0,1.29 0.16,2.09 0.65,2.41 0.32,0.48 1.28,0.64 2.72,0.64 z"
       style="fill:#fefefe;fill-opacity:1;fill-rule:nonzero;stroke:none"
       transform="translate(592.69,546.46002)" />
    <path
       id="path19"
       d="M 0,0 C -0.96,0.16 -1.6,0.32 -1.92,0.64 -2.24,0.96 -2.4,1.76 -2.4,2.73 v 6.89 c -0.64,0.48 -1.92,1.12 -3.69,1.6 -1.76,0.48 -3.36,0.64 -4.8,0.64 -3.68,0 -6.890001,-1.12 -9.13,-3.53 -1.920001,-1.92 -2.88,-4.64 -2.88,-7.85 0,-3.52 1.119999,-6.25 3.359999,-8.49 2.080002,-2.24 4.810001,-3.37 8.330001,-3.37 1.44,0 3.04,0.16 4.48,0.8 0.64,0.16 1.12,0.33 1.6,0.33 0.33,0 0.65,-0.17 0.81,-0.33 0.32,-0.32 0.48,-0.48 0.64,-0.8 h 0.8 l 0.16,7.05 h -0.8 c -0.64,-1.76 -1.44,-3.04 -2.41,-3.84 -1.28,-1.28 -2.88,-1.92 -4.8,-1.92 -2.4,0 -4.32,0.8 -5.93,2.56 -0.639999,0.8 -1.280001,1.92 -1.76,3.36 -0.32,1.45 -0.639999,3.05 -0.639999,4.65 0,3.05 0.799999,5.61 2.399999,7.37 1.61,1.77 3.85,2.73 6.57,2.73 1.12,0 2.24,-0.16 3.04,-0.64 0.96,-0.32 1.44,-0.8 1.44,-1.45 V 3.05 C -5.61,1.76 -5.93,0.8 -6.41,0.48 -6.73,0.32 -7.53,0.16 -8.65,0 V -0.48 H 0 Z"
       style="fill:#fefefe;fill-opacity:1;fill-rule:nonzero;stroke:none"
       transform="translate(617.19,535.08002)" />
    <path
       id="path20"
       d="m 0,0 h -9.45 v -0.64 c 1.28,0 2.08,-0.32 2.56,-0.64 0.33,-0.32 0.49,-1.28 0.49,-2.73 v -6.57 h -10.25 v 6.89 c 0,1.29 0.16,2.09 0.48,2.41 0.32,0.32 1.12,0.64 2.4,0.64 V 0 h -9.289999 v -0.64 c 1.279998,0 2.079999,-0.32 2.399999,-0.64 0.32,-0.32 0.48,-1.28 0.48,-2.73 v -14.58 c 0,-1.280001 -0.16,-2.08 -0.48,-2.4 -0.32,-0.319999 -1.120001,-0.639999 -2.399999,-0.639999 v -0.650002 H -13.77 v 0.650002 c -1.28,0 -2.08,0.32 -2.4,0.639999 -0.32,0.32 -0.48,1.119999 -0.48,2.4 v 6.57 H -6.4 v -6.57 c 0,-1.280001 -0.16,-2.08 -0.49,-2.4 -0.48,-0.319999 -1.28,-0.639999 -2.56,-0.639999 v -0.650002 H 0 v 0.650002 c -1.28,0 -2.08,0.32 -2.56,0.639999 -0.32,0.32 -0.48,1.119999 -0.48,2.4 v 14.9 c 0,1.29 0.16,2.09 0.64,2.41 0.32,0.32 1.12,0.64 2.4,0.64 z"
       style="fill:#fefefe;fill-opacity:1;fill-rule:nonzero;stroke:none"
       transform="translate(641.36999,546.46002)" />
    <path
       id="path21"
       d="m 0,0 h -0.8 c -0.32,-1.92 -0.96,-3.04 -1.6,-3.68 -0.64,-0.48 -1.92,-0.64 -3.85,-0.64 h -1.76 v 17.14 c 0,1.29 0.16,2.09 0.64,2.41 0.32,0.48 1.28,0.64 2.57,0.64 v 0.64 h -9.77 v -0.64 c 1.28,0 2.24,-0.32 2.56,-0.64 0.32,-0.32 0.64,-1.28 0.64,-2.73 V -4.32 h -1.92 c -1.92,0 -3.21,0.16 -3.849999,0.64 C -17.620001,-3.04 -18.26,-1.92 -18.58,0 h -0.799999 l 0.16,-5.77 H -0.16 Z"
       style="fill:#fefefe;fill-opacity:1;fill-rule:nonzero;stroke:none"
       transform="translate(662.03003,529.95001)" />
    <path
       id="path22"
       d="m 0,0 c 0,1.76 -0.64,3.21 -1.92,4.33 -1.28,1.28 -2.88,1.76 -4.97,1.76 -1.28,0 -2.56,-0.16 -3.84,-0.8 -0.8,-0.16 -1.28,-0.32 -1.6,-0.32 -0.32,0 -0.48,0.16 -0.64,0.32 -0.16,0.16 -0.32,0.48 -0.32,0.8 h -0.8 l -0.96,-7.21 h 0.8 c 0.8,2.08 1.76,3.68 2.88,4.65 1.12,0.96 2.4,1.44 3.84,1.44 1.28,0 2.25,-0.32 3.05,-1.12 0.8,-0.64 1.12,-1.61 1.12,-2.73 0,-0.8 -0.16,-1.44 -0.48,-1.92 -0.8,-1.28 -2.41,-2.56 -4.97,-4.01 -1.92,-0.96 -3.2,-1.92 -4.16,-3.04 -0.8,-0.96 -1.12,-2.25 -1.12,-3.53 0,-1.76 0.64,-3.36 1.92,-4.32 1.12,-0.97 2.4,-1.45 3.84,-1.45 1.12,0 2.41,0.16 3.69,0.64 0.64,0.319999 1.12,0.49 1.44,0.49 0.64,0 0.96,-0.33 1.12,-1.13 h 0.64 l 0.8,7.21 h -0.8 c -0.48,-1.76 -1.28,-3.04 -2.08,-4 -1.28,-1.28 -2.57,-1.92 -4.17,-1.92 -1.12,0 -1.92,0.32 -2.56,0.96 -0.64,0.48 -0.96,1.28 -0.96,2.24 0,0.96 0.32,1.76 1.12,2.56 0.8,0.81 2.08,1.77 3.84,2.73 2.25,1.12 3.85,2.4 4.81,3.52 C -0.48,-2.72 0,-1.44 0,0 Z"
       style="fill:#fefefe;fill-opacity:1;fill-rule:nonzero;stroke:none"
       transform="translate(679.15997,540.84998)" />
    <path
       id="path23"
       d="m 0,0 c 0,1.76 -0.64,3.21 -1.92,4.33 -1.28,1.28 -2.88,1.76 -4.97,1.76 -1.28,0 -2.56,-0.16 -3.84,-0.8 -0.8,-0.16 -1.28,-0.32 -1.6,-0.32 -0.32,0 -0.48,0.16 -0.64,0.32 -0.16,0.16 -0.32,0.48 -0.32,0.8 h -0.8 l -0.96,-7.21 h 0.8 c 0.8,2.08 1.76,3.68 2.88,4.65 1.12,0.96 2.4,1.44 3.84,1.44 1.28,0 2.25,-0.32 3.05,-1.12 0.8,-0.64 1.12,-1.61 1.12,-2.73 0,-0.8 -0.16,-1.44 -0.48,-1.92 -0.8,-1.28 -2.41,-2.56 -4.97,-4.01 -1.92,-0.96 -3.2,-1.92 -4.16,-3.04 -0.8,-0.96 -1.12,-2.25 -1.12,-3.53 0,-1.76 0.64,-3.36 1.92,-4.32 1.12,-0.97 2.4,-1.45 3.84,-1.45 1.12,0 2.41,0.16 3.69,0.64 0.64,0.319999 1.12,0.49 1.44,0.49 0.64,0 0.96,-0.33 1.12,-1.13 h 0.64 l 0.8,7.21 h -0.8 c -0.48,-1.76 -1.28,-3.04 -2.08,-4 -1.28,-1.28 -2.57,-1.92 -4.17,-1.92 -1.12,0 -1.92,0.32 -2.56,0.96 -0.64,0.48 -0.96,1.28 -0.96,2.24 0,0.96 0.32,1.76 1.12,2.56 0.8,0.81 2.08,1.77 3.84,2.73 2.25,1.12 3.85,2.4 4.81,3.52 C -0.48,-2.72 0,-1.44 0,0 Z"
       style="fill:#fefefe;fill-opacity:1;fill-rule:nonzero;stroke:none"
       transform="translate(706.39001,540.84998)" />
    <path
       id="path24"
       d="m 0,0 h -10.09 v -0.64 c 1.44,0 2.24,-0.16 2.72,-0.48 0.32,-0.48 0.48,-1.28 0.48,-2.57 v -14.9 c 0,-1.280001 -0.16,-2.08 -0.48,-2.4 -0.32,-0.319999 -1.28,-0.639999 -2.72,-0.639999 v -0.650002 H 0 v 0.650002 c -1.44,0 -2.4,0.16 -2.72,0.639999 -0.48,0.32 -0.64,1.119999 -0.64,2.4 v 14.9 c 0,1.29 0.16,2.09 0.64,2.41 0.32,0.48 1.28,0.64 2.72,0.64 z"
       style="fill:#fefefe;fill-opacity:1;fill-rule:nonzero;stroke:none"
       transform="translate(719.35998,546.46002)" />
    <path
       id="path25"
       d="M 0,0 C -1.12,0 -1.92,0.32 -2.24,0.48 -2.88,0.96 -3.2,2.24 -3.2,4.32 V 22.110001 H -3.84 L -18.73,3.52 v 13.14 c 0,1.76 0.16,2.889999 0.48,3.530001 C -17.77,20.67 -16.969999,20.99 -15.53,20.99 v 0.639999 h -8.010001 V 20.99 C -22.1,20.99 -21.299999,20.67 -20.82,20.190001 -20.5,19.549999 -20.34,18.42 -20.34,16.66 V 1.76 C -20.98,0.96 -21.459999,0.48 -21.940001,0.32 -22.26,0 -22.9,0 -23.540001,0 V -0.65 H -17.77 L -4.8,15.7 V 4.32 C -4.8,2.24 -5.12,0.96 -5.76,0.48 -6.24,0.16 -7.04,0 -8,0 v -0.65 h 8 z"
       style="fill:#fefefe;fill-opacity:1;fill-rule:nonzero;stroke:none"
       transform="translate(743.85998,524.83002)" />
    <path
       id="path26"
       d="m 0,0 c -0.96,1.45 -2.4,2.57 -4,3.21 -1.6,0.8 -3.37,1.12 -5.29,1.12 -3.2,0 -5.92,-0.96 -8.000001,-3.04 C -19.379999,-0.96 -20.5,-3.68 -20.5,-7.05 c 0,-4 1.440001,-7.05 4.01,-9.29 2.24,-1.770001 4.64,-2.57 7.36,-2.57 1.6,0 3.37,0.16 4.97,0.799999 0.48,0.16 0.96,0.33 1.28,0.33 0.8,0 1.28,-0.489999 1.44,-1.129999 h 0.64 l 0.32,7.54 h -0.8 c -0.32,-0.97 -0.48,-1.93 -0.8,-2.41 -0.32,-0.64 -0.8,-1.28 -1.28,-1.76 -1.44,-1.28 -3.2,-2.080001 -5.13,-2.080001 -2.4,0 -4.32,0.960001 -5.76,2.720001 -1.6,1.92 -2.24,4.33 -2.24,7.37 0,4.01 0.96,6.89 3.04,8.66 1.44,1.12 3.2,1.76 5.28,1.76 2.73,0 5.13,-1.12 7.53,-3.37 z"
       style="fill:#fefefe;fill-opacity:1;fill-rule:nonzero;stroke:none"
       transform="translate(765.15997,542.60999)" />
    <path
       id="path27"
       d="M 0,0 -1.44,5.61 H -19.700001 V 4.97 c 1.120001,0 1.92,-0.32 2.400002,-0.64 0.33,-0.32 0.49,-1.12 0.49,-2.41 v -14.9 c 0,-1.28 -0.16,-2.08 -0.49,-2.4 -0.320002,-0.32 -1.120001,-0.64 -2.400002,-0.64 v -0.65 H -1.76 v 4.81 h -0.8 c -0.32,-1.6 -0.8,-2.56 -1.28,-2.88 -0.64,-0.48 -1.92,-0.64 -3.85,-0.64 h -4.48 c -0.48,0 -0.8,0 -0.96,0.16 -0.16,0.16 -0.16,0.48 -0.16,0.96 v 7.53 h 5.12 c 1.44,0 2.24,-0.16 2.73,-0.64 0.48,-0.32 0.8,-1.28 0.96,-2.57 h 0.8 v 7.86 h -0.8 c -0.16,-1.44 -0.48,-2.41 -0.96,-2.73 -0.32,-0.32 -1.29,-0.64 -2.73,-0.64 h -5.12 v 8.34 c 0,0.64 0,0.96 0.16,1.12 0.32,0.32 1.44,0.32 3.36,0.32 h 0.8 c 2.4,0 4.17,-0.16 5.29,-0.8 C -2.72,3.05 -1.76,1.76 -0.96,0 Z"
       style="fill:#fefefe;fill-opacity:1;fill-rule:nonzero;stroke:none"
       transform="translate(786.46002,540.84998)" />
    <path
       id="path28"
       d="m 0,0 h -9.29 v -0.48 c 1.12,0 1.92,-0.16 2.4,-0.48 0.48,-0.32 0.8,-0.96 0.8,-2.09 v -15.38 c 0,-0.959999 -0.32,-1.600001 -1.12,-1.600001 -0.32,0 -0.8,0.16 -1.44,0.480002 0,0 -0.16,0 -0.16,0 -0.16,0 -0.32,0.16 -0.32,0.16 -0.16,0 -0.32,0.159999 -0.48,0.159999 v -0.479999 L -3.52,-22.76 H -3.2 V -2.4 c 0,0.8 0.16,1.28 0.64,1.6 0.32,0.16 1.28,0.32 2.56,0.32 z"
       style="fill:#fefefe;fill-opacity:1;fill-rule:nonzero;stroke:none"
       transform="translate(808.71997,546.46002)" />
    <path
       id="path29"
       d="m 0,0 c 0,2.24 -0.48,4.49 -1.44,6.41 -0.97,2.08 -2.41,3.68 -4.17,4.97 -1.12,0.8 -2.24,1.44 -3.36,1.76 -1.12,0.48 -2.56,0.8 -4.48,0.96 l -0.17,-0.64 c 2.57,-0.48 4.81,-1.6 6.57,-3.37 1.76,-1.76 3.04,-4 3.68,-6.73 -1.6,1.29 -3.36,1.93 -4.96,1.93 -1.92,0 -3.36,-0.64 -4.48,-1.77 -1.13,-1.28 -1.61,-3.04 -1.61,-4.96 0,-2.41 0.64,-4.33 1.93,-5.77 1.28,-1.45 3.04,-2.25 4.96,-2.25 2.24,0 4,0.8 5.45,2.57 C -0.64,-5.13 0,-2.73 0,0 Z M -3.21,1.28 V 0 c 0,-5.61 -1.6,-8.5 -4.48,-8.5 -0.96,0 -1.76,0.33 -2.4,0.97 -0.32,0.48 -0.64,1.12 -0.96,2.08 -0.16,0.96 -0.32,1.76 -0.32,2.72 0,2.09 0.32,3.69 1.12,4.81 0.8,1.28 1.76,1.76 3.04,1.76 1.28,0 2.4,-0.32 3.36,-1.28 0.48,-0.16 0.64,-0.64 0.64,-1.28 z"
       style="fill:#fefefe;fill-opacity:1;fill-rule:nonzero;stroke:none"
       transform="translate(827.78003,533.15997)" />
    <path
       id="path30"
       d="m 0,0 c 0,2.24 -0.48,4.49 -1.6,6.41 -0.96,2.08 -2.24,3.68 -4,4.97 -1.12,0.8 -2.41,1.44 -3.53,1.76 -1.12,0.48 -2.56,0.8 -4.48,0.96 v -0.64 c 2.56,-0.48 4.64,-1.6 6.41,-3.37 1.92,-1.76 3.04,-4 3.84,-6.73 -1.76,1.29 -3.36,1.93 -5.13,1.93 -1.76,0 -3.36,-0.64 -4.48,-1.77 -0.96,-1.28 -1.6,-3.04 -1.6,-4.96 0,-2.41 0.64,-4.33 2.08,-5.77 1.28,-1.45 2.88,-2.25 4.97,-2.25 2.24,0 4,0.8 5.28,2.57 C -0.8,-5.13 0,-2.73 0,0 Z M -3.36,1.28 V 0 c 0,-5.61 -1.44,-8.5 -4.48,-8.5 -0.97,0 -1.77,0.33 -2.41,0.97 -0.32,0.48 -0.64,1.12 -0.8,2.08 -0.32,0.96 -0.48,1.76 -0.48,2.72 0,2.09 0.48,3.69 1.28,4.81 0.64,1.28 1.76,1.76 3.05,1.76 1.28,0 2.4,-0.32 3.36,-1.28 0.32,-0.16 0.48,-0.64 0.48,-1.28 z"
       style="fill:#fefefe;fill-opacity:1;fill-rule:nonzero;stroke:none"
       transform="translate(844.75,533.15997)" />
    <path
       id="path31"
       d="M 0,0 H -3.53 V 5.61 H -6.09 V 0 h -9.45 v -2.08 l 10.57,-15.07 h 1.44 V -2.08 H 0 Z m -6.09,-2.08 v -11.7 l -8.17,11.7 z"
       style="fill:#fefefe;fill-opacity:1;fill-rule:nonzero;stroke:none"
       transform="translate(862.04999,540.84998)" />
    <path
       id="path32"
       d="m 0,0 c 4.64,-1.12 9.93,-1.76 15.37,-2.08 5.61,-0.49 11.05,-0.65 16.500001,-0.65 5.76,0 11.530001,0.48 17.609999,1.61 5.93,1.12 11.369998,3.2 16.180004,6.25 4.959999,3.04 8.969993,7.21 12.009994,12.499999 3.200005,5.280001 4.64,12.020001 4.64,20.190001 0,8.010002 -1.439995,14.900001 -4.32,20.349998 -2.879997,5.610001 -6.729996,10.099999 -11.529999,13.620003 -4.809997,3.370003 -10.25,5.93 -16.34,7.370003 -6.239998,1.449997 -12.489998,2.25 -19.049999,2.25 -0.64,0 -1.600001,0 -3.209999,0 -1.440001,0 -2.880001,0 -4.480002,0 C 21.780001,81.25 20.34,81.25 18.74,81.089996 17.299999,80.93 16.17,80.769997 15.53,80.610001 V 130.92999 H 0 Z m 32.189999,10.9 c -3.199999,0 -6.409998,0 -9.449999,0.16 -3.039999,0 -5.440001,0.32 -7.21,0.96 v 54.640004 c 0.64,0.319999 1.769999,0.489998 3.05,0.489998 1.44,0.159996 2.879999,0.159996 4.32,0.159996 1.6,0.160003 3.040001,0.160003 4.319999,0.160003 1.450001,0 2.41,0 3.050001,0 4.32,0 8.48,-0.489998 12.810002,-1.290001 4.16,-0.800003 7.849998,-2.240001 11.369999,-4.319999 3.36,-2.25 6.079998,-5.290001 8.169998,-9.14 C 64.699997,48.880001 65.82,43.91 65.82,37.82 65.82,32.689999 64.860001,28.360001 62.779999,24.84 60.849998,21.469999 58.290001,18.75 55.09,16.66 51.889999,14.58 48.360001,12.98 44.200001,12.18 c -4,-0.8 -8.010002,-1.28 -12.010002,-1.28 z"
       style="fill:#fefefe;fill-opacity:1;fill-rule:nonzero;stroke:none"
       transform="translate(157.25999,281.72)" />
    <path
       id="path33"
       d="m 0,0 c -3.85,2.89 -8.49,4.97 -14.42,6.09 -5.76,1.12 -11.85,1.6 -18.410002,1.6 -7.849998,0 -15.379997,-1.28 -22.259998,-4 -6.89,-2.57 -12.98,-6.73 -18.100002,-12.34 -5.119996,-5.45 -9.290001,-12.5 -12.329995,-21.159999 -2.880005,-8.65 -4.490005,-18.910002 -4.490005,-30.760001 0,-12.340004 1.770004,-22.760002 4.970001,-31.410003 C -81.68,-100.64 -77.190002,-107.69 -71.75,-113.14 c 5.449997,-5.45 11.529999,-9.45 18.419998,-12.02 6.720001,-2.4 13.610001,-3.68 20.660004,-3.68 7.519998,0 13.769998,0.48 18.569998,1.28 4.81,0.8 8.81,1.76 12.17,3.2 l -3.68,13.79 c -6.09,-2.89 -14.57,-4.33 -25.939999,-4.33 -5.130001,0 -10.09,0.96 -15.220001,2.88 -4.96,1.77 -9.450001,4.97 -13.450001,9.14 -4,4.329997 -7.209999,9.930003 -9.610001,16.829997 -2.400001,6.889999 -3.519996,15.380005 -3.519996,25.480003 0,8.970002 1.119995,16.98 3.36,23.869999 2.239998,6.730002 5.449997,12.34 9.289997,16.990002 4,4.489999 8.650002,7.849999 13.930001,10.099999 5.45,2.24 11.209999,3.36 17.460001,3.36 5.76,0 10.729999,-0.48 14.889999,-1.6 4.17,-1.12 7.69,-2.56 10.57,-4.33 z"
       style="fill:#fefefe;fill-opacity:1;fill-rule:nonzero;stroke:none"
       transform="translate(567.22998,378.35001)" />
    <path
       id="path34"
       d="M 0,0 H 71.900002 V 13.94 H 15.53 V 57.049999 H 67.099998 V 71.160004 H 15.53 V 118.11 h 57.169997 v 13.94 H 0 Z"
       style="fill:#fefefe;fill-opacity:1;fill-rule:nonzero;stroke:none"
       transform="translate(651.62,309.44)" />
    <path
       id="path35"
       d="M 78.239998,423.20001 H 311.67999 v 20 H 78.239998 Z M 402.23999,220.64 h 233.44 v 20 h -233.44 z M 222.24,475.20001 h 260.15999 v 20 H 222.24 Z m 331.99999,-20.16 h 231.52002 v 20.16 H 554.23999 Z m -152,-56.80002 h 233.44 v 20 h -233.44 z M 606.08002,272.16 h 184 v 20 h -184 z"
       style="fill:#ffffff;fill-opacity:1;fill-rule:evenodd;stroke:none" />
    <path
       id="path36"
       d="m 748,254.24 h 20 v 231.99999 h -20 z m -323.84,-52.8 h 20.16001 V 433.28 H 424.16 Z m 171.99997,1.92 h 20 v 231.68001 h -20 z M 270.72,230.56 h 20 v 231.83999 h -20 z m -169.28,-0.32 h 20 v 231.99999 h -20 z m 347.51999,177.92 h 20 v 107.99997 h -20 z M 247.2,427.35999 h 20.15999 v 87.35998 H 247.2 Z M 571.67999,401.44 h 20 v 87.35999 h -20 z"
       style="fill:#ffffff;fill-opacity:1;fill-rule:evenodd;stroke:none" />
    <path
       id="path37"
       d="m 274.23999,294.72 h 160 v 20 h -160 z"
       style="fill:#ffffff;fill-opacity:1;fill-rule:nonzero;stroke:none" />
  </g>
</svg>
