<svg xmlns="http://www.w3.org/2000/svg" xmlns:xlink="http://www.w3.org/1999/xlink" width="508" zoomAndPan="magnify" viewBox="0 0 381 179.999997" height="240" preserveAspectRatio="xMidYMid meet" version="1.2"><defs/><g id="1297c31385"><path style="fill:none;stroke-width:9;stroke-linecap:round;stroke-linejoin:miter;stroke:#ffffff;stroke-opacity:1;stroke-miterlimit:4;" d="M 4.501838 4.501066 L 131.917784 4.501066 " transform="matrix(0,0.747766,-0.747766,0,14.275901,33.26649)"/><g style="fill:#ffffff;fill-opacity:1;"><g transform="translate(21.729335, 118.267149)"><path style="stroke:none" d="M 30.078125 -59.109375 C 34.148438 -59.109375 37.640625 -58.378906 40.546875 -56.921875 C 43.460938 -55.472656 45.679688 -53.394531 47.203125 -50.6875 C 48.734375 -47.976562 49.5 -44.789062 49.5 -41.125 C 49.5 -37.457031 48.734375 -34.273438 47.203125 -31.578125 C 45.679688 -28.878906 43.460938 -26.796875 40.546875 -25.328125 C 37.640625 -23.859375 34.148438 -23.125 30.078125 -23.125 L 15.890625 -23.125 L 15.890625 0 L 8.9375 0 L 8.9375 -59.109375 Z M 29.875 -29.078125 C 38.101562 -29.078125 42.21875 -33.09375 42.21875 -41.125 C 42.21875 -49.1875 38.101562 -53.21875 29.875 -53.21875 L 15.890625 -53.21875 L 15.890625 -29.078125 Z M 29.875 -29.078125 "/></g></g><g style="fill:#ffffff;fill-opacity:1;"><g transform="translate(87.451815, 136.493581)"><path style="stroke:none" d="M 50.796875 0 L 43.703125 0 L 38.484375 -15.484375 L 14.4375 -15.484375 L 9.1875 0 L 2.234375 0 L 21.921875 -56.4375 L 31.109375 -56.4375 Z M 25.984375 -49.609375 L 16.296875 -21.046875 L 36.59375 -21.046875 L 26.953125 -49.609375 Z M 25.984375 -49.609375 "/></g></g><g style="fill:#ffffff;fill-opacity:1;"><g transform="translate(149.548309, 98.279556)"><path style="stroke:none" d="M 32.09375 0.828125 C 27.007812 0.828125 22.476562 -0.332031 18.5 -2.65625 C 14.53125 -4.988281 11.421875 -8.398438 9.171875 -12.890625 C 6.921875 -17.378906 5.796875 -22.757812 5.796875 -29.03125 C 5.796875 -35.3125 6.921875 -40.691406 9.171875 -45.171875 C 11.421875 -49.660156 14.53125 -53.070312 18.5 -55.40625 C 22.476562 -57.738281 27.007812 -58.90625 32.09375 -58.90625 C 37.519531 -58.90625 42.03125 -57.878906 45.625 -55.828125 C 49.226562 -53.773438 51.828125 -50.679688 53.421875 -46.546875 L 49.046875 -43.65625 L 48.0625 -43.65625 C 46.46875 -46.957031 44.398438 -49.300781 41.859375 -50.6875 C 39.316406 -52.082031 36.0625 -52.78125 32.09375 -52.78125 C 28.4375 -52.78125 25.191406 -51.96875 22.359375 -50.34375 C 19.523438 -48.71875 17.273438 -46.132812 15.609375 -42.59375 C 13.941406 -39.0625 13.109375 -34.539062 13.109375 -29.03125 C 13.109375 -23.519531 13.941406 -19.003906 15.609375 -15.484375 C 17.273438 -11.960938 19.523438 -9.390625 22.359375 -7.765625 C 25.191406 -6.140625 28.4375 -5.328125 32.09375 -5.328125 C 36.300781 -5.328125 39.742188 -6.269531 42.421875 -8.15625 C 45.097656 -10.050781 47.082031 -13.117188 48.375 -17.359375 L 49.375 -17.359375 L 53.9375 -15.09375 C 52.5625 -9.957031 50.015625 -6.019531 46.296875 -3.28125 C 42.578125 -0.539062 37.84375 0.828125 32.09375 0.828125 Z M 32.09375 0.828125 "/></g></g><g style="fill:#ffffff;fill-opacity:1;"><g transform="translate(225.846203, 123.403305)"><path style="stroke:none" d="M 15.609375 -27.359375 L 15.609375 -5.640625 L 45.203125 -5.640625 L 45.203125 0 L 8.78125 0 L 8.78125 -58.0625 L 44.5625 -58.0625 L 44.5625 -52.421875 L 15.609375 -52.421875 L 15.609375 -33 L 41.15625 -33 L 41.15625 -27.359375 Z M 15.609375 -27.359375 "/></g></g><path style="fill:none;stroke-width:9;stroke-linecap:round;stroke-linejoin:miter;stroke:#ffffff;stroke-opacity:1;stroke-miterlimit:4;" d="M 4.501529 4.501872 L 120.696398 4.501872 " transform="matrix(0.748877,0,0,0.748877,0.00000359833,41.640372)"/><path style="fill:none;stroke-width:9;stroke-linecap:round;stroke-linejoin:miter;stroke:#ffffff;stroke-opacity:1;stroke-miterlimit:4;" d="M 4.500908 4.497741 L 124.696192 4.497741 " transform="matrix(0.748911,0,0,0.748911,0.679999,121.862059)"/><path style="fill:none;stroke-width:9;stroke-linecap:round;stroke-linejoin:miter;stroke:#ffffff;stroke-opacity:1;stroke-miterlimit:4;" d="M 4.49767 4.502108 L 127.232052 4.498713 " transform="matrix(-0.0000207489,0.75,-0.75,-0.0000207489,144.946987,19.896373)"/><path style="fill:none;stroke-width:9;stroke-linecap:round;stroke-linejoin:miter;stroke:#ffffff;stroke-opacity:1;stroke-miterlimit:4;" d="M 4.498307 4.498398 L 127.482689 4.498398 " transform="matrix(0,0.75,-0.75,0,219.475361,19.708302)"/><path style="fill:none;stroke-width:9;stroke-linecap:round;stroke-linejoin:miter;stroke:#ffffff;stroke-opacity:1;stroke-miterlimit:4;" d="M 4.499791 4.500804 L 122.49459 4.500804 " transform="matrix(0.75,0,0,0.75,131.015782,28.503303)"/><path style="fill:none;stroke-width:9;stroke-linecap:round;stroke-linejoin:miter;stroke:#ffffff;stroke-opacity:1;stroke-miterlimit:4;" d="M 4.499017 4.502333 L 122.467774 4.502333 " transform="matrix(0.75,0,0,0.75,131.035894,107.037313)"/><path style="fill:none;stroke-width:9;stroke-linecap:round;stroke-linejoin:miter;stroke:#ffffff;stroke-opacity:1;stroke-miterlimit:4;" d="M 4.49766 4.501242 L 101.814976 4.501242 " transform="matrix(0.747795,0,0,0.747795,216.660108,50.298055)"/><path style="fill:none;stroke-width:7;stroke-linecap:round;stroke-linejoin:miter;stroke:#ffffff;stroke-opacity:1;stroke-miterlimit:4;" d="M 3.50237 3.50108 L 44.169039 3.50108 " transform="matrix(0,-0.75,0.75,0,198.788252,142.829903)"/><path style="fill:none;stroke-width:9;stroke-linecap:round;stroke-linejoin:miter;stroke:#ffffff;stroke-opacity:1;stroke-miterlimit:4;" d="M 4.502357 4.498712 L 125.926387 4.498712 " transform="matrix(0,0.747574,-0.747574,0,287.718589,45.016968)"/><path style="fill:none;stroke-width:9;stroke-linecap:round;stroke-linejoin:miter;stroke:#ffffff;stroke-opacity:1;stroke-miterlimit:4;" d="M 4.498707 4.498194 L 71.969598 4.498194 " transform="matrix(0.745402,0.000000000000000554,-0.000000000000000554,0.745402,84.224778,68.904848)"/><path style="fill:none;stroke-width:9;stroke-linecap:round;stroke-linejoin:miter;stroke:#ffffff;stroke-opacity:1;stroke-miterlimit:4;" d="M 4.500517 4.501307 L 118.193232 4.501307 " transform="matrix(0.75,0,0,0.75,66.007425,139.459957)"/><path style="fill:none;stroke-width:9;stroke-linecap:round;stroke-linejoin:miter;stroke:#ffffff;stroke-opacity:1;stroke-miterlimit:4;" d="M 4.499651 4.502092 L 136.559175 4.502092 " transform="matrix(0.749751,0,0,0.749751,190.606852,131.448772)"/><path style="fill:none;stroke-width:9;stroke-linecap:round;stroke-linejoin:miter;stroke:#ffffff;stroke-opacity:1;stroke-miterlimit:4;" d="M 4.500573 4.498733 L 54.36516 4.498733 " transform="matrix(0,-0.75,0.75,0,146.559544,154.559023)"/><path style="fill:none;stroke-width:9;stroke-linecap:round;stroke-linejoin:miter;stroke:#ffffff;stroke-opacity:1;stroke-miterlimit:4;" d="M 4.500693 4.502486 L 34.581666 4.502486 " transform="matrix(0,-0.748501,0.748501,0,72.059574,154.56799)"/><g style="fill:#ffffff;fill-opacity:1;"><g transform="translate(80.624044, 166.245465)"><path style="stroke:none" d="M 4.09375 -11.421875 C 4.46875 -11.421875 4.789062 -11.382812 5.0625 -11.3125 C 5.332031 -11.238281 5.609375 -11.144531 5.890625 -11.03125 C 6.023438 -10.976562 6.160156 -10.925781 6.296875 -10.875 C 6.429688 -10.832031 6.554688 -10.8125 6.671875 -10.8125 C 6.929688 -10.8125 7.132812 -11.015625 7.28125 -11.421875 L 7.59375 -11.421875 L 7.59375 -7.703125 L 7.28125 -7.703125 C 7.226562 -8.285156 7.054688 -8.8125 6.765625 -9.28125 C 6.484375 -9.75 6.128906 -10.117188 5.703125 -10.390625 C 5.273438 -10.660156 4.816406 -10.796875 4.328125 -10.796875 C 3.796875 -10.796875 3.335938 -10.632812 2.953125 -10.3125 C 2.578125 -10 2.390625 -9.613281 2.390625 -9.15625 C 2.390625 -8.625 2.648438 -8.164062 3.171875 -7.78125 C 3.535156 -7.507812 4.050781 -7.179688 4.71875 -6.796875 C 5.300781 -6.441406 5.785156 -6.132812 6.171875 -5.875 C 6.566406 -5.613281 6.929688 -5.332031 7.265625 -5.03125 C 7.566406 -4.738281 7.804688 -4.398438 7.984375 -4.015625 C 8.171875 -3.640625 8.265625 -3.25 8.265625 -2.84375 C 8.265625 -2.289062 8.113281 -1.773438 7.8125 -1.296875 C 7.507812 -0.816406 7.09375 -0.4375 6.5625 -0.15625 C 6.039062 0.113281 5.460938 0.25 4.828125 0.25 C 4.429688 0.25 4.078125 0.210938 3.765625 0.140625 C 3.453125 0.0664062 3.128906 -0.0234375 2.796875 -0.140625 C 2.429688 -0.273438 2.15625 -0.34375 1.96875 -0.34375 C 1.675781 -0.34375 1.453125 -0.144531 1.296875 0.25 L 1.015625 0.25 L 1.015625 -3.515625 L 1.296875 -3.515625 C 1.484375 -2.546875 1.847656 -1.78125 2.390625 -1.21875 C 2.941406 -0.65625 3.648438 -0.375 4.515625 -0.375 C 5.140625 -0.375 5.648438 -0.539062 6.046875 -0.875 C 6.453125 -1.207031 6.65625 -1.628906 6.65625 -2.140625 C 6.65625 -2.398438 6.601562 -2.640625 6.5 -2.859375 C 6.40625 -3.078125 6.242188 -3.3125 6.015625 -3.5625 C 5.804688 -3.78125 5.515625 -4.015625 5.140625 -4.265625 C 4.765625 -4.523438 4.257812 -4.84375 3.625 -5.21875 C 3.09375 -5.539062 2.6875 -5.796875 2.40625 -5.984375 C 2.125 -6.179688 1.910156 -6.347656 1.765625 -6.484375 C 1.210938 -7.046875 0.9375 -7.722656 0.9375 -8.515625 C 0.9375 -9.066406 1.070312 -9.5625 1.34375 -10 C 1.625 -10.4375 2.003906 -10.78125 2.484375 -11.03125 C 2.960938 -11.289062 3.5 -11.421875 4.09375 -11.421875 Z M 4.09375 -11.421875 "/></g></g><g style="fill:#ffffff;fill-opacity:1;"><g transform="translate(89.5983, 166.245465)"><path style="stroke:none" d="M 6.78125 -11.421875 C 7.320312 -11.421875 7.789062 -11.367188 8.1875 -11.265625 C 8.582031 -11.160156 8.96875 -11.023438 9.34375 -10.859375 C 9.644531 -10.742188 9.835938 -10.6875 9.921875 -10.6875 C 10.054688 -10.6875 10.179688 -10.753906 10.296875 -10.890625 C 10.410156 -11.023438 10.492188 -11.203125 10.546875 -11.421875 L 10.8125 -11.421875 L 11.09375 -7.640625 L 10.8125 -7.640625 C 10.71875 -8.304688 10.476562 -8.875 10.09375 -9.34375 C 9.707031 -9.820312 9.234375 -10.179688 8.671875 -10.421875 C 8.117188 -10.671875 7.53125 -10.796875 6.90625 -10.796875 C 5.644531 -10.796875 4.628906 -10.34375 3.859375 -9.4375 C 3.097656 -8.53125 2.71875 -7.160156 2.71875 -5.328125 C 2.71875 -4.242188 2.925781 -3.335938 3.34375 -2.609375 C 3.757812 -1.878906 4.304688 -1.335938 4.984375 -0.984375 C 5.660156 -0.628906 6.382812 -0.453125 7.15625 -0.453125 C 7.945312 -0.453125 8.695312 -0.648438 9.40625 -1.046875 C 10.125 -1.453125 10.6875 -1.992188 11.09375 -2.671875 L 11.34375 -2.5 C 10.269531 -0.664062 8.6875 0.25 6.59375 0.25 C 5.507812 0.25 4.515625 0 3.609375 -0.5 C 2.710938 -1.007812 2 -1.695312 1.46875 -2.5625 C 0.945312 -3.4375 0.6875 -4.394531 0.6875 -5.4375 C 0.6875 -6.53125 0.957031 -7.535156 1.5 -8.453125 C 2.039062 -9.367188 2.773438 -10.09375 3.703125 -10.625 C 4.640625 -11.15625 5.664062 -11.421875 6.78125 -11.421875 Z M 6.78125 -11.421875 "/></g></g><g style="fill:#ffffff;fill-opacity:1;"><g transform="translate(101.287591, 166.245465)"><path style="stroke:none" d="M 1.875 -2.15625 L 6.03125 -11.65625 L 6.328125 -11.65625 L 10.71875 -1.546875 C 10.882812 -1.179688 11.039062 -0.90625 11.1875 -0.71875 C 11.332031 -0.539062 11.484375 -0.425781 11.640625 -0.375 C 11.804688 -0.320312 12.03125 -0.296875 12.3125 -0.296875 L 12.3125 0 L 7.71875 0 L 7.71875 -0.296875 C 8.113281 -0.296875 8.40625 -0.363281 8.59375 -0.5 C 8.789062 -0.644531 8.890625 -0.835938 8.890625 -1.078125 C 8.890625 -1.273438 8.820312 -1.53125 8.6875 -1.84375 L 7.84375 -3.75 L 3.328125 -3.75 L 2.40625 -1.625 C 2.300781 -1.40625 2.25 -1.210938 2.25 -1.046875 C 2.25 -0.546875 2.648438 -0.296875 3.453125 -0.296875 L 3.453125 0 L 0.234375 0 L 0.234375 -0.296875 C 0.503906 -0.328125 0.722656 -0.40625 0.890625 -0.53125 C 1.054688 -0.65625 1.207031 -0.835938 1.34375 -1.078125 C 1.476562 -1.316406 1.65625 -1.675781 1.875 -2.15625 Z M 7.578125 -4.375 L 5.59375 -8.90625 L 3.609375 -4.375 Z M 7.578125 -4.375 "/></g></g><g style="fill:#ffffff;fill-opacity:1;"><g transform="translate(113.822285, 166.245465)"><path style="stroke:none" d="M 5.6875 -10.875 C 5.125 -10.875 4.71875 -10.785156 4.46875 -10.609375 C 4.226562 -10.429688 4.109375 -10.070312 4.109375 -9.53125 L 4.109375 -1.359375 C 4.109375 -1.140625 4.15625 -0.976562 4.25 -0.875 C 4.34375 -0.78125 4.5 -0.734375 4.71875 -0.734375 L 7.140625 -0.734375 C 7.703125 -0.734375 8.164062 -0.804688 8.53125 -0.953125 C 8.90625 -1.097656 9.222656 -1.332031 9.484375 -1.65625 C 9.753906 -1.988281 10.015625 -2.460938 10.265625 -3.078125 L 10.546875 -2.984375 L 9.59375 0 L 0.6875 0 L 0.6875 -0.296875 L 0.796875 -0.296875 C 1.347656 -0.296875 1.742188 -0.390625 1.984375 -0.578125 C 2.234375 -0.773438 2.359375 -1.128906 2.359375 -1.640625 L 2.359375 -9.546875 C 2.359375 -10.046875 2.226562 -10.390625 1.96875 -10.578125 C 1.71875 -10.773438 1.320312 -10.875 0.78125 -10.875 L 0.6875 -10.875 L 0.6875 -11.171875 L 5.6875 -11.171875 Z M 5.6875 -10.875 "/></g></g><g style="fill:#ffffff;fill-opacity:1;"><g transform="translate(124.666172, 166.245465)"><path style="stroke:none" d="M 5.703125 -10.875 C 5.253906 -10.875 4.910156 -10.832031 4.671875 -10.75 C 4.429688 -10.675781 4.257812 -10.53125 4.15625 -10.3125 C 4.0625 -10.101562 4.015625 -9.800781 4.015625 -9.40625 L 4.015625 -1.625 C 4.015625 -1.257812 4.070312 -0.976562 4.1875 -0.78125 C 4.3125 -0.59375 4.492188 -0.46875 4.734375 -0.40625 C 4.972656 -0.34375 5.296875 -0.304688 5.703125 -0.296875 L 5.703125 0 L 0.5625 0 L 0.5625 -0.296875 C 1 -0.304688 1.332031 -0.34375 1.5625 -0.40625 C 1.800781 -0.46875 1.976562 -0.59375 2.09375 -0.78125 C 2.207031 -0.976562 2.265625 -1.265625 2.265625 -1.640625 L 2.265625 -9.40625 C 2.265625 -9.800781 2.210938 -10.101562 2.109375 -10.3125 C 2.003906 -10.519531 1.832031 -10.660156 1.59375 -10.734375 C 1.363281 -10.816406 1.019531 -10.863281 0.5625 -10.875 L 0.5625 -11.171875 L 5.703125 -11.171875 Z M 5.703125 -10.875 "/></g></g><g style="fill:#ffffff;fill-opacity:1;"><g transform="translate(130.925394, 166.245465)"><path style="stroke:none" d="M 10.6875 -2.921875 L 10.6875 -9.625 C 10.6875 -10.113281 10.597656 -10.441406 10.421875 -10.609375 C 10.253906 -10.773438 9.9375 -10.863281 9.46875 -10.875 L 9.0625 -10.875 L 9.0625 -11.171875 L 13.171875 -11.171875 L 13.171875 -10.875 L 12.828125 -10.875 C 12.398438 -10.875 12.09375 -10.847656 11.90625 -10.796875 C 11.71875 -10.742188 11.585938 -10.617188 11.515625 -10.421875 C 11.453125 -10.222656 11.421875 -9.894531 11.421875 -9.4375 L 11.421875 0.125 L 11.1875 0.125 L 3.203125 -8.859375 L 3.203125 -1.890625 C 3.203125 -1.273438 3.320312 -0.851562 3.5625 -0.625 C 3.8125 -0.40625 4.234375 -0.296875 4.828125 -0.296875 L 4.828125 0 L 0.796875 0 L 0.796875 -0.296875 L 0.890625 -0.296875 C 1.410156 -0.296875 1.804688 -0.390625 2.078125 -0.578125 C 2.347656 -0.765625 2.484375 -1.113281 2.484375 -1.625 L 2.484375 -9.578125 C 2.203125 -10.054688 1.882812 -10.390625 1.53125 -10.578125 C 1.175781 -10.773438 0.738281 -10.875 0.21875 -10.875 L 0.21875 -11.171875 L 3.46875 -11.171875 Z M 10.6875 -2.921875 "/></g></g><g style="fill:#ffffff;fill-opacity:1;"><g transform="translate(144.305475, 166.245465)"><path style="stroke:none" d="M 7.125 -11.421875 C 7.707031 -11.421875 8.21875 -11.363281 8.65625 -11.25 C 9.09375 -11.144531 9.535156 -11.003906 9.984375 -10.828125 C 10.296875 -10.710938 10.488281 -10.65625 10.5625 -10.65625 C 10.6875 -10.65625 10.796875 -10.71875 10.890625 -10.84375 C 10.992188 -10.976562 11.054688 -11.171875 11.078125 -11.421875 L 11.390625 -11.421875 L 11.671875 -7.859375 L 11.390625 -7.859375 C 11.234375 -8.472656 10.9375 -9.003906 10.5 -9.453125 C 10.070312 -9.898438 9.570312 -10.234375 9 -10.453125 C 8.425781 -10.679688 7.835938 -10.796875 7.234375 -10.796875 C 6.421875 -10.796875 5.671875 -10.59375 4.984375 -10.1875 C 4.304688 -9.78125 3.757812 -9.179688 3.34375 -8.390625 C 2.9375 -7.609375 2.734375 -6.671875 2.734375 -5.578125 C 2.734375 -4.566406 2.945312 -3.664062 3.375 -2.875 C 3.800781 -2.082031 4.378906 -1.46875 5.109375 -1.03125 C 5.847656 -0.59375 6.644531 -0.375 7.5 -0.375 C 7.957031 -0.375 8.378906 -0.4375 8.765625 -0.5625 C 9.160156 -0.6875 9.570312 -0.894531 10 -1.1875 L 10 -4.40625 C 10 -4.882812 9.875 -5.21875 9.625 -5.40625 C 9.375 -5.59375 8.976562 -5.691406 8.4375 -5.703125 L 8.4375 -6 L 13.234375 -6 L 13.234375 -5.703125 C 12.835938 -5.671875 12.535156 -5.613281 12.328125 -5.53125 C 12.128906 -5.445312 11.984375 -5.296875 11.890625 -5.078125 C 11.804688 -4.859375 11.765625 -4.53125 11.765625 -4.09375 L 11.765625 -0.921875 C 10.972656 -0.492188 10.265625 -0.191406 9.640625 -0.015625 C 9.023438 0.160156 8.269531 0.25 7.375 0.25 C 5.957031 0.25 4.742188 -0.0195312 3.734375 -0.5625 C 2.734375 -1.101562 1.976562 -1.796875 1.46875 -2.640625 C 0.957031 -3.484375 0.703125 -4.347656 0.703125 -5.234375 C 0.703125 -6.359375 0.984375 -7.394531 1.546875 -8.34375 C 2.117188 -9.289062 2.894531 -10.039062 3.875 -10.59375 C 4.851562 -11.144531 5.9375 -11.421875 7.125 -11.421875 Z M 7.125 -11.421875 "/></g></g><g style="fill:#ffffff;fill-opacity:1;"><g transform="translate(157.685555, 166.245465)"><path style="stroke:none" d=""/></g></g><g style="fill:#ffffff;fill-opacity:1;"><g transform="translate(161.749982, 166.245465)"><path style="stroke:none" d="M 10.6875 -2.921875 L 10.6875 -9.625 C 10.6875 -10.113281 10.597656 -10.441406 10.421875 -10.609375 C 10.253906 -10.773438 9.9375 -10.863281 9.46875 -10.875 L 9.0625 -10.875 L 9.0625 -11.171875 L 13.171875 -11.171875 L 13.171875 -10.875 L 12.828125 -10.875 C 12.398438 -10.875 12.09375 -10.847656 11.90625 -10.796875 C 11.71875 -10.742188 11.585938 -10.617188 11.515625 -10.421875 C 11.453125 -10.222656 11.421875 -9.894531 11.421875 -9.4375 L 11.421875 0.125 L 11.1875 0.125 L 3.203125 -8.859375 L 3.203125 -1.890625 C 3.203125 -1.273438 3.320312 -0.851562 3.5625 -0.625 C 3.8125 -0.40625 4.234375 -0.296875 4.828125 -0.296875 L 4.828125 0 L 0.796875 0 L 0.796875 -0.296875 L 0.890625 -0.296875 C 1.410156 -0.296875 1.804688 -0.390625 2.078125 -0.578125 C 2.347656 -0.765625 2.484375 -1.113281 2.484375 -1.625 L 2.484375 -9.578125 C 2.203125 -10.054688 1.882812 -10.390625 1.53125 -10.578125 C 1.175781 -10.773438 0.738281 -10.875 0.21875 -10.875 L 0.21875 -11.171875 L 3.46875 -11.171875 Z M 10.6875 -2.921875 "/></g></g><g style="fill:#ffffff;fill-opacity:1;"><g transform="translate(175.130062, 166.245465)"><path style="stroke:none" d="M 9.578125 -8.703125 L 9.296875 -8.703125 C 9.191406 -9.316406 8.992188 -9.773438 8.703125 -10.078125 C 8.410156 -10.378906 8.003906 -10.53125 7.484375 -10.53125 L 3.953125 -10.53125 L 3.953125 -6.21875 L 6.84375 -6.21875 C 7.363281 -6.21875 7.734375 -6.347656 7.953125 -6.609375 C 8.171875 -6.867188 8.285156 -7.28125 8.296875 -7.84375 L 8.59375 -7.84375 L 8.59375 -3.90625 L 8.296875 -3.90625 C 8.296875 -4.46875 8.1875 -4.882812 7.96875 -5.15625 C 7.75 -5.425781 7.363281 -5.5625 6.8125 -5.5625 L 3.953125 -5.5625 L 3.953125 -1.484375 C 3.953125 -0.929688 4.171875 -0.65625 4.609375 -0.65625 L 7.46875 -0.65625 C 8.0625 -0.65625 8.585938 -0.832031 9.046875 -1.1875 C 9.503906 -1.550781 9.875 -2.082031 10.15625 -2.78125 L 10.484375 -2.78125 L 9.578125 0 L 0.578125 0 L 0.578125 -0.296875 C 1.148438 -0.296875 1.5625 -0.390625 1.8125 -0.578125 C 2.070312 -0.765625 2.203125 -1.117188 2.203125 -1.640625 L 2.203125 -9.640625 C 2.203125 -10.078125 2.070312 -10.390625 1.8125 -10.578125 C 1.5625 -10.773438 1.148438 -10.875 0.578125 -10.875 L 0.578125 -11.171875 L 9.453125 -11.171875 Z M 9.578125 -8.703125 "/></g></g><g style="fill:#ffffff;fill-opacity:1;"><g transform="translate(185.973949, 166.245465)"><path style="stroke:none" d="M 4.390625 -10.875 C 3.734375 -10.851562 3.40625 -10.617188 3.40625 -10.171875 C 3.40625 -10.015625 3.429688 -9.847656 3.484375 -9.671875 C 3.535156 -9.503906 3.660156 -9.148438 3.859375 -8.609375 L 5.890625 -2.9375 L 5.921875 -2.9375 L 7.703125 -7.921875 L 7.078125 -9.578125 C 6.941406 -9.910156 6.820312 -10.160156 6.71875 -10.328125 C 6.625 -10.503906 6.488281 -10.632812 6.3125 -10.71875 C 6.132812 -10.800781 5.890625 -10.851562 5.578125 -10.875 L 5.578125 -11.171875 L 10.015625 -11.171875 L 10.015625 -10.875 C 9.679688 -10.84375 9.410156 -10.769531 9.203125 -10.65625 C 9.003906 -10.539062 8.90625 -10.347656 8.90625 -10.078125 C 8.90625 -9.742188 9.003906 -9.335938 9.203125 -8.859375 L 11.484375 -2.9375 L 13.625 -9 C 13.75 -9.320312 13.828125 -9.550781 13.859375 -9.6875 C 13.890625 -9.820312 13.90625 -9.972656 13.90625 -10.140625 C 13.90625 -10.617188 13.515625 -10.863281 12.734375 -10.875 L 12.734375 -11.171875 L 15.96875 -11.171875 L 15.96875 -10.875 C 15.601562 -10.863281 15.304688 -10.710938 15.078125 -10.421875 C 14.847656 -10.128906 14.59375 -9.582031 14.3125 -8.78125 L 11.125 0.234375 L 10.8125 0.234375 L 8.09375 -6.90625 L 5.5 0.234375 L 5.234375 0.234375 L 1.703125 -9.359375 C 1.535156 -9.816406 1.382812 -10.148438 1.25 -10.359375 C 1.113281 -10.566406 0.96875 -10.695312 0.8125 -10.75 C 0.65625 -10.8125 0.421875 -10.851562 0.109375 -10.875 L 0.109375 -11.171875 L 4.390625 -11.171875 Z M 4.390625 -10.875 "/></g></g><g style="fill:#ffffff;fill-opacity:1;"><g transform="translate(202.069064, 166.245465)"><path style="stroke:none" d=""/></g></g><g style="fill:#ffffff;fill-opacity:1;"><g transform="translate(206.13349, 166.245465)"><path style="stroke:none" d="M 5.578125 -10.875 L 5.484375 -10.875 C 4.941406 -10.875 4.546875 -10.773438 4.296875 -10.578125 C 4.054688 -10.390625 3.9375 -10.039062 3.9375 -9.53125 L 3.9375 -6.21875 L 9.4375 -6.21875 L 9.4375 -9.546875 C 9.4375 -10.054688 9.3125 -10.40625 9.0625 -10.59375 C 8.8125 -10.78125 8.414062 -10.875 7.875 -10.875 L 7.78125 -10.875 L 7.78125 -11.171875 L 12.8125 -11.171875 L 12.8125 -10.875 C 12.238281 -10.875 11.820312 -10.78125 11.5625 -10.59375 C 11.3125 -10.414062 11.1875 -10.054688 11.1875 -9.515625 L 11.1875 -1.625 C 11.1875 -1.09375 11.3125 -0.738281 11.5625 -0.5625 C 11.820312 -0.382812 12.238281 -0.296875 12.8125 -0.296875 L 12.8125 0 L 7.78125 0 L 7.78125 -0.296875 C 8.375 -0.296875 8.796875 -0.382812 9.046875 -0.5625 C 9.304688 -0.738281 9.4375 -1.097656 9.4375 -1.640625 L 9.4375 -5.5625 L 3.9375 -5.5625 L 3.9375 -1.640625 C 3.9375 -1.097656 4.0625 -0.738281 4.3125 -0.5625 C 4.570312 -0.382812 4.992188 -0.296875 5.578125 -0.296875 L 5.578125 0 L 0.5625 0 L 0.5625 -0.296875 C 1.144531 -0.304688 1.554688 -0.398438 1.796875 -0.578125 C 2.046875 -0.765625 2.171875 -1.117188 2.171875 -1.640625 L 2.171875 -9.546875 C 2.171875 -10.046875 2.046875 -10.390625 1.796875 -10.578125 C 1.554688 -10.773438 1.175781 -10.875 0.65625 -10.875 L 0.5625 -10.875 L 0.5625 -11.171875 L 5.578125 -11.171875 Z M 5.578125 -10.875 "/></g></g><g style="fill:#ffffff;fill-opacity:1;"><g transform="translate(219.513571, 166.245465)"><path style="stroke:none" d="M 9.578125 -8.703125 L 9.296875 -8.703125 C 9.191406 -9.316406 8.992188 -9.773438 8.703125 -10.078125 C 8.410156 -10.378906 8.003906 -10.53125 7.484375 -10.53125 L 3.953125 -10.53125 L 3.953125 -6.21875 L 6.84375 -6.21875 C 7.363281 -6.21875 7.734375 -6.347656 7.953125 -6.609375 C 8.171875 -6.867188 8.285156 -7.28125 8.296875 -7.84375 L 8.59375 -7.84375 L 8.59375 -3.90625 L 8.296875 -3.90625 C 8.296875 -4.46875 8.1875 -4.882812 7.96875 -5.15625 C 7.75 -5.425781 7.363281 -5.5625 6.8125 -5.5625 L 3.953125 -5.5625 L 3.953125 -1.484375 C 3.953125 -0.929688 4.171875 -0.65625 4.609375 -0.65625 L 7.46875 -0.65625 C 8.0625 -0.65625 8.585938 -0.832031 9.046875 -1.1875 C 9.503906 -1.550781 9.875 -2.082031 10.15625 -2.78125 L 10.484375 -2.78125 L 9.578125 0 L 0.578125 0 L 0.578125 -0.296875 C 1.148438 -0.296875 1.5625 -0.390625 1.8125 -0.578125 C 2.070312 -0.765625 2.203125 -1.117188 2.203125 -1.640625 L 2.203125 -9.640625 C 2.203125 -10.078125 2.070312 -10.390625 1.8125 -10.578125 C 1.5625 -10.773438 1.148438 -10.875 0.578125 -10.875 L 0.578125 -11.171875 L 9.453125 -11.171875 Z M 9.578125 -8.703125 "/></g></g><g style="fill:#ffffff;fill-opacity:1;"><g transform="translate(230.357458, 166.245465)"><path style="stroke:none" d="M 5.703125 -10.875 C 5.253906 -10.875 4.910156 -10.832031 4.671875 -10.75 C 4.429688 -10.675781 4.257812 -10.53125 4.15625 -10.3125 C 4.0625 -10.101562 4.015625 -9.800781 4.015625 -9.40625 L 4.015625 -1.625 C 4.015625 -1.257812 4.070312 -0.976562 4.1875 -0.78125 C 4.3125 -0.59375 4.492188 -0.46875 4.734375 -0.40625 C 4.972656 -0.34375 5.296875 -0.304688 5.703125 -0.296875 L 5.703125 0 L 0.5625 0 L 0.5625 -0.296875 C 1 -0.304688 1.332031 -0.34375 1.5625 -0.40625 C 1.800781 -0.46875 1.976562 -0.59375 2.09375 -0.78125 C 2.207031 -0.976562 2.265625 -1.265625 2.265625 -1.640625 L 2.265625 -9.40625 C 2.265625 -9.800781 2.210938 -10.101562 2.109375 -10.3125 C 2.003906 -10.519531 1.832031 -10.660156 1.59375 -10.734375 C 1.363281 -10.816406 1.019531 -10.863281 0.5625 -10.875 L 0.5625 -11.171875 L 5.703125 -11.171875 Z M 5.703125 -10.875 "/></g></g><g style="fill:#ffffff;fill-opacity:1;"><g transform="translate(236.61668, 166.245465)"><path style="stroke:none" d="M 7.125 -11.421875 C 7.707031 -11.421875 8.21875 -11.363281 8.65625 -11.25 C 9.09375 -11.144531 9.535156 -11.003906 9.984375 -10.828125 C 10.296875 -10.710938 10.488281 -10.65625 10.5625 -10.65625 C 10.6875 -10.65625 10.796875 -10.71875 10.890625 -10.84375 C 10.992188 -10.976562 11.054688 -11.171875 11.078125 -11.421875 L 11.390625 -11.421875 L 11.671875 -7.859375 L 11.390625 -7.859375 C 11.234375 -8.472656 10.9375 -9.003906 10.5 -9.453125 C 10.070312 -9.898438 9.570312 -10.234375 9 -10.453125 C 8.425781 -10.679688 7.835938 -10.796875 7.234375 -10.796875 C 6.421875 -10.796875 5.671875 -10.59375 4.984375 -10.1875 C 4.304688 -9.78125 3.757812 -9.179688 3.34375 -8.390625 C 2.9375 -7.609375 2.734375 -6.671875 2.734375 -5.578125 C 2.734375 -4.566406 2.945312 -3.664062 3.375 -2.875 C 3.800781 -2.082031 4.378906 -1.46875 5.109375 -1.03125 C 5.847656 -0.59375 6.644531 -0.375 7.5 -0.375 C 7.957031 -0.375 8.378906 -0.4375 8.765625 -0.5625 C 9.160156 -0.6875 9.570312 -0.894531 10 -1.1875 L 10 -4.40625 C 10 -4.882812 9.875 -5.21875 9.625 -5.40625 C 9.375 -5.59375 8.976562 -5.691406 8.4375 -5.703125 L 8.4375 -6 L 13.234375 -6 L 13.234375 -5.703125 C 12.835938 -5.671875 12.535156 -5.613281 12.328125 -5.53125 C 12.128906 -5.445312 11.984375 -5.296875 11.890625 -5.078125 C 11.804688 -4.859375 11.765625 -4.53125 11.765625 -4.09375 L 11.765625 -0.921875 C 10.972656 -0.492188 10.265625 -0.191406 9.640625 -0.015625 C 9.023438 0.160156 8.269531 0.25 7.375 0.25 C 5.957031 0.25 4.742188 -0.0195312 3.734375 -0.5625 C 2.734375 -1.101562 1.976562 -1.796875 1.46875 -2.640625 C 0.957031 -3.484375 0.703125 -4.347656 0.703125 -5.234375 C 0.703125 -6.359375 0.984375 -7.394531 1.546875 -8.34375 C 2.117188 -9.289062 2.894531 -10.039062 3.875 -10.59375 C 4.851562 -11.144531 5.9375 -11.421875 7.125 -11.421875 Z M 7.125 -11.421875 "/></g></g><g style="fill:#ffffff;fill-opacity:1;"><g transform="translate(249.996761, 166.245465)"><path style="stroke:none" d="M 5.578125 -10.875 L 5.484375 -10.875 C 4.941406 -10.875 4.546875 -10.773438 4.296875 -10.578125 C 4.054688 -10.390625 3.9375 -10.039062 3.9375 -9.53125 L 3.9375 -6.21875 L 9.4375 -6.21875 L 9.4375 -9.546875 C 9.4375 -10.054688 9.3125 -10.40625 9.0625 -10.59375 C 8.8125 -10.78125 8.414062 -10.875 7.875 -10.875 L 7.78125 -10.875 L 7.78125 -11.171875 L 12.8125 -11.171875 L 12.8125 -10.875 C 12.238281 -10.875 11.820312 -10.78125 11.5625 -10.59375 C 11.3125 -10.414062 11.1875 -10.054688 11.1875 -9.515625 L 11.1875 -1.625 C 11.1875 -1.09375 11.3125 -0.738281 11.5625 -0.5625 C 11.820312 -0.382812 12.238281 -0.296875 12.8125 -0.296875 L 12.8125 0 L 7.78125 0 L 7.78125 -0.296875 C 8.375 -0.296875 8.796875 -0.382812 9.046875 -0.5625 C 9.304688 -0.738281 9.4375 -1.097656 9.4375 -1.640625 L 9.4375 -5.5625 L 3.9375 -5.5625 L 3.9375 -1.640625 C 3.9375 -1.097656 4.0625 -0.738281 4.3125 -0.5625 C 4.570312 -0.382812 4.992188 -0.296875 5.578125 -0.296875 L 5.578125 0 L 0.5625 0 L 0.5625 -0.296875 C 1.144531 -0.304688 1.554688 -0.398438 1.796875 -0.578125 C 2.046875 -0.765625 2.171875 -1.117188 2.171875 -1.640625 L 2.171875 -9.546875 C 2.171875 -10.046875 2.046875 -10.390625 1.796875 -10.578125 C 1.554688 -10.773438 1.175781 -10.875 0.65625 -10.875 L 0.5625 -10.875 L 0.5625 -11.171875 L 5.578125 -11.171875 Z M 5.578125 -10.875 "/></g></g><g style="fill:#ffffff;fill-opacity:1;"><g transform="translate(263.376841, 166.245465)"><path style="stroke:none" d="M 10.4375 -8.640625 L 10.140625 -8.640625 C 9.984375 -9.847656 9.328125 -10.453125 8.171875 -10.453125 L 6.296875 -10.453125 L 6.296875 -1.53125 C 6.296875 -1.039062 6.4375 -0.710938 6.71875 -0.546875 C 7 -0.378906 7.398438 -0.296875 7.921875 -0.296875 L 7.921875 0 L 2.90625 0 L 2.90625 -0.296875 C 3.488281 -0.296875 3.90625 -0.390625 4.15625 -0.578125 C 4.40625 -0.773438 4.53125 -1.128906 4.53125 -1.640625 L 4.53125 -10.453125 L 2.546875 -10.453125 C 2.046875 -10.453125 1.625 -10.300781 1.28125 -10 C 0.9375 -9.707031 0.742188 -9.253906 0.703125 -8.640625 L 0.40625 -8.640625 L 0.484375 -11.171875 L 10.359375 -11.171875 Z M 10.4375 -8.640625 "/></g></g><g style="fill:#ffffff;fill-opacity:1;"><g transform="translate(274.220728, 166.245465)"><path style="stroke:none" d="M 4.09375 -11.421875 C 4.46875 -11.421875 4.789062 -11.382812 5.0625 -11.3125 C 5.332031 -11.238281 5.609375 -11.144531 5.890625 -11.03125 C 6.023438 -10.976562 6.160156 -10.925781 6.296875 -10.875 C 6.429688 -10.832031 6.554688 -10.8125 6.671875 -10.8125 C 6.929688 -10.8125 7.132812 -11.015625 7.28125 -11.421875 L 7.59375 -11.421875 L 7.59375 -7.703125 L 7.28125 -7.703125 C 7.226562 -8.285156 7.054688 -8.8125 6.765625 -9.28125 C 6.484375 -9.75 6.128906 -10.117188 5.703125 -10.390625 C 5.273438 -10.660156 4.816406 -10.796875 4.328125 -10.796875 C 3.796875 -10.796875 3.335938 -10.632812 2.953125 -10.3125 C 2.578125 -10 2.390625 -9.613281 2.390625 -9.15625 C 2.390625 -8.625 2.648438 -8.164062 3.171875 -7.78125 C 3.535156 -7.507812 4.050781 -7.179688 4.71875 -6.796875 C 5.300781 -6.441406 5.785156 -6.132812 6.171875 -5.875 C 6.566406 -5.613281 6.929688 -5.332031 7.265625 -5.03125 C 7.566406 -4.738281 7.804688 -4.398438 7.984375 -4.015625 C 8.171875 -3.640625 8.265625 -3.25 8.265625 -2.84375 C 8.265625 -2.289062 8.113281 -1.773438 7.8125 -1.296875 C 7.507812 -0.816406 7.09375 -0.4375 6.5625 -0.15625 C 6.039062 0.113281 5.460938 0.25 4.828125 0.25 C 4.429688 0.25 4.078125 0.210938 3.765625 0.140625 C 3.453125 0.0664062 3.128906 -0.0234375 2.796875 -0.140625 C 2.429688 -0.273438 2.15625 -0.34375 1.96875 -0.34375 C 1.675781 -0.34375 1.453125 -0.144531 1.296875 0.25 L 1.015625 0.25 L 1.015625 -3.515625 L 1.296875 -3.515625 C 1.484375 -2.546875 1.847656 -1.78125 2.390625 -1.21875 C 2.941406 -0.65625 3.648438 -0.375 4.515625 -0.375 C 5.140625 -0.375 5.648438 -0.539062 6.046875 -0.875 C 6.453125 -1.207031 6.65625 -1.628906 6.65625 -2.140625 C 6.65625 -2.398438 6.601562 -2.640625 6.5 -2.859375 C 6.40625 -3.078125 6.242188 -3.3125 6.015625 -3.5625 C 5.804688 -3.78125 5.515625 -4.015625 5.140625 -4.265625 C 4.765625 -4.523438 4.257812 -4.84375 3.625 -5.21875 C 3.09375 -5.539062 2.6875 -5.796875 2.40625 -5.984375 C 2.125 -6.179688 1.910156 -6.347656 1.765625 -6.484375 C 1.210938 -7.046875 0.9375 -7.722656 0.9375 -8.515625 C 0.9375 -9.066406 1.070312 -9.5625 1.34375 -10 C 1.625 -10.4375 2.003906 -10.78125 2.484375 -11.03125 C 2.960938 -11.289062 3.5 -11.421875 4.09375 -11.421875 Z M 4.09375 -11.421875 "/></g></g><g style="fill:#ffffff;fill-opacity:1;"><g transform="translate(283.194985, 166.245465)"><path style="stroke:none" d=""/></g></g><g style="fill:#ffffff;fill-opacity:1;"><g transform="translate(287.259411, 166.245465)"><path style="stroke:none" d="M 4.09375 -11.421875 C 4.46875 -11.421875 4.789062 -11.382812 5.0625 -11.3125 C 5.332031 -11.238281 5.609375 -11.144531 5.890625 -11.03125 C 6.023438 -10.976562 6.160156 -10.925781 6.296875 -10.875 C 6.429688 -10.832031 6.554688 -10.8125 6.671875 -10.8125 C 6.929688 -10.8125 7.132812 -11.015625 7.28125 -11.421875 L 7.59375 -11.421875 L 7.59375 -7.703125 L 7.28125 -7.703125 C 7.226562 -8.285156 7.054688 -8.8125 6.765625 -9.28125 C 6.484375 -9.75 6.128906 -10.117188 5.703125 -10.390625 C 5.273438 -10.660156 4.816406 -10.796875 4.328125 -10.796875 C 3.796875 -10.796875 3.335938 -10.632812 2.953125 -10.3125 C 2.578125 -10 2.390625 -9.613281 2.390625 -9.15625 C 2.390625 -8.625 2.648438 -8.164062 3.171875 -7.78125 C 3.535156 -7.507812 4.050781 -7.179688 4.71875 -6.796875 C 5.300781 -6.441406 5.785156 -6.132812 6.171875 -5.875 C 6.566406 -5.613281 6.929688 -5.332031 7.265625 -5.03125 C 7.566406 -4.738281 7.804688 -4.398438 7.984375 -4.015625 C 8.171875 -3.640625 8.265625 -3.25 8.265625 -2.84375 C 8.265625 -2.289062 8.113281 -1.773438 7.8125 -1.296875 C 7.507812 -0.816406 7.09375 -0.4375 6.5625 -0.15625 C 6.039062 0.113281 5.460938 0.25 4.828125 0.25 C 4.429688 0.25 4.078125 0.210938 3.765625 0.140625 C 3.453125 0.0664062 3.128906 -0.0234375 2.796875 -0.140625 C 2.429688 -0.273438 2.15625 -0.34375 1.96875 -0.34375 C 1.675781 -0.34375 1.453125 -0.144531 1.296875 0.25 L 1.015625 0.25 L 1.015625 -3.515625 L 1.296875 -3.515625 C 1.484375 -2.546875 1.847656 -1.78125 2.390625 -1.21875 C 2.941406 -0.65625 3.648438 -0.375 4.515625 -0.375 C 5.140625 -0.375 5.648438 -0.539062 6.046875 -0.875 C 6.453125 -1.207031 6.65625 -1.628906 6.65625 -2.140625 C 6.65625 -2.398438 6.601562 -2.640625 6.5 -2.859375 C 6.40625 -3.078125 6.242188 -3.3125 6.015625 -3.5625 C 5.804688 -3.78125 5.515625 -4.015625 5.140625 -4.265625 C 4.765625 -4.523438 4.257812 -4.84375 3.625 -5.21875 C 3.09375 -5.539062 2.6875 -5.796875 2.40625 -5.984375 C 2.125 -6.179688 1.910156 -6.347656 1.765625 -6.484375 C 1.210938 -7.046875 0.9375 -7.722656 0.9375 -8.515625 C 0.9375 -9.066406 1.070312 -9.5625 1.34375 -10 C 1.625 -10.4375 2.003906 -10.78125 2.484375 -11.03125 C 2.960938 -11.289062 3.5 -11.421875 4.09375 -11.421875 Z M 4.09375 -11.421875 "/></g></g><g style="fill:#ffffff;fill-opacity:1;"><g transform="translate(296.233668, 166.245465)"><path style="stroke:none" d="M 5.703125 -10.875 C 5.253906 -10.875 4.910156 -10.832031 4.671875 -10.75 C 4.429688 -10.675781 4.257812 -10.53125 4.15625 -10.3125 C 4.0625 -10.101562 4.015625 -9.800781 4.015625 -9.40625 L 4.015625 -1.625 C 4.015625 -1.257812 4.070312 -0.976562 4.1875 -0.78125 C 4.3125 -0.59375 4.492188 -0.46875 4.734375 -0.40625 C 4.972656 -0.34375 5.296875 -0.304688 5.703125 -0.296875 L 5.703125 0 L 0.5625 0 L 0.5625 -0.296875 C 1 -0.304688 1.332031 -0.34375 1.5625 -0.40625 C 1.800781 -0.46875 1.976562 -0.59375 2.09375 -0.78125 C 2.207031 -0.976562 2.265625 -1.265625 2.265625 -1.640625 L 2.265625 -9.40625 C 2.265625 -9.800781 2.210938 -10.101562 2.109375 -10.3125 C 2.003906 -10.519531 1.832031 -10.660156 1.59375 -10.734375 C 1.363281 -10.816406 1.019531 -10.863281 0.5625 -10.875 L 0.5625 -11.171875 L 5.703125 -11.171875 Z M 5.703125 -10.875 "/></g></g><g style="fill:#ffffff;fill-opacity:1;"><g transform="translate(302.49289, 166.245465)"><path style="stroke:none" d="M 10.6875 -2.921875 L 10.6875 -9.625 C 10.6875 -10.113281 10.597656 -10.441406 10.421875 -10.609375 C 10.253906 -10.773438 9.9375 -10.863281 9.46875 -10.875 L 9.0625 -10.875 L 9.0625 -11.171875 L 13.171875 -11.171875 L 13.171875 -10.875 L 12.828125 -10.875 C 12.398438 -10.875 12.09375 -10.847656 11.90625 -10.796875 C 11.71875 -10.742188 11.585938 -10.617188 11.515625 -10.421875 C 11.453125 -10.222656 11.421875 -9.894531 11.421875 -9.4375 L 11.421875 0.125 L 11.1875 0.125 L 3.203125 -8.859375 L 3.203125 -1.890625 C 3.203125 -1.273438 3.320312 -0.851562 3.5625 -0.625 C 3.8125 -0.40625 4.234375 -0.296875 4.828125 -0.296875 L 4.828125 0 L 0.796875 0 L 0.796875 -0.296875 L 0.890625 -0.296875 C 1.410156 -0.296875 1.804688 -0.390625 2.078125 -0.578125 C 2.347656 -0.765625 2.484375 -1.113281 2.484375 -1.625 L 2.484375 -9.578125 C 2.203125 -10.054688 1.882812 -10.390625 1.53125 -10.578125 C 1.175781 -10.773438 0.738281 -10.875 0.21875 -10.875 L 0.21875 -11.171875 L 3.46875 -11.171875 Z M 10.6875 -2.921875 "/></g></g><g style="fill:#ffffff;fill-opacity:1;"><g transform="translate(315.872971, 166.245465)"><path style="stroke:none" d="M 6.78125 -11.421875 C 7.320312 -11.421875 7.789062 -11.367188 8.1875 -11.265625 C 8.582031 -11.160156 8.96875 -11.023438 9.34375 -10.859375 C 9.644531 -10.742188 9.835938 -10.6875 9.921875 -10.6875 C 10.054688 -10.6875 10.179688 -10.753906 10.296875 -10.890625 C 10.410156 -11.023438 10.492188 -11.203125 10.546875 -11.421875 L 10.8125 -11.421875 L 11.09375 -7.640625 L 10.8125 -7.640625 C 10.71875 -8.304688 10.476562 -8.875 10.09375 -9.34375 C 9.707031 -9.820312 9.234375 -10.179688 8.671875 -10.421875 C 8.117188 -10.671875 7.53125 -10.796875 6.90625 -10.796875 C 5.644531 -10.796875 4.628906 -10.34375 3.859375 -9.4375 C 3.097656 -8.53125 2.71875 -7.160156 2.71875 -5.328125 C 2.71875 -4.242188 2.925781 -3.335938 3.34375 -2.609375 C 3.757812 -1.878906 4.304688 -1.335938 4.984375 -0.984375 C 5.660156 -0.628906 6.382812 -0.453125 7.15625 -0.453125 C 7.945312 -0.453125 8.695312 -0.648438 9.40625 -1.046875 C 10.125 -1.453125 10.6875 -1.992188 11.09375 -2.671875 L 11.34375 -2.5 C 10.269531 -0.664062 8.6875 0.25 6.59375 0.25 C 5.507812 0.25 4.515625 0 3.609375 -0.5 C 2.710938 -1.007812 2 -1.695312 1.46875 -2.5625 C 0.945312 -3.4375 0.6875 -4.394531 0.6875 -5.4375 C 0.6875 -6.53125 0.957031 -7.535156 1.5 -8.453125 C 2.039062 -9.367188 2.773438 -10.09375 3.703125 -10.625 C 4.640625 -11.15625 5.664062 -11.421875 6.78125 -11.421875 Z M 6.78125 -11.421875 "/></g></g><g style="fill:#ffffff;fill-opacity:1;"><g transform="translate(327.562261, 166.245465)"><path style="stroke:none" d="M 9.578125 -8.703125 L 9.296875 -8.703125 C 9.191406 -9.316406 8.992188 -9.773438 8.703125 -10.078125 C 8.410156 -10.378906 8.003906 -10.53125 7.484375 -10.53125 L 3.953125 -10.53125 L 3.953125 -6.21875 L 6.84375 -6.21875 C 7.363281 -6.21875 7.734375 -6.347656 7.953125 -6.609375 C 8.171875 -6.867188 8.285156 -7.28125 8.296875 -7.84375 L 8.59375 -7.84375 L 8.59375 -3.90625 L 8.296875 -3.90625 C 8.296875 -4.46875 8.1875 -4.882812 7.96875 -5.15625 C 7.75 -5.425781 7.363281 -5.5625 6.8125 -5.5625 L 3.953125 -5.5625 L 3.953125 -1.484375 C 3.953125 -0.929688 4.171875 -0.65625 4.609375 -0.65625 L 7.46875 -0.65625 C 8.0625 -0.65625 8.585938 -0.832031 9.046875 -1.1875 C 9.503906 -1.550781 9.875 -2.082031 10.15625 -2.78125 L 10.484375 -2.78125 L 9.578125 0 L 0.578125 0 L 0.578125 -0.296875 C 1.148438 -0.296875 1.5625 -0.390625 1.8125 -0.578125 C 2.070312 -0.765625 2.203125 -1.117188 2.203125 -1.640625 L 2.203125 -9.640625 C 2.203125 -10.078125 2.070312 -10.390625 1.8125 -10.578125 C 1.5625 -10.773438 1.148438 -10.875 0.578125 -10.875 L 0.578125 -11.171875 L 9.453125 -11.171875 Z M 9.578125 -8.703125 "/></g></g><g style="fill:#ffffff;fill-opacity:1;"><g transform="translate(338.406148, 166.245465)"><path style="stroke:none" d=""/></g></g><g style="fill:#ffffff;fill-opacity:1;"><g transform="translate(342.470575, 166.245465)"><path style="stroke:none" d="M 4.8125 -11.421875 L 4.8125 -1.5625 C 4.8125 -1.207031 4.863281 -0.9375 4.96875 -0.75 C 5.070312 -0.5625 5.21875 -0.4375 5.40625 -0.375 C 5.59375 -0.320312 5.859375 -0.296875 6.203125 -0.296875 L 6.203125 0 L 2.03125 0 L 2.03125 -0.296875 C 2.5625 -0.296875 2.925781 -0.382812 3.125 -0.5625 C 3.332031 -0.738281 3.4375 -1.066406 3.4375 -1.546875 L 3.4375 -8.953125 C 3.4375 -9.710938 3.234375 -10.09375 2.828125 -10.09375 C 2.628906 -10.09375 2.363281 -10.007812 2.03125 -9.84375 L 1.875 -10.09375 L 4.5 -11.421875 Z M 4.8125 -11.421875 "/></g></g><g style="fill:#ffffff;fill-opacity:1;"><g transform="translate(350.599428, 166.245465)"><path style="stroke:none" d="M 3.921875 -11.421875 C 4.578125 -11.421875 5.171875 -11.21875 5.703125 -10.8125 C 6.234375 -10.40625 6.65625 -9.84375 6.96875 -9.125 C 7.28125 -8.40625 7.4375 -7.613281 7.4375 -6.75 C 7.4375 -5.8125 7.265625 -4.921875 6.921875 -4.078125 C 6.585938 -3.242188 6.125 -2.503906 5.53125 -1.859375 C 4.945312 -1.210938 4.289062 -0.707031 3.5625 -0.34375 C 2.832031 0.0078125 2.097656 0.1875 1.359375 0.1875 L 0.828125 0.1875 L 0.828125 -0.125 C 1.523438 -0.132812 2.203125 -0.34375 2.859375 -0.75 C 3.523438 -1.15625 4.109375 -1.726562 4.609375 -2.46875 C 5.117188 -3.21875 5.476562 -4.078125 5.6875 -5.046875 C 5.300781 -4.765625 4.925781 -4.550781 4.5625 -4.40625 C 4.195312 -4.269531 3.804688 -4.203125 3.390625 -4.203125 C 2.859375 -4.203125 2.378906 -4.335938 1.953125 -4.609375 C 1.523438 -4.890625 1.191406 -5.273438 0.953125 -5.765625 C 0.722656 -6.253906 0.609375 -6.804688 0.609375 -7.421875 C 0.609375 -8.140625 0.753906 -8.804688 1.046875 -9.421875 C 1.347656 -10.035156 1.75 -10.519531 2.25 -10.875 C 2.757812 -11.238281 3.316406 -11.421875 3.921875 -11.421875 Z M 1.984375 -8.34375 C 1.984375 -7.46875 2.140625 -6.675781 2.453125 -5.96875 C 2.765625 -5.257812 3.300781 -4.90625 4.0625 -4.90625 C 4.363281 -4.90625 4.640625 -4.953125 4.890625 -5.046875 C 5.140625 -5.148438 5.441406 -5.320312 5.796875 -5.5625 C 5.878906 -6.039062 5.921875 -6.484375 5.921875 -6.890625 C 5.921875 -7.421875 5.851562 -7.992188 5.71875 -8.609375 C 5.582031 -9.234375 5.347656 -9.773438 5.015625 -10.234375 C 4.691406 -10.691406 4.265625 -10.921875 3.734375 -10.921875 C 3.203125 -10.921875 2.773438 -10.679688 2.453125 -10.203125 C 2.140625 -9.734375 1.984375 -9.113281 1.984375 -8.34375 Z M 1.984375 -8.34375 "/></g></g><g style="fill:#ffffff;fill-opacity:1;"><g transform="translate(358.728281, 166.245465)"><path style="stroke:none" d="M 3.921875 -11.421875 C 4.578125 -11.421875 5.171875 -11.21875 5.703125 -10.8125 C 6.234375 -10.40625 6.65625 -9.84375 6.96875 -9.125 C 7.28125 -8.40625 7.4375 -7.613281 7.4375 -6.75 C 7.4375 -5.8125 7.265625 -4.921875 6.921875 -4.078125 C 6.585938 -3.242188 6.125 -2.503906 5.53125 -1.859375 C 4.945312 -1.210938 4.289062 -0.707031 3.5625 -0.34375 C 2.832031 0.0078125 2.097656 0.1875 1.359375 0.1875 L 0.828125 0.1875 L 0.828125 -0.125 C 1.523438 -0.132812 2.203125 -0.34375 2.859375 -0.75 C 3.523438 -1.15625 4.109375 -1.726562 4.609375 -2.46875 C 5.117188 -3.21875 5.476562 -4.078125 5.6875 -5.046875 C 5.300781 -4.765625 4.925781 -4.550781 4.5625 -4.40625 C 4.195312 -4.269531 3.804688 -4.203125 3.390625 -4.203125 C 2.859375 -4.203125 2.378906 -4.335938 1.953125 -4.609375 C 1.523438 -4.890625 1.191406 -5.273438 0.953125 -5.765625 C 0.722656 -6.253906 0.609375 -6.804688 0.609375 -7.421875 C 0.609375 -8.140625 0.753906 -8.804688 1.046875 -9.421875 C 1.347656 -10.035156 1.75 -10.519531 2.25 -10.875 C 2.757812 -11.238281 3.316406 -11.421875 3.921875 -11.421875 Z M 1.984375 -8.34375 C 1.984375 -7.46875 2.140625 -6.675781 2.453125 -5.96875 C 2.765625 -5.257812 3.300781 -4.90625 4.0625 -4.90625 C 4.363281 -4.90625 4.640625 -4.953125 4.890625 -5.046875 C 5.140625 -5.148438 5.441406 -5.320312 5.796875 -5.5625 C 5.878906 -6.039062 5.921875 -6.484375 5.921875 -6.890625 C 5.921875 -7.421875 5.851562 -7.992188 5.71875 -8.609375 C 5.582031 -9.234375 5.347656 -9.773438 5.015625 -10.234375 C 4.691406 -10.691406 4.265625 -10.921875 3.734375 -10.921875 C 3.203125 -10.921875 2.773438 -10.679688 2.453125 -10.203125 C 2.140625 -9.734375 1.984375 -9.113281 1.984375 -8.34375 Z M 1.984375 -8.34375 "/></g></g><g style="fill:#ffffff;fill-opacity:1;"><g transform="translate(366.857133, 166.245465)"><path style="stroke:none" d="M 6.21875 -11.359375 L 6.21875 -4.015625 L 7.71875 -4.015625 L 7.71875 -2.8125 L 6.21875 -2.8125 L 6.21875 0 L 4.828125 0 L 4.828125 -2.8125 L 0.265625 -2.8125 L 0.265625 -4.078125 L 5.34375 -11.359375 Z M 0.9375 -4.015625 L 4.828125 -4.015625 L 4.828125 -9.5625 L 4.796875 -9.5625 Z M 0.9375 -4.015625 "/></g></g><path style="fill:none;stroke-width:9;stroke-linecap:round;stroke-linejoin:miter;stroke:#ffffff;stroke-opacity:1;stroke-miterlimit:4;" d="M 4.502412 4.497477 L 131.805848 4.498147 " transform="matrix(0.000955162,0.748366,-0.748366,0.000955162,87.595832,33.266878)"/></g></svg>