<svg xmlns="http://www.w3.org/2000/svg" xmlns:xlink="http://www.w3.org/1999/xlink" width="1920" zoomAndPan="magnify" viewBox="0 0 1440 809.999993" height="1080" preserveAspectRatio="xMidYMid meet" version="1.2"><defs/><g id="20ba65329d"><rect x="0" width="1440" y="0" height="809.999993" style="fill:#ffffff;fill-opacity:1;stroke:none;"/><path style="fill:none;stroke-width:5;stroke-linecap:round;stroke-linejoin:miter;stroke:#000000;stroke-opacity:1;stroke-miterlimit:4;" d="M 2.500408 2.499629 L 89.735 2.499629 " transform="matrix(0,1.615883,-1.615883,0,465.875047,312.299476)"/><g style="fill:#000000;fill-opacity:1;"><g transform="translate(477.633702, 436.442381)"><path style="stroke:none" d="M 43.9375 -86.34375 C 49.882812 -86.34375 54.984375 -85.28125 59.234375 -83.15625 C 63.484375 -81.03125 66.71875 -77.988281 68.9375 -74.03125 C 71.164062 -70.070312 72.28125 -65.414062 72.28125 -60.0625 C 72.28125 -54.707031 71.164062 -50.0625 68.9375 -46.125 C 66.71875 -42.1875 63.484375 -39.144531 59.234375 -37 C 54.984375 -34.851562 49.882812 -33.78125 43.9375 -33.78125 L 23.203125 -33.78125 L 23.203125 0 L 13.046875 0 L 13.046875 -86.34375 Z M 43.640625 -42.46875 C 55.648438 -42.46875 61.65625 -48.332031 61.65625 -60.0625 C 61.65625 -71.832031 55.648438 -77.71875 43.640625 -77.71875 L 23.203125 -77.71875 L 23.203125 -42.46875 Z M 43.640625 -42.46875 "/></g></g><g style="fill:#000000;fill-opacity:1;"><g transform="translate(573.616729, 463.604396)"><path style="stroke:none" d="M 74.203125 0 L 63.828125 0 L 56.21875 -22.609375 L 21.09375 -22.609375 L 13.421875 0 L 3.265625 0 L 32.03125 -82.4375 L 45.453125 -82.4375 Z M 37.953125 -72.453125 L 23.796875 -30.734375 L 53.453125 -30.734375 L 39.359375 -72.453125 Z M 37.953125 -72.453125 "/></g></g><g style="fill:#000000;fill-opacity:1;"><g transform="translate(663.682406, 407.251943)"><path style="stroke:none" d="M 46.875 1.21875 C 39.445312 1.21875 32.832031 -0.476562 27.03125 -3.875 C 21.226562 -7.28125 16.679688 -12.257812 13.390625 -18.8125 C 10.109375 -25.375 8.46875 -33.238281 8.46875 -42.40625 C 8.46875 -51.570312 10.109375 -59.429688 13.390625 -65.984375 C 16.679688 -72.535156 21.226562 -77.507812 27.03125 -80.90625 C 32.832031 -84.3125 39.445312 -86.015625 46.875 -86.015625 C 54.800781 -86.015625 61.390625 -84.515625 66.640625 -81.515625 C 71.898438 -78.523438 75.691406 -74.015625 78.015625 -67.984375 L 71.640625 -63.75 L 70.1875 -63.75 C 67.863281 -68.582031 64.84375 -72.015625 61.125 -74.046875 C 57.414062 -76.078125 52.664062 -77.09375 46.875 -77.09375 C 41.53125 -77.09375 36.789062 -75.898438 32.65625 -73.515625 C 28.519531 -71.140625 25.234375 -67.367188 22.796875 -62.203125 C 20.359375 -57.046875 19.140625 -50.445312 19.140625 -42.40625 C 19.140625 -34.363281 20.359375 -27.769531 22.796875 -22.625 C 25.234375 -17.476562 28.519531 -13.710938 32.65625 -11.328125 C 36.789062 -8.953125 41.53125 -7.765625 46.875 -7.765625 C 53.019531 -7.765625 58.046875 -9.144531 61.953125 -11.90625 C 65.859375 -14.675781 68.757812 -19.15625 70.65625 -25.34375 L 72.109375 -25.34375 L 78.765625 -22.046875 C 76.753906 -14.546875 73.03125 -8.789062 67.59375 -4.78125 C 62.164062 -0.78125 55.257812 1.21875 46.875 1.21875 Z M 46.875 1.21875 "/></g></g><g style="fill:#000000;fill-opacity:1;"><g transform="translate(768.214077, 443.943377)"><path style="stroke:none" d="M 22.796875 -39.96875 L 22.796875 -8.234375 L 66.015625 -8.234375 L 66.015625 0 L 12.8125 0 L 12.8125 -84.8125 L 65.078125 -84.8125 L 65.078125 -76.5625 L 22.796875 -76.5625 L 22.796875 -48.203125 L 60.09375 -48.203125 L 60.09375 -39.96875 Z M 22.796875 -39.96875 "/></g></g><path style="fill:none;stroke-width:5;stroke-linecap:round;stroke-linejoin:miter;stroke:#000000;stroke-opacity:1;stroke-miterlimit:4;" d="M 2.499789 2.500908 L 82.146296 2.500908 " transform="matrix(1.62,0,0,1.62,445.89956,325.413373)"/><path style="fill:none;stroke-width:5;stroke-linecap:round;stroke-linejoin:miter;stroke:#000000;stroke-opacity:1;stroke-miterlimit:4;" d="M 2.499435 2.499976 L 84.852378 2.499976 " transform="matrix(1.613624,0,0,1.613624,446.892632,442.571446)"/><path style="fill:none;stroke-width:5;stroke-linecap:round;stroke-linejoin:miter;stroke:#000000;stroke-opacity:1;stroke-miterlimit:4;" d="M 2.500639 2.500366 L 86.5657 2.500453 " transform="matrix(-0.0000447862,1.618863,-1.618863,-0.0000447862,656.711925,292.772232)"/><path style="fill:none;stroke-width:5;stroke-linecap:round;stroke-linejoin:miter;stroke:#000000;stroke-opacity:1;stroke-miterlimit:4;" d="M 2.500754 2.499691 L 86.737734 2.499691 " transform="matrix(0.00000000282001,1.615745,-1.615745,0.00000000282001,765.554488,292.498481)"/><path style="fill:none;stroke-width:5;stroke-linecap:round;stroke-linejoin:miter;stroke:#000000;stroke-opacity:1;stroke-miterlimit:4;" d="M 2.500188 2.499816 L 83.364383 2.499816 " transform="matrix(1.62,0,0,1.62,637.238758,306.227642)"/><path style="fill:none;stroke-width:5;stroke-linecap:round;stroke-linejoin:miter;stroke:#000000;stroke-opacity:1;stroke-miterlimit:4;" d="M 2.498904 2.501067 L 83.34622 2.501067 " transform="matrix(1.62,0,0,1.62,637.268182,420.920927)"/><path style="fill:none;stroke-width:5;stroke-linecap:round;stroke-linejoin:miter;stroke:#000000;stroke-opacity:1;stroke-miterlimit:4;" d="M 2.50057 2.498859 L 69.381838 2.498859 " transform="matrix(1.62,0,0,1.62,762.316264,338.057317)"/><path style="fill:none;stroke-width:5;stroke-linecap:round;stroke-linejoin:miter;stroke:#000000;stroke-opacity:1;stroke-miterlimit:4;" d="M 2.499046 2.498981 L 29.731102 2.498981 " transform="matrix(0,-1.609001,1.609001,0,736.006481,472.321748)"/><path style="fill:none;stroke-width:5;stroke-linecap:round;stroke-linejoin:miter;stroke:#000000;stroke-opacity:1;stroke-miterlimit:4;" d="M 2.500472 2.499978 L 84.833846 2.499978 " transform="matrix(0,1.613913,-1.613913,0,865.214435,329.464455)"/><path style="fill:none;stroke-width:5;stroke-linecap:round;stroke-linejoin:miter;stroke:#000000;stroke-opacity:1;stroke-miterlimit:4;" d="M 2.499538 2.500035 L 49.203337 2.500035 " transform="matrix(1.62,0.000000000000000891,-0.000000000000000891,1.62,568.903874,365.231193)"/><path style="fill:none;stroke-width:5;stroke-linecap:round;stroke-linejoin:miter;stroke:#000000;stroke-opacity:1;stroke-miterlimit:4;" d="M 2.499371 2.499025 L 80.457992 2.499025 " transform="matrix(1.62,0,0,1.62,542.298675,468.271892)"/><path style="fill:none;stroke-width:5;stroke-linecap:round;stroke-linejoin:miter;stroke:#000000;stroke-opacity:1;stroke-miterlimit:4;" d="M 2.499184 2.499117 L 92.874018 2.499117 " transform="matrix(1.613895,0,0,1.613895,724.267362,456.572157)"/><path style="fill:none;stroke-width:5;stroke-linecap:round;stroke-linejoin:miter;stroke:#000000;stroke-opacity:1;stroke-miterlimit:4;" d="M 2.500025 2.499031 L 37.299407 2.499031 " transform="matrix(0,-1.62,1.62,0,660.818757,489.444571)"/><path style="fill:none;stroke-width:5;stroke-linecap:round;stroke-linejoin:miter;stroke:#000000;stroke-opacity:1;stroke-miterlimit:4;" d="M 2.499592 2.49881 L 23.923356 2.49881 " transform="matrix(0,-1.594134,1.594134,0,552.016562,489.457339)"/><g style="fill:#000000;fill-opacity:1;"><g transform="translate(561.367135, 506.511284)"><path style="stroke:none" d="M 5.984375 -16.671875 C 6.523438 -16.671875 6.992188 -16.617188 7.390625 -16.515625 C 7.785156 -16.410156 8.1875 -16.273438 8.59375 -16.109375 C 8.800781 -16.023438 9.003906 -15.953125 9.203125 -15.890625 C 9.398438 -15.828125 9.578125 -15.796875 9.734375 -15.796875 C 10.117188 -15.796875 10.421875 -16.085938 10.640625 -16.671875 L 11.09375 -16.671875 L 11.09375 -11.25 L 10.640625 -11.25 C 10.554688 -12.09375 10.304688 -12.859375 9.890625 -13.546875 C 9.472656 -14.234375 8.953125 -14.773438 8.328125 -15.171875 C 7.703125 -15.566406 7.03125 -15.765625 6.3125 -15.765625 C 5.539062 -15.765625 4.875 -15.53125 4.3125 -15.0625 C 3.757812 -14.601562 3.484375 -14.039062 3.484375 -13.375 C 3.484375 -12.59375 3.863281 -11.921875 4.625 -11.359375 C 5.164062 -10.960938 5.921875 -10.484375 6.890625 -9.921875 C 7.742188 -9.398438 8.453125 -8.945312 9.015625 -8.5625 C 9.585938 -8.1875 10.117188 -7.78125 10.609375 -7.34375 C 11.054688 -6.914062 11.410156 -6.421875 11.671875 -5.859375 C 11.929688 -5.304688 12.0625 -4.738281 12.0625 -4.15625 C 12.0625 -3.34375 11.835938 -2.585938 11.390625 -1.890625 C 10.953125 -1.203125 10.347656 -0.65625 9.578125 -0.25 C 8.816406 0.15625 7.972656 0.359375 7.046875 0.359375 C 6.460938 0.359375 5.945312 0.304688 5.5 0.203125 C 5.050781 0.0976562 4.578125 -0.0390625 4.078125 -0.21875 C 3.546875 -0.40625 3.144531 -0.5 2.875 -0.5 C 2.445312 -0.5 2.125 -0.210938 1.90625 0.359375 L 1.46875 0.359375 L 1.46875 -5.125 L 1.90625 -5.125 C 2.164062 -3.71875 2.695312 -2.601562 3.5 -1.78125 C 4.300781 -0.957031 5.335938 -0.546875 6.609375 -0.546875 C 7.503906 -0.546875 8.242188 -0.789062 8.828125 -1.28125 C 9.421875 -1.769531 9.71875 -2.390625 9.71875 -3.140625 C 9.71875 -3.515625 9.644531 -3.859375 9.5 -4.171875 C 9.351562 -4.492188 9.113281 -4.835938 8.78125 -5.203125 C 8.488281 -5.515625 8.0625 -5.859375 7.5 -6.234375 C 6.945312 -6.609375 6.210938 -7.070312 5.296875 -7.625 C 4.515625 -8.101562 3.914062 -8.476562 3.5 -8.75 C 3.09375 -9.03125 2.789062 -9.269531 2.59375 -9.46875 C 1.78125 -10.300781 1.375 -11.289062 1.375 -12.4375 C 1.375 -13.226562 1.578125 -13.945312 1.984375 -14.59375 C 2.390625 -15.238281 2.9375 -15.742188 3.625 -16.109375 C 4.320312 -16.484375 5.109375 -16.671875 5.984375 -16.671875 Z M 5.984375 -16.671875 "/></g></g><g style="fill:#000000;fill-opacity:1;"><g transform="translate(574.473399, 506.511284)"><path style="stroke:none" d="M 9.90625 -16.671875 C 10.695312 -16.671875 11.378906 -16.59375 11.953125 -16.4375 C 12.535156 -16.289062 13.09375 -16.097656 13.625 -15.859375 C 14.070312 -15.691406 14.359375 -15.609375 14.484375 -15.609375 C 14.671875 -15.609375 14.851562 -15.707031 15.03125 -15.90625 C 15.207031 -16.101562 15.328125 -16.359375 15.390625 -16.671875 L 15.796875 -16.671875 L 16.203125 -11.15625 L 15.796875 -11.15625 C 15.648438 -12.125 15.296875 -12.957031 14.734375 -13.65625 C 14.171875 -14.351562 13.484375 -14.878906 12.671875 -15.234375 C 11.859375 -15.585938 11 -15.765625 10.09375 -15.765625 C 8.238281 -15.765625 6.753906 -15.101562 5.640625 -13.78125 C 4.523438 -12.457031 3.96875 -10.460938 3.96875 -7.796875 C 3.96875 -6.210938 4.269531 -4.882812 4.875 -3.8125 C 5.488281 -2.738281 6.289062 -1.945312 7.28125 -1.4375 C 8.269531 -0.925781 9.328125 -0.671875 10.453125 -0.671875 C 11.609375 -0.671875 12.707031 -0.960938 13.75 -1.546875 C 14.789062 -2.128906 15.609375 -2.910156 16.203125 -3.890625 L 16.546875 -3.65625 C 14.984375 -0.976562 12.675781 0.359375 9.625 0.359375 C 8.039062 0.359375 6.585938 -0.0078125 5.265625 -0.75 C 3.953125 -1.488281 2.910156 -2.488281 2.140625 -3.75 C 1.378906 -5.019531 1 -6.414062 1 -7.9375 C 1 -9.53125 1.394531 -10.992188 2.1875 -12.328125 C 2.976562 -13.671875 4.050781 -14.726562 5.40625 -15.5 C 6.769531 -16.28125 8.269531 -16.671875 9.90625 -16.671875 Z M 9.90625 -16.671875 "/></g></g><g style="fill:#000000;fill-opacity:1;"><g transform="translate(591.544777, 506.511284)"><path style="stroke:none" d="M 2.734375 -3.15625 L 8.8125 -17.03125 L 9.234375 -17.03125 L 15.65625 -2.25 C 15.882812 -1.71875 16.109375 -1.320312 16.328125 -1.0625 C 16.546875 -0.800781 16.769531 -0.628906 17 -0.546875 C 17.238281 -0.460938 17.566406 -0.421875 17.984375 -0.421875 L 17.984375 0 L 11.28125 0 L 11.28125 -0.421875 C 11.851562 -0.421875 12.28125 -0.523438 12.5625 -0.734375 C 12.84375 -0.941406 12.984375 -1.21875 12.984375 -1.5625 C 12.984375 -1.863281 12.882812 -2.238281 12.6875 -2.6875 L 11.453125 -5.484375 L 4.875 -5.484375 L 3.515625 -2.375 C 3.359375 -2.0625 3.28125 -1.773438 3.28125 -1.515625 C 3.28125 -0.785156 3.863281 -0.421875 5.03125 -0.421875 L 5.03125 0 L 0.328125 0 L 0.328125 -0.421875 C 0.722656 -0.472656 1.039062 -0.585938 1.28125 -0.765625 C 1.53125 -0.953125 1.753906 -1.21875 1.953125 -1.5625 C 2.148438 -1.914062 2.410156 -2.445312 2.734375 -3.15625 Z M 11.0625 -6.390625 L 8.171875 -13.015625 L 5.265625 -6.390625 Z M 11.0625 -6.390625 "/></g></g><g style="fill:#000000;fill-opacity:1;"><g transform="translate(609.850807, 506.511284)"><path style="stroke:none" d="M 8.3125 -15.890625 C 7.488281 -15.890625 6.898438 -15.757812 6.546875 -15.5 C 6.191406 -15.238281 6.015625 -14.710938 6.015625 -13.921875 L 6.015625 -2 C 6.015625 -1.664062 6.078125 -1.425781 6.203125 -1.28125 C 6.335938 -1.132812 6.566406 -1.0625 6.890625 -1.0625 L 10.421875 -1.0625 C 11.242188 -1.0625 11.925781 -1.164062 12.46875 -1.375 C 13.007812 -1.59375 13.472656 -1.941406 13.859375 -2.421875 C 14.242188 -2.910156 14.617188 -3.597656 14.984375 -4.484375 L 15.390625 -4.34375 L 14.015625 0 L 1 0 L 1 -0.421875 L 1.15625 -0.421875 C 1.96875 -0.421875 2.550781 -0.5625 2.90625 -0.84375 C 3.257812 -1.132812 3.4375 -1.65625 3.4375 -2.40625 L 3.4375 -13.9375 C 3.4375 -14.664062 3.25 -15.171875 2.875 -15.453125 C 2.507812 -15.742188 1.929688 -15.890625 1.140625 -15.890625 L 1 -15.890625 L 1 -16.3125 L 8.3125 -16.3125 Z M 8.3125 -15.890625 "/></g></g><g style="fill:#000000;fill-opacity:1;"><g transform="translate(625.687534, 506.511284)"><path style="stroke:none" d="M 8.34375 -15.890625 C 7.675781 -15.890625 7.164062 -15.828125 6.8125 -15.703125 C 6.46875 -15.585938 6.222656 -15.375 6.078125 -15.0625 C 5.929688 -14.757812 5.859375 -14.316406 5.859375 -13.734375 L 5.859375 -2.375 C 5.859375 -1.832031 5.945312 -1.421875 6.125 -1.140625 C 6.300781 -0.867188 6.5625 -0.6875 6.90625 -0.59375 C 7.257812 -0.5 7.738281 -0.441406 8.34375 -0.421875 L 8.34375 0 L 0.828125 0 L 0.828125 -0.421875 C 1.460938 -0.441406 1.945312 -0.5 2.28125 -0.59375 C 2.625 -0.6875 2.878906 -0.867188 3.046875 -1.140625 C 3.210938 -1.421875 3.296875 -1.84375 3.296875 -2.40625 L 3.296875 -13.734375 C 3.296875 -14.316406 3.21875 -14.757812 3.0625 -15.0625 C 2.914062 -15.363281 2.671875 -15.570312 2.328125 -15.6875 C 1.992188 -15.800781 1.492188 -15.867188 0.828125 -15.890625 L 0.828125 -16.3125 L 8.34375 -16.3125 Z M 8.34375 -15.890625 "/></g></g><g style="fill:#000000;fill-opacity:1;"><g transform="translate(634.828683, 506.511284)"><path style="stroke:none" d="M 15.609375 -4.28125 L 15.609375 -14.0625 C 15.609375 -14.769531 15.476562 -15.242188 15.21875 -15.484375 C 14.96875 -15.734375 14.503906 -15.867188 13.828125 -15.890625 L 13.234375 -15.890625 L 13.234375 -16.3125 L 19.234375 -16.3125 L 19.234375 -15.890625 L 18.734375 -15.890625 C 18.097656 -15.890625 17.644531 -15.847656 17.375 -15.765625 C 17.113281 -15.691406 16.929688 -15.503906 16.828125 -15.203125 C 16.722656 -14.910156 16.671875 -14.4375 16.671875 -13.78125 L 16.671875 0.1875 L 16.34375 0.1875 L 4.671875 -12.9375 L 4.671875 -2.75 C 4.671875 -1.863281 4.847656 -1.253906 5.203125 -0.921875 C 5.566406 -0.585938 6.179688 -0.421875 7.046875 -0.421875 L 7.046875 0 L 1.15625 0 L 1.15625 -0.421875 L 1.3125 -0.421875 C 2.070312 -0.421875 2.648438 -0.5625 3.046875 -0.84375 C 3.441406 -1.125 3.640625 -1.632812 3.640625 -2.375 L 3.640625 -13.984375 C 3.222656 -14.679688 2.753906 -15.171875 2.234375 -15.453125 C 1.710938 -15.742188 1.070312 -15.890625 0.3125 -15.890625 L 0.3125 -16.3125 L 5.0625 -16.3125 Z M 15.609375 -4.28125 "/></g></g><g style="fill:#000000;fill-opacity:1;"><g transform="translate(654.369341, 506.511284)"><path style="stroke:none" d="M 10.40625 -16.671875 C 11.257812 -16.671875 12.003906 -16.59375 12.640625 -16.4375 C 13.285156 -16.28125 13.929688 -16.070312 14.578125 -15.8125 C 15.035156 -15.644531 15.3125 -15.5625 15.40625 -15.5625 C 15.601562 -15.5625 15.769531 -15.65625 15.90625 -15.84375 C 16.050781 -16.03125 16.140625 -16.304688 16.171875 -16.671875 L 16.625 -16.671875 L 17.046875 -11.46875 L 16.625 -11.46875 C 16.40625 -12.375 15.976562 -13.148438 15.34375 -13.796875 C 14.707031 -14.441406 13.96875 -14.929688 13.125 -15.265625 C 12.289062 -15.597656 11.4375 -15.765625 10.5625 -15.765625 C 9.375 -15.765625 8.28125 -15.46875 7.28125 -14.875 C 6.289062 -14.28125 5.492188 -13.410156 4.890625 -12.265625 C 4.285156 -11.117188 3.984375 -9.742188 3.984375 -8.140625 C 3.984375 -6.671875 4.296875 -5.359375 4.921875 -4.203125 C 5.546875 -3.046875 6.394531 -2.144531 7.46875 -1.5 C 8.539062 -0.863281 9.703125 -0.546875 10.953125 -0.546875 C 11.617188 -0.546875 12.234375 -0.632812 12.796875 -0.8125 C 13.367188 -1 13.972656 -1.304688 14.609375 -1.734375 L 14.609375 -6.4375 C 14.609375 -7.132812 14.425781 -7.617188 14.0625 -7.890625 C 13.695312 -8.171875 13.117188 -8.320312 12.328125 -8.34375 L 12.328125 -8.765625 L 19.328125 -8.765625 L 19.328125 -8.34375 C 18.742188 -8.289062 18.304688 -8.203125 18.015625 -8.078125 C 17.722656 -7.953125 17.507812 -7.726562 17.375 -7.40625 C 17.238281 -7.09375 17.171875 -6.617188 17.171875 -5.984375 L 17.171875 -1.359375 C 16.015625 -0.722656 14.984375 -0.273438 14.078125 -0.015625 C 13.179688 0.234375 12.078125 0.359375 10.765625 0.359375 C 8.703125 0.359375 6.929688 -0.0351562 5.453125 -0.828125 C 3.984375 -1.617188 2.875 -2.628906 2.125 -3.859375 C 1.382812 -5.085938 1.015625 -6.347656 1.015625 -7.640625 C 1.015625 -9.296875 1.429688 -10.8125 2.265625 -12.1875 C 3.097656 -13.5625 4.226562 -14.648438 5.65625 -15.453125 C 7.09375 -16.265625 8.675781 -16.671875 10.40625 -16.671875 Z M 10.40625 -16.671875 "/></g></g><g style="fill:#000000;fill-opacity:1;"><g transform="translate(673.909998, 506.511284)"><path style="stroke:none" d=""/></g></g><g style="fill:#000000;fill-opacity:1;"><g transform="translate(679.845804, 506.511284)"><path style="stroke:none" d="M 15.609375 -4.28125 L 15.609375 -14.0625 C 15.609375 -14.769531 15.476562 -15.242188 15.21875 -15.484375 C 14.96875 -15.734375 14.503906 -15.867188 13.828125 -15.890625 L 13.234375 -15.890625 L 13.234375 -16.3125 L 19.234375 -16.3125 L 19.234375 -15.890625 L 18.734375 -15.890625 C 18.097656 -15.890625 17.644531 -15.847656 17.375 -15.765625 C 17.113281 -15.691406 16.929688 -15.503906 16.828125 -15.203125 C 16.722656 -14.910156 16.671875 -14.4375 16.671875 -13.78125 L 16.671875 0.1875 L 16.34375 0.1875 L 4.671875 -12.9375 L 4.671875 -2.75 C 4.671875 -1.863281 4.847656 -1.253906 5.203125 -0.921875 C 5.566406 -0.585938 6.179688 -0.421875 7.046875 -0.421875 L 7.046875 0 L 1.15625 0 L 1.15625 -0.421875 L 1.3125 -0.421875 C 2.070312 -0.421875 2.648438 -0.5625 3.046875 -0.84375 C 3.441406 -1.125 3.640625 -1.632812 3.640625 -2.375 L 3.640625 -13.984375 C 3.222656 -14.679688 2.753906 -15.171875 2.234375 -15.453125 C 1.710938 -15.742188 1.070312 -15.890625 0.3125 -15.890625 L 0.3125 -16.3125 L 5.0625 -16.3125 Z M 15.609375 -4.28125 "/></g></g><g style="fill:#000000;fill-opacity:1;"><g transform="translate(699.386461, 506.511284)"><path style="stroke:none" d="M 13.984375 -12.703125 L 13.578125 -12.703125 C 13.421875 -13.609375 13.128906 -14.273438 12.703125 -14.703125 C 12.273438 -15.140625 11.679688 -15.359375 10.921875 -15.359375 L 5.765625 -15.359375 L 5.765625 -9.078125 L 10 -9.078125 C 10.757812 -9.078125 11.296875 -9.265625 11.609375 -9.640625 C 11.929688 -10.023438 12.097656 -10.628906 12.109375 -11.453125 L 12.546875 -11.453125 L 12.546875 -5.703125 L 12.109375 -5.703125 C 12.109375 -6.523438 11.945312 -7.132812 11.625 -7.53125 C 11.3125 -7.925781 10.753906 -8.125 9.953125 -8.125 L 5.765625 -8.125 L 5.765625 -2.15625 C 5.765625 -1.351562 6.082031 -0.953125 6.71875 -0.953125 L 10.90625 -0.953125 C 11.769531 -0.953125 12.535156 -1.21875 13.203125 -1.75 C 13.867188 -2.28125 14.40625 -3.050781 14.8125 -4.0625 L 15.3125 -4.0625 L 13.984375 0 L 0.859375 0 L 0.859375 -0.421875 C 1.679688 -0.421875 2.273438 -0.5625 2.640625 -0.84375 C 3.015625 -1.125 3.203125 -1.644531 3.203125 -2.40625 L 3.203125 -14.078125 C 3.203125 -14.710938 3.015625 -15.171875 2.640625 -15.453125 C 2.273438 -15.742188 1.679688 -15.890625 0.859375 -15.890625 L 0.859375 -16.3125 L 13.796875 -16.3125 Z M 13.984375 -12.703125 "/></g></g><g style="fill:#000000;fill-opacity:1;"><g transform="translate(715.223188, 506.511284)"><path style="stroke:none" d="M 6.40625 -15.890625 C 5.445312 -15.859375 4.96875 -15.507812 4.96875 -14.84375 C 4.96875 -14.625 5.003906 -14.382812 5.078125 -14.125 C 5.160156 -13.875 5.34375 -13.351562 5.625 -12.5625 L 8.59375 -4.296875 L 8.640625 -4.296875 L 11.25 -11.5625 L 10.328125 -13.984375 C 10.140625 -14.472656 9.96875 -14.84375 9.8125 -15.09375 C 9.664062 -15.34375 9.460938 -15.53125 9.203125 -15.65625 C 8.953125 -15.78125 8.597656 -15.859375 8.140625 -15.890625 L 8.140625 -16.3125 L 14.625 -16.3125 L 14.625 -15.890625 C 14.132812 -15.835938 13.742188 -15.726562 13.453125 -15.5625 C 13.160156 -15.394531 13.015625 -15.113281 13.015625 -14.71875 C 13.015625 -14.226562 13.15625 -13.632812 13.4375 -12.9375 L 16.765625 -4.296875 L 19.90625 -13.140625 C 20.070312 -13.609375 20.179688 -13.941406 20.234375 -14.140625 C 20.285156 -14.335938 20.3125 -14.554688 20.3125 -14.796875 C 20.3125 -15.503906 19.738281 -15.867188 18.59375 -15.890625 L 18.59375 -16.3125 L 23.328125 -16.3125 L 23.328125 -15.890625 C 22.785156 -15.867188 22.347656 -15.644531 22.015625 -15.21875 C 21.679688 -14.789062 21.3125 -13.992188 20.90625 -12.828125 L 16.25 0.328125 L 15.796875 0.328125 L 11.828125 -10.09375 L 8.03125 0.328125 L 7.640625 0.328125 L 2.5 -13.65625 C 2.238281 -14.332031 2.007812 -14.820312 1.8125 -15.125 C 1.613281 -15.425781 1.40625 -15.617188 1.1875 -15.703125 C 0.96875 -15.796875 0.628906 -15.859375 0.171875 -15.890625 L 0.171875 -16.3125 L 6.40625 -16.3125 Z M 6.40625 -15.890625 "/></g></g><g style="fill:#000000;fill-opacity:1;"><g transform="translate(738.728959, 506.511284)"><path style="stroke:none" d=""/></g></g><g style="fill:#000000;fill-opacity:1;"><g transform="translate(744.664765, 506.511284)"><path style="stroke:none" d="M 8.140625 -15.890625 L 8 -15.890625 C 7.207031 -15.890625 6.632812 -15.742188 6.28125 -15.453125 C 5.925781 -15.171875 5.75 -14.660156 5.75 -13.921875 L 5.75 -9.078125 L 13.78125 -9.078125 L 13.78125 -13.9375 C 13.78125 -14.6875 13.597656 -15.195312 13.234375 -15.46875 C 12.867188 -15.75 12.289062 -15.890625 11.5 -15.890625 L 11.359375 -15.890625 L 11.359375 -16.3125 L 18.71875 -16.3125 L 18.71875 -15.890625 C 17.875 -15.890625 17.265625 -15.753906 16.890625 -15.484375 C 16.523438 -15.210938 16.34375 -14.679688 16.34375 -13.890625 L 16.34375 -2.375 C 16.34375 -1.601562 16.523438 -1.082031 16.890625 -0.8125 C 17.265625 -0.550781 17.875 -0.421875 18.71875 -0.421875 L 18.71875 0 L 11.359375 0 L 11.359375 -0.421875 C 12.222656 -0.421875 12.84375 -0.550781 13.21875 -0.8125 C 13.59375 -1.082031 13.78125 -1.613281 13.78125 -2.40625 L 13.78125 -8.125 L 5.75 -8.125 L 5.75 -2.40625 C 5.75 -1.613281 5.929688 -1.082031 6.296875 -0.8125 C 6.671875 -0.550781 7.285156 -0.421875 8.140625 -0.421875 L 8.140625 0 L 0.828125 0 L 0.828125 -0.421875 C 1.671875 -0.441406 2.273438 -0.585938 2.640625 -0.859375 C 3.003906 -1.128906 3.1875 -1.644531 3.1875 -2.40625 L 3.1875 -13.9375 C 3.1875 -14.664062 3.003906 -15.171875 2.640625 -15.453125 C 2.273438 -15.742188 1.710938 -15.890625 0.953125 -15.890625 L 0.828125 -15.890625 L 0.828125 -16.3125 L 8.140625 -16.3125 Z M 8.140625 -15.890625 "/></g></g><g style="fill:#000000;fill-opacity:1;"><g transform="translate(764.205422, 506.511284)"><path style="stroke:none" d="M 13.984375 -12.703125 L 13.578125 -12.703125 C 13.421875 -13.609375 13.128906 -14.273438 12.703125 -14.703125 C 12.273438 -15.140625 11.679688 -15.359375 10.921875 -15.359375 L 5.765625 -15.359375 L 5.765625 -9.078125 L 10 -9.078125 C 10.757812 -9.078125 11.296875 -9.265625 11.609375 -9.640625 C 11.929688 -10.023438 12.097656 -10.628906 12.109375 -11.453125 L 12.546875 -11.453125 L 12.546875 -5.703125 L 12.109375 -5.703125 C 12.109375 -6.523438 11.945312 -7.132812 11.625 -7.53125 C 11.3125 -7.925781 10.753906 -8.125 9.953125 -8.125 L 5.765625 -8.125 L 5.765625 -2.15625 C 5.765625 -1.351562 6.082031 -0.953125 6.71875 -0.953125 L 10.90625 -0.953125 C 11.769531 -0.953125 12.535156 -1.21875 13.203125 -1.75 C 13.867188 -2.28125 14.40625 -3.050781 14.8125 -4.0625 L 15.3125 -4.0625 L 13.984375 0 L 0.859375 0 L 0.859375 -0.421875 C 1.679688 -0.421875 2.273438 -0.5625 2.640625 -0.84375 C 3.015625 -1.125 3.203125 -1.644531 3.203125 -2.40625 L 3.203125 -14.078125 C 3.203125 -14.710938 3.015625 -15.171875 2.640625 -15.453125 C 2.273438 -15.742188 1.679688 -15.890625 0.859375 -15.890625 L 0.859375 -16.3125 L 13.796875 -16.3125 Z M 13.984375 -12.703125 "/></g></g><g style="fill:#000000;fill-opacity:1;"><g transform="translate(780.042149, 506.511284)"><path style="stroke:none" d="M 8.34375 -15.890625 C 7.675781 -15.890625 7.164062 -15.828125 6.8125 -15.703125 C 6.46875 -15.585938 6.222656 -15.375 6.078125 -15.0625 C 5.929688 -14.757812 5.859375 -14.316406 5.859375 -13.734375 L 5.859375 -2.375 C 5.859375 -1.832031 5.945312 -1.421875 6.125 -1.140625 C 6.300781 -0.867188 6.5625 -0.6875 6.90625 -0.59375 C 7.257812 -0.5 7.738281 -0.441406 8.34375 -0.421875 L 8.34375 0 L 0.828125 0 L 0.828125 -0.421875 C 1.460938 -0.441406 1.945312 -0.5 2.28125 -0.59375 C 2.625 -0.6875 2.878906 -0.867188 3.046875 -1.140625 C 3.210938 -1.421875 3.296875 -1.84375 3.296875 -2.40625 L 3.296875 -13.734375 C 3.296875 -14.316406 3.21875 -14.757812 3.0625 -15.0625 C 2.914062 -15.363281 2.671875 -15.570312 2.328125 -15.6875 C 1.992188 -15.800781 1.492188 -15.867188 0.828125 -15.890625 L 0.828125 -16.3125 L 8.34375 -16.3125 Z M 8.34375 -15.890625 "/></g></g><g style="fill:#000000;fill-opacity:1;"><g transform="translate(789.183299, 506.511284)"><path style="stroke:none" d="M 10.40625 -16.671875 C 11.257812 -16.671875 12.003906 -16.59375 12.640625 -16.4375 C 13.285156 -16.28125 13.929688 -16.070312 14.578125 -15.8125 C 15.035156 -15.644531 15.3125 -15.5625 15.40625 -15.5625 C 15.601562 -15.5625 15.769531 -15.65625 15.90625 -15.84375 C 16.050781 -16.03125 16.140625 -16.304688 16.171875 -16.671875 L 16.625 -16.671875 L 17.046875 -11.46875 L 16.625 -11.46875 C 16.40625 -12.375 15.976562 -13.148438 15.34375 -13.796875 C 14.707031 -14.441406 13.96875 -14.929688 13.125 -15.265625 C 12.289062 -15.597656 11.4375 -15.765625 10.5625 -15.765625 C 9.375 -15.765625 8.28125 -15.46875 7.28125 -14.875 C 6.289062 -14.28125 5.492188 -13.410156 4.890625 -12.265625 C 4.285156 -11.117188 3.984375 -9.742188 3.984375 -8.140625 C 3.984375 -6.671875 4.296875 -5.359375 4.921875 -4.203125 C 5.546875 -3.046875 6.394531 -2.144531 7.46875 -1.5 C 8.539062 -0.863281 9.703125 -0.546875 10.953125 -0.546875 C 11.617188 -0.546875 12.234375 -0.632812 12.796875 -0.8125 C 13.367188 -1 13.972656 -1.304688 14.609375 -1.734375 L 14.609375 -6.4375 C 14.609375 -7.132812 14.425781 -7.617188 14.0625 -7.890625 C 13.695312 -8.171875 13.117188 -8.320312 12.328125 -8.34375 L 12.328125 -8.765625 L 19.328125 -8.765625 L 19.328125 -8.34375 C 18.742188 -8.289062 18.304688 -8.203125 18.015625 -8.078125 C 17.722656 -7.953125 17.507812 -7.726562 17.375 -7.40625 C 17.238281 -7.09375 17.171875 -6.617188 17.171875 -5.984375 L 17.171875 -1.359375 C 16.015625 -0.722656 14.984375 -0.273438 14.078125 -0.015625 C 13.179688 0.234375 12.078125 0.359375 10.765625 0.359375 C 8.703125 0.359375 6.929688 -0.0351562 5.453125 -0.828125 C 3.984375 -1.617188 2.875 -2.628906 2.125 -3.859375 C 1.382812 -5.085938 1.015625 -6.347656 1.015625 -7.640625 C 1.015625 -9.296875 1.429688 -10.8125 2.265625 -12.1875 C 3.097656 -13.5625 4.226562 -14.648438 5.65625 -15.453125 C 7.09375 -16.265625 8.675781 -16.671875 10.40625 -16.671875 Z M 10.40625 -16.671875 "/></g></g><g style="fill:#000000;fill-opacity:1;"><g transform="translate(808.723956, 506.511284)"><path style="stroke:none" d="M 8.140625 -15.890625 L 8 -15.890625 C 7.207031 -15.890625 6.632812 -15.742188 6.28125 -15.453125 C 5.925781 -15.171875 5.75 -14.660156 5.75 -13.921875 L 5.75 -9.078125 L 13.78125 -9.078125 L 13.78125 -13.9375 C 13.78125 -14.6875 13.597656 -15.195312 13.234375 -15.46875 C 12.867188 -15.75 12.289062 -15.890625 11.5 -15.890625 L 11.359375 -15.890625 L 11.359375 -16.3125 L 18.71875 -16.3125 L 18.71875 -15.890625 C 17.875 -15.890625 17.265625 -15.753906 16.890625 -15.484375 C 16.523438 -15.210938 16.34375 -14.679688 16.34375 -13.890625 L 16.34375 -2.375 C 16.34375 -1.601562 16.523438 -1.082031 16.890625 -0.8125 C 17.265625 -0.550781 17.875 -0.421875 18.71875 -0.421875 L 18.71875 0 L 11.359375 0 L 11.359375 -0.421875 C 12.222656 -0.421875 12.84375 -0.550781 13.21875 -0.8125 C 13.59375 -1.082031 13.78125 -1.613281 13.78125 -2.40625 L 13.78125 -8.125 L 5.75 -8.125 L 5.75 -2.40625 C 5.75 -1.613281 5.929688 -1.082031 6.296875 -0.8125 C 6.671875 -0.550781 7.285156 -0.421875 8.140625 -0.421875 L 8.140625 0 L 0.828125 0 L 0.828125 -0.421875 C 1.671875 -0.441406 2.273438 -0.585938 2.640625 -0.859375 C 3.003906 -1.128906 3.1875 -1.644531 3.1875 -2.40625 L 3.1875 -13.9375 C 3.1875 -14.664062 3.003906 -15.171875 2.640625 -15.453125 C 2.273438 -15.742188 1.710938 -15.890625 0.953125 -15.890625 L 0.828125 -15.890625 L 0.828125 -16.3125 L 8.140625 -16.3125 Z M 8.140625 -15.890625 "/></g></g><g style="fill:#000000;fill-opacity:1;"><g transform="translate(828.264613, 506.511284)"><path style="stroke:none" d="M 15.25 -12.609375 L 14.796875 -12.609375 C 14.578125 -14.378906 13.617188 -15.265625 11.921875 -15.265625 L 9.1875 -15.265625 L 9.1875 -2.234375 C 9.1875 -1.515625 9.390625 -1.03125 9.796875 -0.78125 C 10.210938 -0.539062 10.800781 -0.421875 11.5625 -0.421875 L 11.5625 0 L 4.25 0 L 4.25 -0.421875 C 5.09375 -0.421875 5.695312 -0.5625 6.0625 -0.84375 C 6.4375 -1.132812 6.625 -1.65625 6.625 -2.40625 L 6.625 -15.265625 L 3.734375 -15.265625 C 2.984375 -15.265625 2.359375 -15.046875 1.859375 -14.609375 C 1.359375 -14.179688 1.078125 -13.515625 1.015625 -12.609375 L 0.59375 -12.609375 L 0.71875 -16.3125 L 15.125 -16.3125 Z M 15.25 -12.609375 "/></g></g><g style="fill:#000000;fill-opacity:1;"><g transform="translate(844.101339, 506.511284)"><path style="stroke:none" d="M 5.984375 -16.671875 C 6.523438 -16.671875 6.992188 -16.617188 7.390625 -16.515625 C 7.785156 -16.410156 8.1875 -16.273438 8.59375 -16.109375 C 8.800781 -16.023438 9.003906 -15.953125 9.203125 -15.890625 C 9.398438 -15.828125 9.578125 -15.796875 9.734375 -15.796875 C 10.117188 -15.796875 10.421875 -16.085938 10.640625 -16.671875 L 11.09375 -16.671875 L 11.09375 -11.25 L 10.640625 -11.25 C 10.554688 -12.09375 10.304688 -12.859375 9.890625 -13.546875 C 9.472656 -14.234375 8.953125 -14.773438 8.328125 -15.171875 C 7.703125 -15.566406 7.03125 -15.765625 6.3125 -15.765625 C 5.539062 -15.765625 4.875 -15.53125 4.3125 -15.0625 C 3.757812 -14.601562 3.484375 -14.039062 3.484375 -13.375 C 3.484375 -12.59375 3.863281 -11.921875 4.625 -11.359375 C 5.164062 -10.960938 5.921875 -10.484375 6.890625 -9.921875 C 7.742188 -9.398438 8.453125 -8.945312 9.015625 -8.5625 C 9.585938 -8.1875 10.117188 -7.78125 10.609375 -7.34375 C 11.054688 -6.914062 11.410156 -6.421875 11.671875 -5.859375 C 11.929688 -5.304688 12.0625 -4.738281 12.0625 -4.15625 C 12.0625 -3.34375 11.835938 -2.585938 11.390625 -1.890625 C 10.953125 -1.203125 10.347656 -0.65625 9.578125 -0.25 C 8.816406 0.15625 7.972656 0.359375 7.046875 0.359375 C 6.460938 0.359375 5.945312 0.304688 5.5 0.203125 C 5.050781 0.0976562 4.578125 -0.0390625 4.078125 -0.21875 C 3.546875 -0.40625 3.144531 -0.5 2.875 -0.5 C 2.445312 -0.5 2.125 -0.210938 1.90625 0.359375 L 1.46875 0.359375 L 1.46875 -5.125 L 1.90625 -5.125 C 2.164062 -3.71875 2.695312 -2.601562 3.5 -1.78125 C 4.300781 -0.957031 5.335938 -0.546875 6.609375 -0.546875 C 7.503906 -0.546875 8.242188 -0.789062 8.828125 -1.28125 C 9.421875 -1.769531 9.71875 -2.390625 9.71875 -3.140625 C 9.71875 -3.515625 9.644531 -3.859375 9.5 -4.171875 C 9.351562 -4.492188 9.113281 -4.835938 8.78125 -5.203125 C 8.488281 -5.515625 8.0625 -5.859375 7.5 -6.234375 C 6.945312 -6.609375 6.210938 -7.070312 5.296875 -7.625 C 4.515625 -8.101562 3.914062 -8.476562 3.5 -8.75 C 3.09375 -9.03125 2.789062 -9.269531 2.59375 -9.46875 C 1.78125 -10.300781 1.375 -11.289062 1.375 -12.4375 C 1.375 -13.226562 1.578125 -13.945312 1.984375 -14.59375 C 2.390625 -15.238281 2.9375 -15.742188 3.625 -16.109375 C 4.320312 -16.484375 5.109375 -16.671875 5.984375 -16.671875 Z M 5.984375 -16.671875 "/></g></g><g style="fill:#000000;fill-opacity:1;"><g transform="translate(857.207603, 506.511284)"><path style="stroke:none" d=""/></g></g><g style="fill:#000000;fill-opacity:1;"><g transform="translate(863.14341, 506.511284)"><path style="stroke:none" d="M 5.984375 -16.671875 C 6.523438 -16.671875 6.992188 -16.617188 7.390625 -16.515625 C 7.785156 -16.410156 8.1875 -16.273438 8.59375 -16.109375 C 8.800781 -16.023438 9.003906 -15.953125 9.203125 -15.890625 C 9.398438 -15.828125 9.578125 -15.796875 9.734375 -15.796875 C 10.117188 -15.796875 10.421875 -16.085938 10.640625 -16.671875 L 11.09375 -16.671875 L 11.09375 -11.25 L 10.640625 -11.25 C 10.554688 -12.09375 10.304688 -12.859375 9.890625 -13.546875 C 9.472656 -14.234375 8.953125 -14.773438 8.328125 -15.171875 C 7.703125 -15.566406 7.03125 -15.765625 6.3125 -15.765625 C 5.539062 -15.765625 4.875 -15.53125 4.3125 -15.0625 C 3.757812 -14.601562 3.484375 -14.039062 3.484375 -13.375 C 3.484375 -12.59375 3.863281 -11.921875 4.625 -11.359375 C 5.164062 -10.960938 5.921875 -10.484375 6.890625 -9.921875 C 7.742188 -9.398438 8.453125 -8.945312 9.015625 -8.5625 C 9.585938 -8.1875 10.117188 -7.78125 10.609375 -7.34375 C 11.054688 -6.914062 11.410156 -6.421875 11.671875 -5.859375 C 11.929688 -5.304688 12.0625 -4.738281 12.0625 -4.15625 C 12.0625 -3.34375 11.835938 -2.585938 11.390625 -1.890625 C 10.953125 -1.203125 10.347656 -0.65625 9.578125 -0.25 C 8.816406 0.15625 7.972656 0.359375 7.046875 0.359375 C 6.460938 0.359375 5.945312 0.304688 5.5 0.203125 C 5.050781 0.0976562 4.578125 -0.0390625 4.078125 -0.21875 C 3.546875 -0.40625 3.144531 -0.5 2.875 -0.5 C 2.445312 -0.5 2.125 -0.210938 1.90625 0.359375 L 1.46875 0.359375 L 1.46875 -5.125 L 1.90625 -5.125 C 2.164062 -3.71875 2.695312 -2.601562 3.5 -1.78125 C 4.300781 -0.957031 5.335938 -0.546875 6.609375 -0.546875 C 7.503906 -0.546875 8.242188 -0.789062 8.828125 -1.28125 C 9.421875 -1.769531 9.71875 -2.390625 9.71875 -3.140625 C 9.71875 -3.515625 9.644531 -3.859375 9.5 -4.171875 C 9.351562 -4.492188 9.113281 -4.835938 8.78125 -5.203125 C 8.488281 -5.515625 8.0625 -5.859375 7.5 -6.234375 C 6.945312 -6.609375 6.210938 -7.070312 5.296875 -7.625 C 4.515625 -8.101562 3.914062 -8.476562 3.5 -8.75 C 3.09375 -9.03125 2.789062 -9.269531 2.59375 -9.46875 C 1.78125 -10.300781 1.375 -11.289062 1.375 -12.4375 C 1.375 -13.226562 1.578125 -13.945312 1.984375 -14.59375 C 2.390625 -15.238281 2.9375 -15.742188 3.625 -16.109375 C 4.320312 -16.484375 5.109375 -16.671875 5.984375 -16.671875 Z M 5.984375 -16.671875 "/></g></g><g style="fill:#000000;fill-opacity:1;"><g transform="translate(876.249674, 506.511284)"><path style="stroke:none" d="M 8.34375 -15.890625 C 7.675781 -15.890625 7.164062 -15.828125 6.8125 -15.703125 C 6.46875 -15.585938 6.222656 -15.375 6.078125 -15.0625 C 5.929688 -14.757812 5.859375 -14.316406 5.859375 -13.734375 L 5.859375 -2.375 C 5.859375 -1.832031 5.945312 -1.421875 6.125 -1.140625 C 6.300781 -0.867188 6.5625 -0.6875 6.90625 -0.59375 C 7.257812 -0.5 7.738281 -0.441406 8.34375 -0.421875 L 8.34375 0 L 0.828125 0 L 0.828125 -0.421875 C 1.460938 -0.441406 1.945312 -0.5 2.28125 -0.59375 C 2.625 -0.6875 2.878906 -0.867188 3.046875 -1.140625 C 3.210938 -1.421875 3.296875 -1.84375 3.296875 -2.40625 L 3.296875 -13.734375 C 3.296875 -14.316406 3.21875 -14.757812 3.0625 -15.0625 C 2.914062 -15.363281 2.671875 -15.570312 2.328125 -15.6875 C 1.992188 -15.800781 1.492188 -15.867188 0.828125 -15.890625 L 0.828125 -16.3125 L 8.34375 -16.3125 Z M 8.34375 -15.890625 "/></g></g><g style="fill:#000000;fill-opacity:1;"><g transform="translate(885.390824, 506.511284)"><path style="stroke:none" d="M 15.609375 -4.28125 L 15.609375 -14.0625 C 15.609375 -14.769531 15.476562 -15.242188 15.21875 -15.484375 C 14.96875 -15.734375 14.503906 -15.867188 13.828125 -15.890625 L 13.234375 -15.890625 L 13.234375 -16.3125 L 19.234375 -16.3125 L 19.234375 -15.890625 L 18.734375 -15.890625 C 18.097656 -15.890625 17.644531 -15.847656 17.375 -15.765625 C 17.113281 -15.691406 16.929688 -15.503906 16.828125 -15.203125 C 16.722656 -14.910156 16.671875 -14.4375 16.671875 -13.78125 L 16.671875 0.1875 L 16.34375 0.1875 L 4.671875 -12.9375 L 4.671875 -2.75 C 4.671875 -1.863281 4.847656 -1.253906 5.203125 -0.921875 C 5.566406 -0.585938 6.179688 -0.421875 7.046875 -0.421875 L 7.046875 0 L 1.15625 0 L 1.15625 -0.421875 L 1.3125 -0.421875 C 2.070312 -0.421875 2.648438 -0.5625 3.046875 -0.84375 C 3.441406 -1.125 3.640625 -1.632812 3.640625 -2.375 L 3.640625 -13.984375 C 3.222656 -14.679688 2.753906 -15.171875 2.234375 -15.453125 C 1.710938 -15.742188 1.070312 -15.890625 0.3125 -15.890625 L 0.3125 -16.3125 L 5.0625 -16.3125 Z M 15.609375 -4.28125 "/></g></g><g style="fill:#000000;fill-opacity:1;"><g transform="translate(904.931481, 506.511284)"><path style="stroke:none" d="M 9.90625 -16.671875 C 10.695312 -16.671875 11.378906 -16.59375 11.953125 -16.4375 C 12.535156 -16.289062 13.09375 -16.097656 13.625 -15.859375 C 14.070312 -15.691406 14.359375 -15.609375 14.484375 -15.609375 C 14.671875 -15.609375 14.851562 -15.707031 15.03125 -15.90625 C 15.207031 -16.101562 15.328125 -16.359375 15.390625 -16.671875 L 15.796875 -16.671875 L 16.203125 -11.15625 L 15.796875 -11.15625 C 15.648438 -12.125 15.296875 -12.957031 14.734375 -13.65625 C 14.171875 -14.351562 13.484375 -14.878906 12.671875 -15.234375 C 11.859375 -15.585938 11 -15.765625 10.09375 -15.765625 C 8.238281 -15.765625 6.753906 -15.101562 5.640625 -13.78125 C 4.523438 -12.457031 3.96875 -10.460938 3.96875 -7.796875 C 3.96875 -6.210938 4.269531 -4.882812 4.875 -3.8125 C 5.488281 -2.738281 6.289062 -1.945312 7.28125 -1.4375 C 8.269531 -0.925781 9.328125 -0.671875 10.453125 -0.671875 C 11.609375 -0.671875 12.707031 -0.960938 13.75 -1.546875 C 14.789062 -2.128906 15.609375 -2.910156 16.203125 -3.890625 L 16.546875 -3.65625 C 14.984375 -0.976562 12.675781 0.359375 9.625 0.359375 C 8.039062 0.359375 6.585938 -0.0078125 5.265625 -0.75 C 3.953125 -1.488281 2.910156 -2.488281 2.140625 -3.75 C 1.378906 -5.019531 1 -6.414062 1 -7.9375 C 1 -9.53125 1.394531 -10.992188 2.1875 -12.328125 C 2.976562 -13.671875 4.050781 -14.726562 5.40625 -15.5 C 6.769531 -16.28125 8.269531 -16.671875 9.90625 -16.671875 Z M 9.90625 -16.671875 "/></g></g><g style="fill:#000000;fill-opacity:1;"><g transform="translate(922.002859, 506.511284)"><path style="stroke:none" d="M 13.984375 -12.703125 L 13.578125 -12.703125 C 13.421875 -13.609375 13.128906 -14.273438 12.703125 -14.703125 C 12.273438 -15.140625 11.679688 -15.359375 10.921875 -15.359375 L 5.765625 -15.359375 L 5.765625 -9.078125 L 10 -9.078125 C 10.757812 -9.078125 11.296875 -9.265625 11.609375 -9.640625 C 11.929688 -10.023438 12.097656 -10.628906 12.109375 -11.453125 L 12.546875 -11.453125 L 12.546875 -5.703125 L 12.109375 -5.703125 C 12.109375 -6.523438 11.945312 -7.132812 11.625 -7.53125 C 11.3125 -7.925781 10.753906 -8.125 9.953125 -8.125 L 5.765625 -8.125 L 5.765625 -2.15625 C 5.765625 -1.351562 6.082031 -0.953125 6.71875 -0.953125 L 10.90625 -0.953125 C 11.769531 -0.953125 12.535156 -1.21875 13.203125 -1.75 C 13.867188 -2.28125 14.40625 -3.050781 14.8125 -4.0625 L 15.3125 -4.0625 L 13.984375 0 L 0.859375 0 L 0.859375 -0.421875 C 1.679688 -0.421875 2.273438 -0.5625 2.640625 -0.84375 C 3.015625 -1.125 3.203125 -1.644531 3.203125 -2.40625 L 3.203125 -14.078125 C 3.203125 -14.710938 3.015625 -15.171875 2.640625 -15.453125 C 2.273438 -15.742188 1.679688 -15.890625 0.859375 -15.890625 L 0.859375 -16.3125 L 13.796875 -16.3125 Z M 13.984375 -12.703125 "/></g></g><g style="fill:#000000;fill-opacity:1;"><g transform="translate(937.839585, 506.511284)"><path style="stroke:none" d=""/></g></g><g style="fill:#000000;fill-opacity:1;"><g transform="translate(943.775392, 506.511284)"><path style="stroke:none" d="M 7.03125 -16.671875 L 7.03125 -2.28125 C 7.03125 -1.757812 7.101562 -1.363281 7.25 -1.09375 C 7.40625 -0.820312 7.617188 -0.640625 7.890625 -0.546875 C 8.171875 -0.460938 8.554688 -0.421875 9.046875 -0.421875 L 9.046875 0 L 2.96875 0 L 2.96875 -0.421875 C 3.738281 -0.421875 4.269531 -0.550781 4.5625 -0.8125 C 4.863281 -1.082031 5.015625 -1.5625 5.015625 -2.25 L 5.015625 -13.0625 C 5.015625 -14.1875 4.71875 -14.75 4.125 -14.75 C 3.84375 -14.75 3.457031 -14.625 2.96875 -14.375 L 2.734375 -14.75 L 6.578125 -16.671875 Z M 7.03125 -16.671875 "/></g></g><g style="fill:#000000;fill-opacity:1;"><g transform="translate(955.647004, 506.511284)"><path style="stroke:none" d="M 5.71875 -16.671875 C 6.6875 -16.671875 7.554688 -16.375 8.328125 -15.78125 C 9.109375 -15.1875 9.722656 -14.363281 10.171875 -13.3125 C 10.628906 -12.269531 10.859375 -11.117188 10.859375 -9.859375 C 10.859375 -8.492188 10.609375 -7.195312 10.109375 -5.96875 C 9.617188 -4.738281 8.941406 -3.648438 8.078125 -2.703125 C 7.222656 -1.773438 6.265625 -1.046875 5.203125 -0.515625 C 4.140625 0.015625 3.070312 0.28125 2 0.28125 L 1.21875 0.28125 L 1.21875 -0.1875 C 2.226562 -0.207031 3.210938 -0.515625 4.171875 -1.109375 C 5.140625 -1.703125 5.992188 -2.539062 6.734375 -3.625 C 7.472656 -4.707031 8 -5.953125 8.3125 -7.359375 C 7.738281 -6.953125 7.1875 -6.644531 6.65625 -6.4375 C 6.125 -6.226562 5.550781 -6.125 4.9375 -6.125 C 4.164062 -6.125 3.46875 -6.328125 2.84375 -6.734375 C 2.226562 -7.140625 1.742188 -7.703125 1.390625 -8.421875 C 1.046875 -9.140625 0.875 -9.941406 0.875 -10.828125 C 0.875 -11.890625 1.09375 -12.867188 1.53125 -13.765625 C 1.96875 -14.660156 2.550781 -15.367188 3.28125 -15.890625 C 4.019531 -16.410156 4.832031 -16.671875 5.71875 -16.671875 Z M 2.890625 -12.1875 C 2.890625 -10.90625 3.117188 -9.75 3.578125 -8.71875 C 4.046875 -7.6875 4.832031 -7.171875 5.9375 -7.171875 C 6.382812 -7.171875 6.785156 -7.238281 7.140625 -7.375 C 7.503906 -7.519531 7.941406 -7.769531 8.453125 -8.125 C 8.578125 -8.820312 8.640625 -9.46875 8.640625 -10.0625 C 8.640625 -10.84375 8.539062 -11.679688 8.34375 -12.578125 C 8.144531 -13.484375 7.804688 -14.269531 7.328125 -14.9375 C 6.859375 -15.601562 6.238281 -15.9375 5.46875 -15.9375 C 4.6875 -15.9375 4.0625 -15.59375 3.59375 -14.90625 C 3.125 -14.21875 2.890625 -13.3125 2.890625 -12.1875 Z M 2.890625 -12.1875 "/></g></g><g style="fill:#000000;fill-opacity:1;"><g transform="translate(967.518616, 506.511284)"><path style="stroke:none" d="M 5.71875 -16.671875 C 6.6875 -16.671875 7.554688 -16.375 8.328125 -15.78125 C 9.109375 -15.1875 9.722656 -14.363281 10.171875 -13.3125 C 10.628906 -12.269531 10.859375 -11.117188 10.859375 -9.859375 C 10.859375 -8.492188 10.609375 -7.195312 10.109375 -5.96875 C 9.617188 -4.738281 8.941406 -3.648438 8.078125 -2.703125 C 7.222656 -1.773438 6.265625 -1.046875 5.203125 -0.515625 C 4.140625 0.015625 3.070312 0.28125 2 0.28125 L 1.21875 0.28125 L 1.21875 -0.1875 C 2.226562 -0.207031 3.210938 -0.515625 4.171875 -1.109375 C 5.140625 -1.703125 5.992188 -2.539062 6.734375 -3.625 C 7.472656 -4.707031 8 -5.953125 8.3125 -7.359375 C 7.738281 -6.953125 7.1875 -6.644531 6.65625 -6.4375 C 6.125 -6.226562 5.550781 -6.125 4.9375 -6.125 C 4.164062 -6.125 3.46875 -6.328125 2.84375 -6.734375 C 2.226562 -7.140625 1.742188 -7.703125 1.390625 -8.421875 C 1.046875 -9.140625 0.875 -9.941406 0.875 -10.828125 C 0.875 -11.890625 1.09375 -12.867188 1.53125 -13.765625 C 1.96875 -14.660156 2.550781 -15.367188 3.28125 -15.890625 C 4.019531 -16.410156 4.832031 -16.671875 5.71875 -16.671875 Z M 2.890625 -12.1875 C 2.890625 -10.90625 3.117188 -9.75 3.578125 -8.71875 C 4.046875 -7.6875 4.832031 -7.171875 5.9375 -7.171875 C 6.382812 -7.171875 6.785156 -7.238281 7.140625 -7.375 C 7.503906 -7.519531 7.941406 -7.769531 8.453125 -8.125 C 8.578125 -8.820312 8.640625 -9.46875 8.640625 -10.0625 C 8.640625 -10.84375 8.539062 -11.679688 8.34375 -12.578125 C 8.144531 -13.484375 7.804688 -14.269531 7.328125 -14.9375 C 6.859375 -15.601562 6.238281 -15.9375 5.46875 -15.9375 C 4.6875 -15.9375 4.0625 -15.59375 3.59375 -14.90625 C 3.125 -14.21875 2.890625 -13.3125 2.890625 -12.1875 Z M 2.890625 -12.1875 "/></g></g><g style="fill:#000000;fill-opacity:1;"><g transform="translate(979.390228, 506.511284)"><path style="stroke:none" d="M 9.078125 -16.578125 L 9.078125 -5.859375 L 11.28125 -5.859375 L 11.28125 -4.109375 L 9.078125 -4.109375 L 9.078125 0 L 7.046875 0 L 7.046875 -4.109375 L 0.375 -4.109375 L 0.375 -5.96875 L 7.8125 -16.578125 Z M 1.375 -5.859375 L 7.046875 -5.859375 L 7.046875 -13.96875 L 7 -13.96875 Z M 1.375 -5.859375 "/></g></g><path style="fill:none;stroke-width:5;stroke-linecap:round;stroke-linejoin:miter;stroke:#000000;stroke-opacity:1;stroke-miterlimit:4;" d="M 2.50115 2.500843 L 89.661926 2.500982 " transform="matrix(0.00206415,1.617252,-1.617252,0.00206415,572.953393,312.301411)"/></g></svg>