<?xml version="1.0" standalone="no"?>
<!DOCTYPE svg PUBLIC "-//W3C//DTD SVG 20010904//EN"
 "http://www.w3.org/TR/2001/REC-SVG-20010904/DTD/svg10.dtd">
<svg version="1.0" xmlns="http://www.w3.org/2000/svg"
 width="932.000000pt" height="417.000000pt" viewBox="0 0 932.000000 417.000000"
 preserveAspectRatio="xMidYMid meet">

<g transform="translate(0.000000,417.000000) scale(0.100000,-0.100000)"
fill="#000000" stroke="none">
<path d="M0 2085 l0 -2085 4660 0 4660 0 0 2085 0 2085 -4660 0 -4660 0 0
-2085z m4241 1585 c16 -9 19 -22 19 -85 l0 -75 808 2 807 3 3 70 c2 38 8 75
14 82 13 16 80 17 96 1 7 -7 12 -36 12 -66 0 -85 8 -92 96 -92 70 0 75 -2 86
-25 7 -16 8 -35 2 -57 -10 -33 -10 -33 -87 -38 -54 -3 -81 -10 -87 -20 -15
-23 -13 -323 2 -338 9 -9 167 -12 650 -12 l638 0 0 69 c0 77 13 101 56 101 52
0 64 -15 64 -83 0 -34 4 -67 8 -74 5 -7 39 -13 87 -15 l79 -3 10 -33 c6 -22 5
-41 -2 -57 -11 -23 -17 -25 -84 -25 -40 0 -79 -4 -86 -8 -10 -7 -12 -184 -10
-853 l3 -844 85 -5 84 -5 10 -33 c6 -22 5 -40 -2 -57 -10 -22 -17 -24 -94 -27
l-83 -3 -5 -85 -5 -85 -55 0 -55 0 -5 85 -5 85 -805 0 -805 0 -3 -80 c-2 -48
-8 -82 -15 -87 -19 -12 -95 -9 -104 5 -4 6 -10 46 -13 87 l-5 75 -75 3 c-84 3
-100 12 -100 54 0 60 12 68 101 68 l79 0 -2 183 -3 182 -559 3 c-415 2 -562
-1 -573 -10 -21 -17 -15 -544 7 -558 8 -5 45 -10 83 -10 64 0 68 -1 78 -27 11
-30 4 -74 -14 -85 -7 -4 -41 -8 -77 -8 -38 0 -71 -5 -78 -12 -7 -7 -12 -41
-12 -85 0 -77 -10 -93 -59 -93 -43 0 -61 34 -61 115 l0 75 -807 -2 -808 -3 -3
-75 c-3 -81 -20 -110 -66 -110 -47 0 -61 23 -66 107 l-5 78 -75 3 c-41 2 -80
8 -87 14 -7 6 -13 25 -13 43 0 61 5 65 84 65 39 0 77 4 84 8 9 7 12 48 10 173
l-3 164 -696 3 -697 2 -4 -80 c-4 -90 -10 -100 -69 -100 -49 0 -59 14 -59 89
0 37 -4 71 -8 78 -4 7 -38 13 -82 15 -69 3 -75 5 -90 31 -13 24 -13 30 0 55
14 24 22 27 75 30 33 1 70 4 82 7 l23 5 0 839 c0 756 -2 839 -16 845 -9 3 -42
6 -74 6 -64 0 -80 13 -80 64 0 41 24 56 95 56 72 0 75 3 75 86 0 46 3 56 25
70 25 16 55 14 85 -5 9 -7 16 -33 18 -80 l4 -71 807 2 806 3 3 71 c3 70 4 72
34 85 26 10 35 10 57 -2 22 -12 26 -23 29 -64 5 -97 3 -95 85 -95 82 0 97 -9
97 -56 0 -59 -6 -64 -80 -64 -107 0 -100 11 -100 -170 0 -121 3 -160 14 -169
9 -8 182 -10 627 -9 l614 3 0 290 0 290 -55 3 c-98 4 -100 6 -100 62 0 56 2
58 100 62 l55 3 3 60 c3 82 17 105 59 105 19 0 43 -5 54 -10z m4265 -2978 c67
-54 58 -158 -19 -239 -47 -50 -61 -40 -25 18 43 68 50 151 18 192 -25 31 -57
35 -76 10 -28 -38 -8 -106 35 -121 l26 -10 -27 -7 c-34 -9 -85 25 -94 62 -8
32 19 86 49 101 34 16 90 13 113 -6z m240 0 c72 -58 53 -178 -40 -258 -40 -34
-63 -40 -31 -7 26 25 54 94 61 145 13 107 -81 165 -102 62 -6 -33 26 -84 52
-84 8 0 12 -4 9 -10 -10 -16 -45 -11 -76 11 -24 17 -29 27 -29 64 0 37 5 47
33 69 38 30 92 34 123 8z m253 -99 c1 -76 3 -83 21 -83 26 0 26 -30 1 -37 -25
-6 -34 -29 -21 -54 10 -17 7 -19 -30 -19 -37 0 -39 2 -29 19 23 36 5 51 -61
51 -68 0 -74 9 -36 53 13 15 34 43 47 62 23 34 39 44 39 26 0 -5 -7 -16 -15
-25 -8 -8 -15 -17 -15 -21 0 -4 -7 -13 -15 -22 -21 -21 -10 -33 31 -33 34 0
34 0 34 45 0 25 -5 54 -12 64 -9 15 -6 25 17 56 26 33 30 35 36 19 4 -11 8
-56 8 -101z m-769 -25 c0 -108 3 -135 17 -150 15 -17 14 -18 -37 -18 -42 0
-51 3 -42 12 8 8 12 50 12 125 0 100 -2 113 -17 113 -11 0 -6 8 17 25 19 14
38 25 42 25 4 0 8 -59 8 -132z m-5302 87 c3 -3 1 -10 -5 -16 -8 -8 -13 -8 -17
0 -16 25 -76 5 -76 -24 0 -7 23 -34 50 -62 57 -57 64 -92 28 -130 -16 -17 -32
-23 -65 -23 -42 0 -43 1 -42 33 0 30 1 30 10 9 7 -19 15 -23 41 -20 28 2 34 8
36 31 3 21 -5 35 -38 65 -66 59 -73 102 -22 135 25 16 85 17 100 2z m245 -42
c3 -5 1 -17 -3 -27 -6 -17 -7 -18 -13 -3 -5 13 -19 17 -55 17 -42 0 -50 -3
-65 -29 -30 -51 -17 -117 28 -141 13 -7 41 -11 64 -8 29 2 41 0 41 -9 0 -22
-109 -17 -147 7 -46 27 -62 84 -38 134 10 20 29 43 44 51 27 15 137 21 144 8z
m172 -85 c21 -51 42 -97 47 -102 14 -17 9 -26 -16 -26 -19 0 -27 8 -36 35 -9
28 -17 35 -36 35 -39 0 -64 -18 -64 -45 0 -18 -5 -25 -20 -25 -24 0 -24 -3 -1
46 20 43 42 92 62 142 8 17 17 32 20 32 3 0 23 -42 44 -92z m150 -5 l0 -98 43
-3 c67 -5 49 -22 -23 -22 l-65 0 0 110 c0 107 1 110 23 110 21 0 22 -3 22 -97z
m198 -16 c2 -105 2 -107 -20 -107 -22 0 -23 3 -23 111 0 106 1 110 21 107 20
-3 21 -10 22 -111z m202 0 c16 -15 33 -27 37 -27 5 0 8 32 8 71 0 60 2 70 16
67 14 -3 17 -17 15 -103 -1 -55 -6 -104 -10 -108 -4 -4 -41 23 -81 60 -40 37
-77 70 -82 72 -6 2 -8 -25 -6 -68 3 -65 1 -71 -17 -71 -19 0 -20 6 -17 87 1
49 5 99 8 112 5 24 6 23 52 -21 26 -25 60 -57 77 -71z m335 91 c0 -17 -3 -19
-12 -10 -7 7 -33 12 -59 12 -39 0 -49 -4 -63 -25 -22 -33 -20 -83 4 -122 16
-27 26 -33 54 -33 34 0 35 1 38 43 2 35 7 43 26 45 20 3 22 -1 22 -36 0 -66
-5 -72 -69 -72 -74 0 -116 25 -132 78 -9 33 -9 45 5 73 23 49 60 68 129 69 52
0 57 -2 57 -22z m363 -109 c5 5 8 37 5 70 -4 51 -2 61 11 61 14 0 16 -15 13
-107 -2 -60 -6 -110 -8 -112 -2 -2 -39 28 -83 67 -44 40 -82 72 -86 72 -4 0
-5 -31 -3 -70 3 -63 2 -70 -15 -70 -15 0 -18 5 -13 23 3 12 6 62 6 110 l0 88
82 -71 c51 -44 85 -67 91 -61z m227 122 c0 -6 -15 -11 -32 -13 -29 -3 -33 -6
-33 -33 0 -27 4 -30 33 -33 17 -2 32 -9 32 -15 0 -7 -14 -12 -32 -12 -32 0
-33 -2 -33 -40 0 -40 0 -40 43 -43 64 -5 40 -22 -31 -22 l-62 0 3 110 3 110
55 0 c30 0 54 -4 54 -9z m94 -3 c24 -84 36 -113 45 -110 21 4 24 -28 6 -64
-16 -33 -18 -34 -29 -17 -7 10 -21 45 -31 78 -10 33 -24 72 -31 86 -7 15 -10
29 -7 33 11 11 43 6 47 -6z m133 -37 c9 -20 19 -47 24 -60 9 -22 11 -23 28 -7
11 10 21 38 25 66 4 31 12 50 20 50 22 0 25 -10 11 -38 -27 -55 -45 -103 -45
-120 -1 -9 -7 -28 -15 -42 l-14 -25 -24 55 c-13 30 -27 63 -30 73 -8 20 -27
14 -27 -9 0 -8 -4 -14 -10 -14 -14 0 -13 18 7 72 19 52 28 52 50 -1z m320 7
l-2 -43 55 0 55 0 3 43 c3 36 6 42 25 42 21 0 22 -3 22 -110 l0 -110 -25 0
c-23 0 -25 3 -25 52 l0 53 -55 0 -55 0 1 -52 c2 -50 0 -53 -22 -53 -24 0 -24
1 -24 110 0 110 0 110 24 110 23 0 25 -4 23 -42z m368 32 c4 -6 -10 -10 -34
-10 -40 0 -41 -1 -41 -35 0 -33 2 -35 35 -35 19 0 35 -4 35 -10 0 -5 -16 -10
-35 -10 -35 0 -35 0 -35 -46 l0 -46 40 4 c28 2 40 0 40 -9 0 -9 -19 -13 -65
-13 l-65 0 0 110 0 110 59 0 c33 0 63 -4 66 -10z m125 -100 c0 -107 -1 -110
-22 -110 -22 0 -23 3 -23 110 0 107 1 110 23 110 21 0 22 -3 22 -110z m257 94
c3 -8 -17 -10 -64 -7 -67 5 -68 5 -85 -25 -24 -40 -23 -72 5 -113 20 -30 28
-34 67 -34 l45 0 0 40 c0 34 3 40 23 43 20 3 22 -1 22 -40 0 -24 -5 -49 -12
-56 -7 -7 -39 -12 -73 -12 -53 0 -65 4 -98 31 -33 27 -37 36 -37 76 0 39 5 50
36 80 35 32 39 34 102 31 37 -2 67 -8 69 -14z m130 -26 l-2 -43 55 0 55 0 1
40 c0 35 3 40 23 40 21 0 22 -3 24 -108 l2 -107 -25 0 c-24 0 -26 3 -25 53 l0
52 -55 0 -55 0 1 -52 c2 -50 0 -53 -22 -53 -24 0 -24 1 -24 110 0 110 0 110
24 110 23 0 25 -4 23 -42z m403 33 c0 -6 -15 -11 -32 -13 l-33 -3 0 -98 c0
-94 -1 -97 -22 -97 -21 0 -22 4 -25 98 l-3 97 -32 3 c-18 2 -33 7 -33 13 0 5
41 9 90 9 50 0 90 -4 90 -9z m160 -1 c0 -5 -16 -10 -35 -10 -46 0 -58 -26 -24
-51 70 -53 79 -62 79 -84 0 -38 -37 -65 -87 -65 -38 0 -43 3 -43 22 0 17 3 19
12 10 7 -7 27 -12 45 -12 28 0 33 3 33 25 0 17 -12 33 -45 55 -49 34 -59 68
-28 102 17 19 93 26 93 8z m290 0 c0 -5 -16 -10 -35 -10 -30 0 -35 -3 -35 -24
0 -14 10 -30 24 -39 59 -39 71 -76 37 -115 -13 -16 -30 -22 -60 -22 -22 0 -41
5 -41 10 0 6 18 10 39 10 60 0 62 24 6 78 -48 47 -56 75 -27 103 18 19 92 26
92 9z m115 -100 c0 -107 -1 -110 -22 -110 -22 0 -23 3 -23 110 0 107 1 110 23
110 21 0 22 -3 22 -110z m220 -3 c16 -15 33 -27 37 -27 5 0 8 32 8 71 0 60 2
70 16 67 14 -3 17 -17 15 -103 -1 -55 -6 -104 -10 -108 -4 -4 -41 23 -81 60
-40 37 -77 70 -82 72 -6 2 -8 -25 -6 -68 3 -65 1 -71 -17 -71 -19 0 -20 6 -17
87 1 49 5 99 8 112 5 24 6 23 52 -21 26 -25 60 -57 77 -71z m319 105 c2 -4 1
-14 -3 -21 -6 -9 -11 -10 -15 -2 -4 6 -29 11 -55 11 -41 0 -51 -4 -65 -25 -24
-36 -21 -95 8 -127 20 -24 31 -28 75 -28 28 0 51 -4 51 -10 0 -6 -28 -10 -65
-10 -60 0 -67 2 -100 35 -28 29 -35 43 -35 75 0 32 7 46 35 75 33 33 40 35
100 35 35 0 66 -4 69 -8z m191 -2 c4 -6 -10 -10 -34 -10 -40 0 -41 -1 -41 -35
0 -33 2 -35 35 -35 19 0 35 -4 35 -10 0 -5 -16 -10 -35 -10 -35 0 -35 0 -35
-46 l0 -46 40 4 c28 2 40 0 40 -9 0 -9 -19 -13 -65 -13 l-65 0 0 110 0 110 59
0 c33 0 63 -4 66 -10z"/>
<path d="M4265 3378 c-3 -7 -4 -391 -3 -853 l3 -840 785 -3 c432 -1 795 0 808
3 l22 5 0 844 c0 760 -2 844 -16 850 -9 3 -371 6 -805 6 -623 0 -791 -3 -794
-12z m1120 -112 c39 -7 82 -18 98 -24 26 -11 27 -14 27 -86 0 -41 -4 -77 -9
-80 -5 -4 -31 5 -58 18 -223 112 -478 50 -612 -149 -74 -109 -104 -223 -104
-400 1 -204 48 -341 153 -445 63 -63 117 -93 210 -116 99 -25 238 -7 353 45
25 12 51 21 56 21 16 0 14 -135 -1 -147 -48 -37 -237 -68 -371 -60 -163 9
-261 52 -369 161 -138 140 -197 325 -185 584 10 228 68 371 207 512 92 94 164
137 275 164 75 18 238 19 330 2z"/>
<path d="M1130 2300 l0 -850 808 2 807 3 0 845 0 845 -807 3 -808 2 0 -850z
m960 696 c88 -21 151 -53 203 -104 82 -79 117 -169 117 -297 0 -89 -17 -156
-56 -222 -59 -102 -131 -159 -247 -198 -67 -22 -92 -25 -219 -25 -99 0 -148
-4 -156 -12 -9 -9 -12 -82 -12 -265 l0 -253 -23 -5 c-13 -4 -50 -5 -82 -3
l-60 3 -3 685 c-1 377 0 691 3 698 7 18 459 16 535 -2z"/>
<path d="M1731 2856 c-8 -9 -11 -94 -9 -287 l3 -274 110 -3 c205 -6 321 42
376 155 34 71 33 211 -1 278 -26 51 -64 84 -122 108 -83 34 -334 51 -357 23z"/>
<path d="M6010 2881 c-14 -27 -14 -1155 0 -1182 9 -16 22 -19 86 -19 70 0 75
-2 86 -25 7 -16 8 -35 2 -57 l-10 -33 -74 -3 c-41 -2 -80 -8 -87 -14 -9 -7
-13 -36 -13 -85 l0 -74 -57 3 -58 3 -5 80 -5 80 -95 0 -95 0 -3 -182 -2 -183
810 0 810 0 -2 853 -3 852 -637 3 c-622 2 -637 2 -648 -17z m988 -227 c2 -42
-1 -64 -11 -72 -9 -8 -96 -13 -268 -14 l-254 -3 -3 -227 -2 -228 234 0 c129 0
241 -3 250 -6 12 -5 16 -21 16 -75 l0 -69 -237 0 c-131 0 -244 -4 -251 -8 -9
-7 -12 -62 -10 -243 l3 -234 280 -5 280 -5 3 -72 3 -73 -371 0 -370 0 0 700 0
700 353 -2 352 -3 3 -61z"/>
<path d="M2883 2673 c-10 -4 -13 -135 -13 -608 0 -540 2 -603 16 -609 28 -11
120 -6 136 6 15 12 45 88 268 673 50 132 95 249 99 260 5 11 13 32 20 48 10
26 13 27 90 27 54 0 82 -4 90 -13 6 -8 28 -61 50 -118 21 -57 44 -117 51 -134
7 -16 16 -40 21 -52 5 -13 13 -33 18 -45 5 -13 50 -131 101 -263 50 -132 95
-249 100 -260 12 -28 137 -355 166 -434 13 -35 21 -68 18 -73 -3 -4 -41 -8
-84 -8 l-79 0 -15 33 c-13 28 -113 290 -129 340 -6 16 -30 17 -306 17 -276 0
-299 -1 -304 -17 -3 -10 -22 -63 -42 -118 -20 -55 -45 -126 -55 -157 -33 -101
-29 -98 -125 -98 -52 0 -85 4 -85 10 0 12 57 167 71 192 5 10 9 27 9 38 0 16
-7 20 -34 20 -62 0 -66 -5 -66 -84 0 -43 -5 -77 -12 -84 -16 -16 -83 -15 -96
1 -6 7 -12 46 -14 87 l-3 75 -40 0 -40 0 0 -170 0 -170 805 0 805 0 3 290 c1
186 -1 286 -7 280 -6 -6 -11 -44 -13 -85 l-3 -75 -57 -3 c-66 -3 -66 -3 -70
103 l-3 60 -75 3 c-41 2 -80 8 -87 14 -17 14 -17 82 0 96 7 6 46 12 87 14 l75
3 0 495 0 495 -615 2 c-338 1 -621 -1 -627 -4z"/>
<path d="M3486 2234 c-10 -27 -33 -92 -53 -144 -19 -52 -39 -108 -45 -125 -5
-16 -14 -39 -18 -50 -5 -11 -20 -54 -35 -95 -15 -41 -36 -99 -47 -127 -33 -86
-40 -83 209 -83 120 0 224 4 231 9 10 6 11 14 1 37 -23 59 -28 70 -54 144 -15
41 -31 84 -36 95 -4 11 -25 65 -44 120 -20 55 -45 123 -55 150 -11 28 -23 65
-28 84 l-8 35 -18 -50z"/>
<path d="M3273 514 c-7 -18 11 -39 26 -30 17 11 13 46 -4 46 -9 0 -18 -7 -22
-16z"/>
</g>
</svg>
